<svg id="圖層_1" data-name="圖層 1" xmlns="http://www.w3.org/2000/svg" viewBox="0 0 595.28 51.92"><defs><style>.cls-1{fill:#ac2924;}.cls-2{fill:#fff;}</style></defs><path class="cls-1" d="M213.88,37.67a3.47,3.47,0,0,0-.64-.08c-2,0-2,0-1.94,2.09.07,3.44-2,5.83-5.57,6.26a44.25,44.25,0,0,1-5.75.33c-3.6,0-7.22,0-10.79-.35a38,38,0,0,0-4.91.19c-3,.07-6,.2-9,0-1.52-.1-3-.9-4.5-1.27a4.34,4.34,0,0,0-2,.07c-1.5.4-3,1.3-4.44,1.3-5.17,0-10.34-.33-15.52-.35-3.84,0-7.68.41-11.52.38-2.63,0-5.26-.49-7.89-.75a2.31,2.31,0,0,0-.87,0c-4.41,1.32-8.92,1-13.36.44a22.73,22.73,0,0,0-5.15,0,75.72,75.72,0,0,1-7.68.29c-5.48,0-11,.06-16.44,0a41.26,41.26,0,0,1-4.53-.58,3.06,3.06,0,0,0-1.13,0c-4.54,1.36-9,1.58-13.38-.63a3.4,3.4,0,0,0-2,0c-1.68.33-3.33,1.08-5,1.11-4.68.08-9.37,0-14-.27-1.19-.06-2.32-.92-3.5-1.36a2.2,2.2,0,0,0-1.45-.21c-3.44,1.66-7.13,1.87-10.84,1.9q-9.76.09-19.55,0c-2.18,0-4.36-.26-6-1.9A5.72,5.72,0,0,1,4.29,36c2.23-2.15,2.79-4.75,3.57-7.39,1.37-4.67,2.67-9.36,4-14a3,3,0,0,0-.08-1.69A6.56,6.56,0,0,1,17.93,3.8c6.47-.1,12.94-.09,19.4,0a17.62,17.62,0,0,1,11.44,4c.19-.08.33-.1.36-.16,1.68-3,4.34-3.9,7.59-3.86,5.13.06,10.27,0,15.4,0,4.9,0,9.52.92,13.35,4.27a6.54,6.54,0,0,0,.75.44,6.67,6.67,0,0,1,5-4.43A8.67,8.67,0,0,1,93,3.78c7.75,0,15.5-.09,23.25,0,6,.07,9.35,4.51,8,10.35a1.62,1.62,0,0,0,.1.87C127.18,9.64,130.51,4.74,137,3.56c6-1.09,11.81-.61,16.86,3.76.34-.36.72-.71,1-1.11a6.41,6.41,0,0,1,5-2.4c4.49-.09,9-.06,13.48,0a6.66,6.66,0,0,1,5.06,2.06c.6.65,1,.63,1.75.12,4.34-3.18,8.28-3.3,12.87-.52a1.41,1.41,0,0,0,1.25-.06,8.54,8.54,0,0,1,5.26-1.64h22.07c4.07,0,7.82,1.59,9.08,7.12,3.57-4.95,8-7.75,14.1-7.76,5.84,0,11.08,1.16,14.73,6.38.94-.81,1.78-1.63,2.71-2.31a17.53,17.53,0,0,1,12.78-3.55c2.24.28,4.44.84,6.67,1.19a3.94,3.94,0,0,0,2-.16c3.08-1.28,6.08-1.52,9.07.27a1.73,1.73,0,0,0,1.46,0,12,12,0,0,1,6-1.24c9.08,0,18.17.2,27.25-.06,6-.17,10,4,8.2,9.94a35.51,35.51,0,0,1-3.21,8c-1.9,3.12-6.4,4.13-9.73,2.52-1.48-.7-1.81-.31-2.17,1.08-.84,3.28-1.89,6.51-2.77,9.79a3.69,3.69,0,0,0,.11,2.13,6.43,6.43,0,0,1-4.87,8.8,43.26,43.26,0,0,1-6.93.34c-2.91,0-5.82,0-8.72-.23A5.6,5.6,0,0,1,292,41.72c-.75-2.7.19-5,2.2-6.94a6.1,6.1,0,0,0,1.59-2.32c.81-2.45,1.42-5,2.18-7.69a10.67,10.67,0,0,1-1.53,0,21.73,21.73,0,0,1-4.15-.77c-1.06-.38-1.77-.4-2.48.59,2.39,5.22,1.53,10.19-1.51,14.92-2.3,3.59-5.92,5.3-9.83,6.31a20,20,0,0,1-12.25-.36,6.17,6.17,0,0,0-5.73.21c-1.93,1-4.13.64-6.23.14a6.43,6.43,0,0,0-2,0c-.49,0-1,.3-1.45.3-5.27,0-10.55.09-15.81-.17a40.42,40.42,0,0,0-4.12,0,111.24,111.24,0,0,1-12.25,0c-2.56-.16-4.65-2.85-4.8-5.44C213.84,39.56,213.88,38.64,213.88,37.67Zm-174-12.51C41.3,24.51,42.69,24,44,23.27c4-2.35,5.58-8.93,1-12.22a10.48,10.48,0,0,0-5.24-2.12c-7-.31-14-.25-21-.32a5.21,5.21,0,0,0-1,.14c-1.51.31-2,1.2-1.23,2.57A4.51,4.51,0,0,1,16.8,15Q14,24.63,11.36,34.29c-.46,1.65-1,3.19-2.68,4.05a1.84,1.84,0,0,0-.53.51,1.42,1.42,0,0,0,.9,2.5,7.33,7.33,0,0,0,1.33.06c6.6,0,13.21,0,19.82,0a33.66,33.66,0,0,0,5.58-.51,9.69,9.69,0,0,0,7.45-5.21c1.87-3.72,1.22-7.45-1.68-9.53A18.41,18.41,0,0,0,39.88,25.16Zm36.55-.08,2-.65c5-1.61,7.4-7.3,4.77-11.5a9,9,0,0,0-7.52-4.07C69.33,8.61,63,8.65,56.71,8.58a7.27,7.27,0,0,0-1.47.16c-1.52.28-2.1,1.23-1.36,2.54a5.06,5.06,0,0,1,.21,4.13C52.81,20,51.61,24.52,50.17,29c-1.12,3.51-1,7.6-4.68,10-.84.56-.51,1.58.41,2a4.46,4.46,0,0,0,1.85.36c3.21,0,6.41,0,9.62,0a27.29,27.29,0,0,0,3.84-.11,2.33,2.33,0,0,0,1.59-1.06,1.89,1.89,0,0,0-.58-1.61c-1.44-1.23-1.45-2.68-1-4.3s.89-3,1.31-4.53c.68-2.47,1-2.68,3.46-2.23,1.66.3,2.26,1.17,1.92,2.82s-.75,3.37-1,5.06a4.82,4.82,0,0,0,2.85,5.44,10,10,0,0,0,8.86,0,10.29,10.29,0,0,0,3.43-3c.76-1,.29-2.06-.77-2.14-1.71-.13-1.91-1.06-1.62-2.42.13-.62.28-1.25.42-1.87C80.8,28.13,79.71,26.13,76.43,25.08Zm93.85-4.28-.4-.28c1.32-3,.79-6.71,4.05-8.93a2.36,2.36,0,0,0,1-1.89c-.13-.49-1.17-1-1.84-1a49.51,49.51,0,0,0-5.17-.1c-2.62,0-5.23,0-7.84.19-1.64.11-2.18,1.16-1.42,2.56a5,5,0,0,1,.21,4c-1.81,6.33-3.62,12.66-5.37,19a6.68,6.68,0,0,1-2.54,4c-.57.41-.76,1.35-1.13,2a7.12,7.12,0,0,0,2.23,1c3,.11,5.92.05,8.88.05,1.23,0,2.47,0,3.7-.07,1.59-.14,2.38-1.29,1.63-2.52a4.47,4.47,0,0,1-.38-3.94c.45-1.45.74-3,1.24-4.39a7.8,7.8,0,0,1,1.38-1.74c.26.63.37.84.44,1.07.87,2.76,1.69,5.54,2.62,8.29a4.23,4.23,0,0,0,3.86,3.18c2.91.13,5.82.13,8.73,0A2.48,2.48,0,0,0,186,40.17c.23-.46-.22-1.34-.53-2-.95-1.81-2.16-3.5-2.93-5.38-1.12-2.77-1.92-5.68-2.9-8.51-1.32-3.77-1.34-3.77,1.76-6.3a2.19,2.19,0,0,0,.22-.2c.56-.56,1-.54,1.64,0a4.9,4.9,0,0,0,5.24.9,5.54,5.54,0,0,0,3.37-5.53,4.55,4.55,0,0,0-3.58-4.63A5.59,5.59,0,0,0,183,10.06c-3.84,3.24-7.63,6.54-11.45,9.81C171.11,20.2,170.69,20.49,170.28,20.8ZM98.35,36.45a4.15,4.15,0,0,1,0-.89c.74-2.7,1.47-5.41,2.29-8.09.12-.42.64-1,1-1a5,5,0,0,1,2.12.63c.32.17.44.73.64,1.13.57,1.11,1.26,2,2.7,1.88s2-1.13,2.39-2.29c.66-2.11,1.28-4.24,1.84-6.38.45-1.74-.63-2.91-2.36-2.38a15.45,15.45,0,0,0-3,1.75,10.07,10.07,0,0,1-2.3,1.19c-1,.28-1.47-.23-1.14-1.32s.65-2.16.92-3.26c1-3.91,1-3.91,4.94-3.9.4,0,.79,0,1.18,0,1.16-.1,1.71.54,2,1.55s.64,2.16,1,3.22a2.52,2.52,0,0,0,2.73,1.59,2.45,2.45,0,0,0,2.62-1.72c.52-1.64,1.1-3.27,1.46-5,.65-3-.27-4.19-3.35-4.55a15,15,0,0,0-1.77-.08H95.18a16.08,16.08,0,0,0-2.5.17C91,9,90.49,10,91.33,11.45a3.85,3.85,0,0,1,.35,3.24c-1.68,5.81-3.24,11.66-5,17.45-.66,2.2-.77,4.7-3.12,6.14-.59.37-.8,1.33-1.19,2,.74.37,1.47,1,2.22,1.06,3.64.12,7.3.06,10.95.06l12.73,0a3.93,3.93,0,0,0,4.14-2.89c.58-1.88,1.18-3.75,1.67-5.66a2.12,2.12,0,0,0-2.51-2.71,7.09,7.09,0,0,0-2.88,1.3A11.82,11.82,0,0,0,106.3,34C104.28,36.83,101.46,36.82,98.35,36.45Zm174.22,5.09.08.43a48.48,48.48,0,0,0,7-1.66c5.7-2.26,8.27-8.78,5.61-13.71-1.21-2.26-3.28-3.62-5.35-5a55.66,55.66,0,0,1-5.77-4.09,3.2,3.2,0,0,1-.6-2.64c.21-1,1.25-1.39,2.35-1.36a6.39,6.39,0,0,1,4.4,2.15c1.27,1.24,2.38,2.64,3.69,3.83,1.77,1.59,3.75,1.08,4.52-1.15s1.42-4.5,2.08-6.76c.58-2-.64-3.43-2.64-3a7.31,7.31,0,0,0-3.06,1.32,2.63,2.63,0,0,1-3.27.29A16.2,16.2,0,0,0,268,9.39c-5.4,2.15-8.13,8.39-5.89,13.35,1.18,2.6,3.41,4.15,5.68,5.66A48.53,48.53,0,0,1,273,32.05a2.91,2.91,0,0,1,.64,2.6,3.28,3.28,0,0,1-2.27,1.46,5.59,5.59,0,0,1-5.3-2.32c-1.1-1.33-2.1-2.75-3.3-4-2-2.08-4.45-1.51-5.4,1.2-.79,2.27-1.47,4.59-2.25,6.87-.35,1-.69,2.22.35,2.81a4.06,4.06,0,0,0,3,.43A14.14,14.14,0,0,0,262,38.87a1.19,1.19,0,0,1,1.68-.08A14.13,14.13,0,0,0,272.57,41.54Zm-33-10c-1,2.56-.84,5.24-3.33,6.76-.78.48-1.62,1.22-1.08,2.14a2.81,2.81,0,0,0,2.08,1c3.5.1,7,.05,10.51,0a15,15,0,0,0,2.51-.1c1.26-.22,2-1.34,1.36-2.23-1.35-1.82-.68-3.53-.17-5.33,1.54-5.34,3.1-10.67,4.53-16a6.91,6.91,0,0,0-4.18-8.61C246.11,6.87,238,7,234.08,15c-2.26,4.65-4.54,9.28-6.77,14-1.78,3.72-3.18,7.72-7.61,9.27a.17.17,0,0,0-.12.08c-.28.59-.89,1.3-.74,1.75a2.19,2.19,0,0,0,1.56,1.25c3.06.12,6.12.13,9.18,0,1.4,0,1.92-1.25,1.27-2.45a6.86,6.86,0,0,1,1.11-7,1.08,1.08,0,0,1,.62-.33C234.79,31.5,237,31.51,239.54,31.51Zm-104.06,0c-.95,2.55-.88,5.2-3.31,6.78-.59.39-.83,1.31-1.23,2,.74.37,1.46,1,2.21,1.07,3.15.12,6.31.06,9.47.06,1.08,0,2.18,0,3.25-.06,1.7-.17,2.32-1.37,1.42-2.77A4.25,4.25,0,0,1,147,34.9c1.57-5.49,3.18-11,4.74-16.44,1.17-4.15-.22-7.68-3.93-9.28-5.21-2.26-13.78-2.37-17.66,5.57-2.59,5.3-5.24,10.58-7.72,15.93-1.46,3.15-3,6.1-6.55,7.37-.13.05-.31.13-.36.24-.29.63-.83,1.33-.72,1.89a2,2,0,0,0,1.48,1.14c3,.1,6.11.13,9.17,0,1.51-.06,2-1.25,1.27-2.51-1-1.7-.32-5.78,1.2-7.06a.89.89,0,0,1,.53-.22C130.73,31.51,133,31.52,135.48,31.52Zm73-8L208,23c.8-2.88,1.59-5.76,2.43-8.62a1,1,0,0,1,.72-.61c1.71,0,3.55-.26,5.1.27.76.27,1,2,1.48,3.13a5.2,5.2,0,0,1,.21.55,2.83,2.83,0,0,0,3.12,2.15,2.94,2.94,0,0,0,3.19-2.29c.48-1.55.91-3.12,1.31-4.69.6-2.35-.41-4.07-2.84-4.11-7.89-.15-15.77-.08-23.66-.09a1.35,1.35,0,0,0-.29,0c-1.7.3-2,1.14-1.43,2.74a6.09,6.09,0,0,1,.35,3.38C196.07,20.92,194.31,27,192.55,33c-.59,2-.87,4.16-3,5.4a2.12,2.12,0,0,0-.84,1.9,2.34,2.34,0,0,0,1.85,1.06q6.81.13,13.61,0a2.62,2.62,0,0,0,2-1.13c.22-.42-.33-1.44-.79-2a3,3,0,0,1-.85-3.2c.57-1.72.95-3.51,1.52-5.23a2.31,2.31,0,0,1,1.14-1.38,1.7,1.7,0,0,1,2.14,1.1,8.68,8.68,0,0,0,1.15,1.89c1.48,1.84,3.74,1.65,4.56-.55a64.68,64.68,0,0,0,2.48-8.32c.52-2.24-1.2-3.53-3.3-2.55a30.26,30.26,0,0,0-3,2.1A29.24,29.24,0,0,1,208.45,23.5Zm97.64-9.77c-.08.44-.1.69-.16.91q-2.55,9.09-5.11,18.18c-.58,2.07-.89,4.24-3,5.52-.55.33-.74,1.25-1.1,1.9.74.38,1.46,1.08,2.21,1.1,3.94.11,7.89,0,11.84,0a4.6,4.6,0,0,0,.74-.05c1.83-.28,2.27-1.32,1.63-3a6,6,0,0,1-.31-3.38c1.75-6.55,3.64-13.07,5.55-19.58.19-.64.72-1.5,1.26-1.65a2,2,0,0,1,2.32,1.38c.45,1,.92,2.07,1.42,3.08a3.25,3.25,0,0,0,5.78-.14,47.92,47.92,0,0,0,1.54-4.61c1.09-4.06.47-4.85-3.73-4.86q-12.94,0-25.9,0a12.38,12.38,0,0,0-3.23.28,3.55,3.55,0,0,0-2.19,1.48,45.28,45.28,0,0,0-2.15,7,1.92,1.92,0,0,0,2.21,2.42,7.38,7.38,0,0,0,3.45-1.33,20.12,20.12,0,0,0,3-3.25A4.33,4.33,0,0,1,306.09,13.73Zm-116,10c-1.11.06-1.93.12-2.75.15-2.61.09-2.63.09-1.8,2.62.55,1.68,1.17,3.34,1.76,5h.55C188.55,29,189.28,26.47,190.06,23.74Zm-69.7-.24c-1.68.52-3.12.91-4.51,1.44-.24.09-.49,1-.36,1.11.8.72,1.71,1.33,2.7,2.07Zm103.51,1.2-.5-.46c-.5.39-1.27.68-1.45,1.19-.69,1.95-1.19,4-1.76,6l.38.15Z"/><path class="cls-1" d="M548.57,25.1c1.56,1.39,2.53,2.21,3.46,3.06s1.06,0,1.33-.56c1.68-3.45,3.25-7,5.06-10.34a61.51,61.51,0,0,1,5.3-8.8,13.91,13.91,0,0,1,10.82-5.28c4.1-.2,8.09.1,11.71,2.27,4.88,2.93,6.56,8,5.35,13.29-1.28,5.55-3.06,11-4.57,16.48a3.07,3.07,0,0,0,.08,1.8c1.57,4.26-.72,8.64-5.24,8.95a134.57,134.57,0,0,1-15.94-.08c-1.41-.07-2.74,0-4.13,0a87.1,87.1,0,0,1-12.09,0,12.08,12.08,0,0,0-4.68,0,16.74,16.74,0,0,1-4.26.38c-6.32,0-12.63,0-18.95,0-5.12,0-5.12,0-9.17-2.92-.64.5-1.27,1.05-2,1.5C505.57,48.18,499.13,46.49,496,41c-.91-1.57-1.74-3.17-2.82-4.67a23.14,23.14,0,0,1,.59,2.28,6.39,6.39,0,0,1-6.22,7.63c-3.3.07-6.59-.21-9.89-.29-.88,0-1.76.19-2.65.19-4.87,0-9.76.12-14.63-.17a42.92,42.92,0,0,0-5.44.05c-3.78.26-7.7.55-11.33-.22a11.73,11.73,0,0,0-6.22.43c-4.36,1.3-9.08-1-11.57-5.36-.83-1.46-1.62-2.94-2.52-4.59a19.62,19.62,0,0,1,.45,4.38,6.09,6.09,0,0,1-5.58,5.47,54.23,54.23,0,0,1-9.45,0c-2.47-.19-3.16-.93-4.81-3.24a95,95,0,0,1-9,3.25c-6.38,1.62-12.54,1-18.13-2.77a12.84,12.84,0,0,1-2.28-2.08c-.69-.75-1.2-.8-1.94,0A14.94,14.94,0,0,1,361.94,46c-8.23.24-16.48.3-24.72.28a9.82,9.82,0,0,1-4.5-1.17A5.75,5.75,0,0,1,331.55,36c2.23-2.22,2.83-4.83,3.62-7.52,1.35-4.62,2.62-9.27,3.88-13.92a2.76,2.76,0,0,0,0-1.66,6.59,6.59,0,0,1,6.3-9.12c6.32-.06,12.64-.12,19,0C369.7,3.87,374.59,5.39,378,10c.67.9,1.14.19,1.55-.2a24.13,24.13,0,0,1,8.37-5.16,27,27,0,0,1,14.7-1.16,16.72,16.72,0,0,1,9.32,5c1.47-3.94,4.53-4.82,8.14-4.75,2,0,4,0,6.07,0a8.44,8.44,0,0,1,7.44,4.05c.28.41.63.78,1.06,1.3,1.2-4,4-5.29,7.56-5.34,2.32,0,4.64-.06,7,.05,3.5.15,5.4,2,5.74,5.53.05.49.08,1,.15,1.88.54-.63.88-1,1.17-1.38a15.51,15.51,0,0,1,12.56-6.69c4.7-.15,9.14.44,13,3.51a1.33,1.33,0,0,0,1.28-.24,7.78,7.78,0,0,1,6.17-2.67h7.11a8.38,8.38,0,0,1,7.33,4c.27.4.6.78,1.06,1.37,1.49-4.5,4.76-5.51,8.7-5.36,3,.11,6-.45,8.92.8a1.8,1.8,0,0,0,.85-.06A50.57,50.57,0,0,1,529,3.78q10.88-.12,21.76,0a7.8,7.8,0,0,1,7.76,5.9,8.17,8.17,0,0,1-1.83,7.74c-2,2.3-4.2,4.43-6.36,6.59A9.09,9.09,0,0,1,548.57,25.1Zm-181.52.09a42.22,42.22,0,0,0,4.14-1.91c4.52-2.68,5.23-9,1.21-12.11a10.45,10.45,0,0,0-5.49-2.24c-6.89-.34-13.8-.26-20.7-.33a5.77,5.77,0,0,0-1.17.15c-1.5.3-2,1.21-1.26,2.57a4.18,4.18,0,0,1,.36,3.39q-2.85,9.84-5.56,19.72A5.83,5.83,0,0,1,336,38.34a2.51,2.51,0,0,0-.71.74,1.3,1.3,0,0,0,.73,2.19,4.46,4.46,0,0,0,1.32.14c7.35,0,14.7.11,22-.1a19.34,19.34,0,0,0,7-1.58c3.49-1.49,5.05-4.53,5.2-8.27C371.64,28.33,369.9,26.45,367.05,25.19ZM388.66,42a19,19,0,0,0,10.19-2.34c8.38-4.73,11.94-12.22,11.83-21.58a9.22,9.22,0,0,0-5.94-8.76c-7.11-3.15-17.08-1-22.5,4.77a25.36,25.36,0,0,0-6.61,14.68c-.57,4.7.58,8.85,5,11.43A14.62,14.62,0,0,0,388.66,42Zm142.49-5.49c.57-.62.93-1.06,1.33-1.45q9.42-9.41,18.83-18.79a15,15,0,0,0,1.76-2c1.81-2.67.7-5.13-2.48-5.57a13.73,13.73,0,0,0-1.92-.1c-4.89,0-9.77,0-14.65,0-2.47,0-4.93.08-7.39.17a3.51,3.51,0,0,0-3.38,2.63c-.56,1.63-1.08,3.27-1.52,4.93-.73,2.8.55,4.11,3.37,3.39a5.07,5.07,0,0,0,2-1.21,22.65,22.65,0,0,0,2.71-2.92c2-2.65,4.7-2.05,7.79-2l-3.28,3.49Q526.16,25.67,518,34.25a17.4,17.4,0,0,0-1.23,1.47,3.49,3.49,0,0,0-.6,3.74,3.35,3.35,0,0,0,3.26,1.9c2.86.06,5.73,0,8.59.06,4.73,0,9.47,0,14.21,0,2.22,0,3.81-.85,4.46-3.08.49-1.7,1-3.38,1.47-5.09.58-2.27-.71-3.48-3-3-2.06.4-3.24,1.94-4.28,3.42C538.42,37.14,535,36.72,531.15,36.46Zm-93.73-10.6c-.47-.83-.72-1.24-.93-1.66-2.2-4.34-4.42-8.67-6.59-13a4.35,4.35,0,0,0-4.25-2.61c-2,0-4,0-6.07,0-2.75,0-3.41,1-2.2,3.52a4.13,4.13,0,0,1,.16,3.25c-1.33,4.53-2.44,9.13-3.9,13.61-1.13,3.5-1,7.58-4.68,10-1.11.73-.44,2.34,1,2.4a70.13,70.13,0,0,0,7.25,0c1.64-.1,2.05-1.28,1.29-2.73a4.28,4.28,0,0,1-.71-2.58c1.19-4.69,2.56-9.34,4-14.41.42.77.67,1.17.87,1.59,2.4,5,4.75,9.94,7.22,14.86a7.68,7.68,0,0,0,2.26,2.67c3,2.12,6.85.63,8-3.23,1.84-6,3.43-12.11,5.2-18.15.86-2.95,1.05-6.21,4.12-8.18,1.22-.78.63-2.36-.91-2.45a56.26,56.26,0,0,0-7.23,0c-1.74.12-2,1.13-1.29,2.69a5.55,5.55,0,0,1,.57,3.17c-.44,2.31-1.22,4.56-1.87,6.82C438.32,22.78,437.92,24.11,437.42,25.86Zm54.47-4.27c.57,1.13,1,1.89,1.34,2.67,2.27,4.69,4.5,9.41,6.84,14.06a5.22,5.22,0,0,0,3.73,3.1c3.29.62,5.52-.75,6.54-4.22,1.78-6.08,3.43-12.21,5.2-18.3.8-2.77.92-5.91,3.92-7.62A1.86,1.86,0,0,0,520,9.61a1.71,1.71,0,0,0-1.33-.9c-2.41-.07-4.83-.11-7.24,0-1.7.11-2.22,1.3-1.22,2.66a4.2,4.2,0,0,1,.45,3.8c-.26,1-.6,2.08-.9,3.12l-2.22,7.53c-.56-1-.92-1.65-1.25-2.29-2.06-4.09-4.15-8.15-6.16-12.27a4.58,4.58,0,0,0-4.62-2.76c-1.92,0-3.85,0-5.77,0-2.75,0-3.38,1-2.22,3.53a3.84,3.84,0,0,1,.23,3c-1.51,5.13-2.83,10.33-4.39,15.46-.91,3-1,6.42-4.18,8.31-.36.21-.52,1.21-.35,1.7a1.81,1.81,0,0,0,1.38.84c2.27.08,4.54.1,6.81,0,1.9-.08,2.49-1.31,1.43-2.88a3.53,3.53,0,0,1-.45-3.35c.48-1.44.83-2.93,1.25-4.4C490.07,27.81,490.92,24.9,491.89,21.59ZM463.84,31.5a9.3,9.3,0,0,1-3.14,6.92,3.08,3.08,0,0,0-.94,1.95c0,.3.9,1,1.4,1,4.49.07,9,.1,13.47,0,1.63,0,2-1.22,1.42-2.73a5.17,5.17,0,0,1-.41-3.05c1.43-5.41,3-10.8,4.59-16.16,1.45-4.84.19-8.73-3.88-10.31-5.81-2.26-13.8-2-17.66,6-2.59,5.36-5.27,10.67-7.76,16.07-1.36,2.95-2.9,5.6-6.13,6.8a1.2,1.2,0,0,0-.6.41c-.31.57-.85,1.26-.73,1.76a2,2,0,0,0,1.44,1.2c3.11.11,6.22.13,9.32,0,1.39,0,1.89-1.27,1.24-2.48a6.92,6.92,0,0,1,1.15-7,1.07,1.07,0,0,1,.64-.31C459.42,31.49,461.58,31.5,463.84,31.5Zm106.55,0c-.92,2.58-.84,5.22-3.3,6.8-.58.37-.79,1.32-1.16,2a6.69,6.69,0,0,0,2.21,1c2.41.14,4.84.06,7.26.06,1.77,0,3.55,0,5.32-.06s2.23-1.23,1.53-2.87a5.3,5.3,0,0,1-.31-3.21c1.47-5.51,3.11-11,4.69-16.45,1.27-4.44-.08-8.09-3.91-9.68C577.34,6.91,568.91,6.85,565,15c-2.56,5.32-5.25,10.58-7.71,15.94-1.42,3.08-3,5.86-6.4,7.14a1,1,0,0,0-.49.32c-.29.58-.82,1.27-.69,1.77a2,2,0,0,0,1.46,1.18c3.1.11,6.22.14,9.32,0,1.41-.05,1.91-1.27,1.23-2.46-1-1.76-.38-5.7,1.13-7a.88.88,0,0,1,.52-.27ZM453.08,15.08a4.07,4.07,0,0,0-2.3,4.89c.62-1.25,1.2-2.42,1.77-3.59C452.72,16,452.84,15.68,453.08,15.08Zm67.63,9c-1.58-.45-1.72-.28-1.68,1.81Z"/><path class="cls-2" d="M39.88,25.16a18.41,18.41,0,0,1,1.67,1c2.9,2.08,3.55,5.81,1.68,9.53a9.69,9.69,0,0,1-7.45,5.21,33.66,33.66,0,0,1-5.58.51c-6.61.06-13.22,0-19.82,0a7.33,7.33,0,0,1-1.33-.06,1.42,1.42,0,0,1-.9-2.5,1.84,1.84,0,0,1,.53-.51c1.64-.86,2.22-2.4,2.68-4.05Q14,24.65,16.8,15a4.51,4.51,0,0,0-.29-3.68c-.75-1.37-.28-2.26,1.23-2.57a5.21,5.21,0,0,1,1-.14c7,.07,14,0,21,.32A10.48,10.48,0,0,1,45,11.05c4.53,3.29,3,9.87-1,12.22C42.69,24,41.3,24.51,39.88,25.16ZM23.23,36.6c3.09.51,5.12,0,6.25-1.52a7.48,7.48,0,0,0,1.58-5.51,2.9,2.9,0,0,0-1.59-2c-2.4-.87-3.56-.2-4.29,2.17S23.9,34.26,23.23,36.6ZM27.37,22c4.86.65,6.75-1.53,7.32-5.84.25-1.88-.36-2.62-2-3-2.21-.44-2.7-.2-3.3,1.82C28.66,17.33,28.05,19.63,27.37,22Z"/><path class="cls-2" d="M76.43,25.08c3.28,1.05,4.37,3.05,3.64,6.37-.14.62-.29,1.25-.42,1.87-.29,1.36-.09,2.29,1.62,2.42,1.06.08,1.53,1.17.77,2.14a10.29,10.29,0,0,1-3.43,3,10,10,0,0,1-8.86,0,4.82,4.82,0,0,1-2.85-5.44c.29-1.69.7-3.37,1-5.06s-.26-2.52-1.92-2.82c-2.47-.45-2.78-.24-3.46,2.23-.42,1.51-.86,3-1.31,4.53s-.47,3.07,1,4.3a1.89,1.89,0,0,1,.58,1.61,2.33,2.33,0,0,1-1.59,1.06,27.29,27.29,0,0,1-3.84.11c-3.21,0-6.41,0-9.62,0A4.46,4.46,0,0,1,45.9,41c-.92-.46-1.25-1.48-.41-2,3.65-2.39,3.56-6.48,4.68-10,1.44-4.49,2.64-9.06,3.92-13.6a5.06,5.06,0,0,0-.21-4.13C53.14,10,53.72,9,55.24,8.74a7.27,7.27,0,0,1,1.47-.16c6.31.07,12.62,0,18.93.28a9,9,0,0,1,7.52,4.07c2.63,4.2.21,9.89-4.77,11.5ZM66.38,22.36a5.43,5.43,0,0,0,4.92-6.83c-.5-1.66-2-1.49-3.28-1.59s-1.51.6-1.72,1.56c-.38,1.72-.81,3.43-1.24,5.15S64.7,22.42,66.38,22.36Z"/><path class="cls-2" d="M170.28,20.8c.41-.31.83-.6,1.22-.93,3.82-3.27,7.61-6.57,11.45-9.81a5.59,5.59,0,0,1,5.32-1.47,4.55,4.55,0,0,1,3.58,4.63,5.54,5.54,0,0,1-3.37,5.53,4.9,4.9,0,0,1-5.24-.9c-.62-.56-1.08-.58-1.64,0a2.19,2.19,0,0,1-.22.2c-3.1,2.53-3.08,2.53-1.76,6.3,1,2.83,1.78,5.74,2.9,8.51.77,1.88,2,3.57,2.93,5.38.31.61.76,1.49.53,2a2.48,2.48,0,0,1-1.83,1.15c-2.91.11-5.82.11-8.73,0a4.23,4.23,0,0,1-3.86-3.18c-.93-2.75-1.75-5.53-2.62-8.29-.07-.23-.18-.44-.44-1.07a7.8,7.8,0,0,0-1.38,1.74c-.5,1.43-.79,2.94-1.24,4.39a4.47,4.47,0,0,0,.38,3.94c.75,1.23,0,2.38-1.63,2.52-1.23.11-2.47.06-3.7.07-3,0-5.92.06-8.88-.05a7.12,7.12,0,0,1-2.23-1c.37-.7.56-1.64,1.13-2a6.68,6.68,0,0,0,2.54-4c1.75-6.35,3.56-12.68,5.37-19a5,5,0,0,0-.21-4c-.76-1.4-.22-2.45,1.42-2.56,2.61-.18,5.22-.16,7.84-.19a49.51,49.51,0,0,1,5.17.1c.67.06,1.71.55,1.84,1a2.36,2.36,0,0,1-1,1.89c-3.26,2.22-2.73,5.95-4.05,8.93Z"/><path class="cls-2" d="M98.35,36.45c3.11.37,5.93.38,8-2.44a11.82,11.82,0,0,1,2.42-2.57,7.09,7.09,0,0,1,2.88-1.3,2.12,2.12,0,0,1,2.51,2.71c-.49,1.91-1.09,3.78-1.67,5.66a3.93,3.93,0,0,1-4.14,2.89l-12.73,0c-3.65,0-7.31.06-10.95-.06-.75,0-1.48-.69-2.22-1.06.39-.69.6-1.65,1.19-2,2.35-1.44,2.46-3.94,3.12-6.14,1.73-5.79,3.29-11.64,5-17.45a3.85,3.85,0,0,0-.35-3.24C90.49,10,91,9,92.68,8.73a16.08,16.08,0,0,1,2.5-.17h19.1a15,15,0,0,1,1.77.08c3.08.36,4,1.55,3.35,4.55-.36,1.68-.94,3.31-1.46,5a2.45,2.45,0,0,1-2.62,1.72,2.52,2.52,0,0,1-2.73-1.59c-.38-1.06-.7-2.14-1-3.22s-.85-1.65-2-1.55c-.39,0-.78,0-1.18,0-4,0-4,0-4.94,3.9-.27,1.1-.59,2.18-.92,3.26s.12,1.6,1.14,1.32a10.07,10.07,0,0,0,2.3-1.19A15.45,15.45,0,0,1,109,19c1.73-.53,2.81.64,2.36,2.38-.56,2.14-1.18,4.27-1.84,6.38-.36,1.16-1,2.17-2.39,2.29s-2.13-.77-2.7-1.88c-.2-.4-.32-1-.64-1.13a5,5,0,0,0-2.12-.63c-.33,0-.85.6-1,1-.82,2.68-1.55,5.39-2.29,8.09A4.15,4.15,0,0,0,98.35,36.45Z"/><path class="cls-2" d="M272.57,41.54a14.13,14.13,0,0,1-8.88-2.75,1.19,1.19,0,0,0-1.68.08,14.14,14.14,0,0,1-3.58,2.25,4.06,4.06,0,0,1-3-.43c-1-.59-.7-1.78-.35-2.81.78-2.28,1.46-4.6,2.25-6.87.95-2.71,3.4-3.28,5.4-1.2,1.2,1.23,2.2,2.65,3.3,4a5.59,5.59,0,0,0,5.3,2.32,3.28,3.28,0,0,0,2.27-1.46,2.91,2.91,0,0,0-.64-2.6,48.53,48.53,0,0,0-5.17-3.65c-2.27-1.51-4.5-3.06-5.68-5.66-2.24-5,.49-11.2,5.89-13.35a16.2,16.2,0,0,1,13.59.78,2.63,2.63,0,0,0,3.27-.29,7.31,7.31,0,0,1,3.06-1.32c2-.39,3.22,1.07,2.64,3-.66,2.26-1.3,4.54-2.08,6.76s-2.75,2.74-4.52,1.15c-1.31-1.19-2.42-2.59-3.69-3.83a6.39,6.39,0,0,0-4.4-2.15c-1.1,0-2.14.35-2.35,1.36a3.2,3.2,0,0,0,.6,2.64,55.66,55.66,0,0,0,5.77,4.09c2.07,1.36,4.14,2.72,5.35,5,2.66,4.93.09,11.45-5.61,13.71a48.48,48.48,0,0,1-7,1.66Z"/><path class="cls-2" d="M239.54,31.51c-2.55,0-4.75,0-7,0a1.08,1.08,0,0,0-.62.33,6.86,6.86,0,0,0-1.11,7c.65,1.2.13,2.4-1.27,2.45-3.06.12-6.12.11-9.18,0a2.19,2.19,0,0,1-1.56-1.25c-.15-.45.46-1.16.74-1.75a.17.17,0,0,1,.12-.08c4.43-1.55,5.83-5.55,7.61-9.27,2.23-4.67,4.51-9.3,6.77-13.95,3.91-8,12-8.14,17.69-5.91A6.91,6.91,0,0,1,256,17.71c-1.43,5.37-3,10.7-4.53,16-.51,1.8-1.18,3.51.17,5.33.66.89-.1,2-1.36,2.23a15,15,0,0,1-2.51.1c-3.5,0-7,.06-10.51,0a2.81,2.81,0,0,1-2.08-1c-.54-.92.3-1.66,1.08-2.14C238.7,36.75,238.57,34.07,239.54,31.51Zm-5.23-5.17c2.36,0,4.3,0,6.25,0a.87.87,0,0,0,.64-.45c.9-3,1.87-5.89,2.57-8.89.37-1.6-.84-2.53-2.44-2a3.31,3.31,0,0,0-1.88,1.27C237.71,19.44,236.12,22.73,234.31,26.34Z"/><path class="cls-2" d="M135.48,31.52c-2.51,0-4.75,0-7,0a.89.89,0,0,0-.53.22c-1.52,1.28-2.21,5.36-1.2,7.06.74,1.26.24,2.45-1.27,2.51-3.06.13-6.12.1-9.17,0a2,2,0,0,1-1.48-1.14c-.11-.56.43-1.26.72-1.89,0-.11.23-.19.36-.24,3.52-1.27,5.09-4.22,6.55-7.37,2.48-5.35,5.13-10.63,7.72-15.93,3.88-7.94,12.45-7.83,17.66-5.57,3.71,1.6,5.1,5.13,3.93,9.28-1.56,5.48-3.17,11-4.74,16.44a4.25,4.25,0,0,0,.26,3.69c.9,1.4.28,2.6-1.42,2.77-1.07.1-2.17,0-3.25.06-3.16,0-6.32.06-9.47-.06-.75,0-1.47-.7-2.21-1.07.4-.68.64-1.6,1.23-2C134.6,36.72,134.53,34.07,135.48,31.52Zm-5.17-5.17c2.28,0,4.14,0,6,0a1.44,1.44,0,0,0,1-.86c.83-2.62,1.64-5.25,2.27-7.93.17-.71-.1-2.07-.56-2.28a4.47,4.47,0,0,0-2.74.12,2.41,2.41,0,0,0-1.19,1.26C133.51,19.73,132,22.87,130.31,26.35Z"/><path class="cls-2" d="M208.45,23.5a29.24,29.24,0,0,0,2.74-1.38,30.26,30.26,0,0,1,3-2.1c2.1-1,3.82.31,3.3,2.55A64.68,64.68,0,0,1,215,30.89c-.82,2.2-3.08,2.39-4.56.55a8.68,8.68,0,0,1-1.15-1.89,1.7,1.7,0,0,0-2.14-1.1A2.31,2.31,0,0,0,206,29.83c-.57,1.72-.95,3.51-1.52,5.23a3,3,0,0,0,.85,3.2c.46.51,1,1.53.79,2a2.62,2.62,0,0,1-2,1.13q-6.8.15-13.61,0a2.34,2.34,0,0,1-1.85-1.06,2.12,2.12,0,0,1,.84-1.9c2.11-1.24,2.39-3.4,3-5.4,1.76-6,3.52-12.07,5.13-18.15a6.09,6.09,0,0,0-.35-3.38c-.58-1.6-.27-2.44,1.43-2.74a1.35,1.35,0,0,1,.29,0c7.89,0,15.77-.06,23.66.09,2.43,0,3.44,1.76,2.84,4.11-.4,1.57-.83,3.14-1.31,4.69a2.94,2.94,0,0,1-3.19,2.29,2.83,2.83,0,0,1-3.12-2.15,5.2,5.2,0,0,0-.21-.55c-.48-1.09-.72-2.86-1.48-3.13-1.55-.53-3.39-.27-5.1-.27a1,1,0,0,0-.72.61c-.84,2.86-1.63,5.74-2.43,8.62Z"/><path class="cls-2" d="M306.09,13.73a4.33,4.33,0,0,0-4,1.46,20.12,20.12,0,0,1-3,3.25,7.38,7.38,0,0,1-3.45,1.33,1.92,1.92,0,0,1-2.21-2.42,45.28,45.28,0,0,1,2.15-7,3.55,3.55,0,0,1,2.19-1.48A12.38,12.38,0,0,1,301,8.56q12.94,0,25.9,0c4.2,0,4.82.8,3.73,4.86A47.92,47.92,0,0,1,329.13,18a3.25,3.25,0,0,1-5.78.14c-.5-1-1-2-1.42-3.08a2,2,0,0,0-2.32-1.38c-.54.15-1.07,1-1.26,1.65-1.91,6.51-3.8,13-5.55,19.58a6,6,0,0,0,.31,3.38c.64,1.7.2,2.74-1.63,3a4.6,4.6,0,0,1-.74.05c-3.95,0-7.9.07-11.84,0-.75,0-1.47-.72-2.21-1.1.36-.65.55-1.57,1.1-1.9,2.14-1.28,2.45-3.45,3-5.52q2.55-9.09,5.11-18.18C306,14.42,306,14.17,306.09,13.73Z"/><path class="cls-2" d="M190.06,23.74c-.78,2.73-1.51,5.25-2.24,7.77h-.55c-.59-1.67-1.21-3.33-1.76-5-.83-2.53-.81-2.53,1.8-2.62C188.13,23.86,189,23.8,190.06,23.74Z"/><path class="cls-2" d="M120.36,23.5l-2.17,4.62c-1-.74-1.9-1.35-2.7-2.07-.13-.12.12-1,.36-1.11C117.24,24.41,118.68,24,120.36,23.5Z"/><path class="cls-2" d="M223.87,24.7l-3.33,6.85-.38-.15c.57-2,1.07-4,1.76-6,.18-.51,1-.8,1.45-1.19Z"/><path class="cls-2" d="M367.05,25.19c2.85,1.26,4.59,3.14,4.47,6.27-.15,3.74-1.71,6.78-5.2,8.27a19.34,19.34,0,0,1-7,1.58c-7.34.21-14.69.1-22,.1a4.46,4.46,0,0,1-1.32-.14,1.3,1.3,0,0,1-.73-2.19,2.51,2.51,0,0,1,.71-.74,5.83,5.83,0,0,0,2.63-3.91q2.7-9.88,5.56-19.72a4.18,4.18,0,0,0-.36-3.39c-.72-1.36-.24-2.27,1.26-2.57a5.77,5.77,0,0,1,1.17-.15c6.9.07,13.81,0,20.7.33a10.45,10.45,0,0,1,5.49,2.24c4,3.15,3.31,9.43-1.21,12.11A42.22,42.22,0,0,1,367.05,25.19ZM350.47,36.72c2.57.14,5,.43,6.31-1.77a13.84,13.84,0,0,0,1.59-5.09,2.53,2.53,0,0,0-1.31-2.11,13.44,13.44,0,0,0-3.86-.07c-.09,0-.2.21-.24.34C352.15,30.83,351.35,33.64,350.47,36.72ZM354.64,22c5.53.91,7.24-2.66,7.34-6.76a2.4,2.4,0,0,0-1.44-1.75,12,12,0,0,0-3.3-.14c-.08,0-.18.23-.22.36C356.23,16.44,355.45,19.16,354.64,22Z"/><path class="cls-2" d="M388.66,42a14.62,14.62,0,0,1-8-1.8c-4.42-2.58-5.57-6.73-5-11.43A25.36,25.36,0,0,1,382.24,14c5.42-5.81,15.39-7.92,22.5-4.77A9.22,9.22,0,0,1,410.68,18c.11,9.36-3.45,16.85-11.83,21.58A19,19,0,0,1,388.66,42Zm-1.59-8c.43,1.27,0,2.65,1.54,3.27a3.5,3.5,0,0,0,3.87-1.46,6.54,6.54,0,0,0,1.1-1.74c1.41-4,2.89-7.94,4.08-12a29.53,29.53,0,0,0,1-6.68c.14-2.28-1.79-3.29-3.71-2A7.32,7.32,0,0,0,392.72,16a34.58,34.58,0,0,0-2.4,5.85C389.13,25.88,388.14,29.94,387.07,34Z"/><path class="cls-2" d="M531.15,36.46c3.83.26,7.27.68,9.73-2.83,1-1.48,2.22-3,4.28-3.42,2.31-.45,3.6.76,3,3-.44,1.71-1,3.39-1.47,5.09-.65,2.23-2.24,3.09-4.46,3.08-4.74,0-9.48,0-14.21,0-2.86,0-5.73,0-8.59-.06a3.35,3.35,0,0,1-3.26-1.9,3.49,3.49,0,0,1,.6-3.74A17.4,17.4,0,0,1,518,34.25q8.13-8.59,16.27-17.16l3.28-3.49c-3.09-.1-5.8-.7-7.79,2a22.65,22.65,0,0,1-2.71,2.92,5.07,5.07,0,0,1-2,1.21c-2.82.72-4.1-.59-3.37-3.39.44-1.66,1-3.3,1.52-4.93a3.51,3.51,0,0,1,3.38-2.63c2.46-.09,4.92-.16,7.39-.17,4.88,0,9.76,0,14.65,0a13.73,13.73,0,0,1,1.92.1c3.18.44,4.29,2.9,2.48,5.57a15,15,0,0,1-1.76,2q-9.4,9.41-18.83,18.79C532.08,35.4,531.72,35.84,531.15,36.46Z"/><path class="cls-2" d="M437.42,25.86c.5-1.75.9-3.08,1.28-4.42.65-2.26,1.43-4.51,1.87-6.82a5.55,5.55,0,0,0-.57-3.17c-.73-1.56-.45-2.57,1.29-2.69a56.26,56.26,0,0,1,7.23,0c1.54.09,2.13,1.67.91,2.45-3.07,2-3.26,5.23-4.12,8.18-1.77,6-3.36,12.13-5.2,18.15-1.18,3.86-5,5.35-8,3.23a7.68,7.68,0,0,1-2.26-2.67c-2.47-4.92-4.82-9.9-7.22-14.86-.2-.42-.45-.82-.87-1.59-1.42,5.07-2.79,9.72-4,14.41a4.28,4.28,0,0,0,.71,2.58c.76,1.45.35,2.63-1.29,2.73a70.13,70.13,0,0,1-7.25,0c-1.4-.06-2.07-1.67-1-2.4,3.66-2.43,3.55-6.51,4.68-10,1.46-4.48,2.57-9.08,3.9-13.61a4.13,4.13,0,0,0-.16-3.25c-1.21-2.47-.55-3.47,2.2-3.52,2,0,4,0,6.07,0a4.35,4.35,0,0,1,4.25,2.61c2.17,4.36,4.39,8.69,6.59,13C436.7,24.62,437,25,437.42,25.86Z"/><path class="cls-2" d="M491.89,21.59c-1,3.31-1.82,6.22-2.67,9.14-.42,1.47-.77,3-1.25,4.4a3.53,3.53,0,0,0,.45,3.35c1.06,1.57.47,2.8-1.43,2.88-2.27.1-4.54.08-6.81,0a1.81,1.81,0,0,1-1.38-.84c-.17-.49,0-1.49.35-1.7,3.21-1.89,3.27-5.34,4.18-8.31,1.56-5.13,2.88-10.33,4.39-15.46a3.84,3.84,0,0,0-.23-3c-1.16-2.49-.53-3.48,2.22-3.53,1.92,0,3.85,0,5.77,0a4.58,4.58,0,0,1,4.62,2.76c2,4.12,4.1,8.18,6.16,12.27.33.64.69,1.26,1.25,2.29l2.22-7.53c.3-1,.64-2.07.9-3.12a4.2,4.2,0,0,0-.45-3.8c-1-1.36-.48-2.55,1.22-2.66,2.41-.16,4.83-.12,7.24,0a1.71,1.71,0,0,1,1.33.9,1.86,1.86,0,0,1-.51,1.67c-3,1.71-3.12,4.85-3.92,7.62-1.77,6.09-3.42,12.22-5.2,18.3-1,3.47-3.25,4.84-6.54,4.22a5.22,5.22,0,0,1-3.73-3.1c-2.34-4.65-4.57-9.37-6.84-14.06C492.86,23.48,492.46,22.72,491.89,21.59Z"/><path class="cls-2" d="M463.84,31.5c-2.26,0-4.42,0-6.58,0a1.07,1.07,0,0,0-.64.31,6.92,6.92,0,0,0-1.15,7c.65,1.21.15,2.43-1.24,2.48-3.1.11-6.21.09-9.32,0a2,2,0,0,1-1.44-1.2c-.12-.5.42-1.19.73-1.76a1.2,1.2,0,0,1,.6-.41c3.23-1.2,4.77-3.85,6.13-6.8,2.49-5.4,5.17-10.71,7.76-16.07,3.86-8,11.85-8.24,17.66-6,4.07,1.58,5.33,5.47,3.88,10.31-1.61,5.36-3.16,10.75-4.59,16.16a5.17,5.17,0,0,0,.41,3.05c.61,1.51.21,2.69-1.42,2.73-4.49.11-9,.08-13.47,0-.5,0-1.43-.67-1.4-1a3.08,3.08,0,0,1,.94-1.95A9.3,9.3,0,0,0,463.84,31.5ZM459,26.32c2.33,0,4.33,0,6.33,0,.19,0,.49-.33.56-.57.87-2.81,1.83-5.61,2.51-8.48.45-1.91-.91-2.93-2.75-2.18a3.58,3.58,0,0,0-1.77,1.45C462.23,19.63,460.72,22.82,459,26.32Z"/><path class="cls-2" d="M570.39,31.53h-7a.88.88,0,0,0-.52.27c-1.51,1.34-2.14,5.28-1.13,7,.68,1.19.18,2.41-1.23,2.46-3.1.13-6.22.1-9.32,0a2,2,0,0,1-1.46-1.18c-.13-.5.4-1.19.69-1.77a1,1,0,0,1,.49-.32c3.38-1.28,5-4.06,6.4-7.14,2.46-5.36,5.15-10.62,7.71-15.94,3.9-8.1,12.33-8,17.71-5.8,3.83,1.59,5.18,5.24,3.91,9.68-1.58,5.48-3.22,10.94-4.69,16.45a5.3,5.3,0,0,0,.31,3.21c.7,1.64.28,2.75-1.53,2.87s-3.55,0-5.32.06c-2.42,0-4.85.08-7.26-.06a6.69,6.69,0,0,1-2.21-1c.37-.68.58-1.63,1.16-2C569.55,36.75,569.47,34.11,570.39,31.53Zm-5-5.18c2.23,0,4,0,5.85-.05a1.55,1.55,0,0,0,1-.95c.82-2.51,1.56-5.06,2.31-7.6.29-1,.46-2-.6-2.63a2.47,2.47,0,0,0-3,.43,5.19,5.19,0,0,0-1.24,1.62c-.85,1.61-1.62,3.25-2.4,4.89C566.69,23.37,566.1,24.7,565.35,26.35Z"/><path class="cls-2" d="M453.08,15.08c-.24.6-.36,1-.53,1.3-.57,1.17-1.15,2.34-1.77,3.59A4.07,4.07,0,0,1,453.08,15.08Z"/><path class="cls-2" d="M520.71,24.12,519,25.93C519,23.84,519.13,23.67,520.71,24.12Z"/><path class="cls-1" d="M23.23,36.6c.67-2.34,1.27-4.6,1.95-6.83s1.89-3,4.29-2.17a2.9,2.9,0,0,1,1.59,2,7.48,7.48,0,0,1-1.58,5.51C28.35,36.61,26.32,37.11,23.23,36.6Z"/><path class="cls-1" d="M27.37,22c.68-2.4,1.29-4.7,2-7,.6-2,1.09-2.26,3.3-1.82,1.69.34,2.3,1.08,2,3C34.12,20.5,32.23,22.68,27.37,22Z"/><path class="cls-1" d="M66.38,22.36c-1.68.06-1.74,0-1.32-1.71s.86-3.43,1.24-5.15c.21-1,.53-1.65,1.72-1.56s2.78-.07,3.28,1.59A5.43,5.43,0,0,1,66.38,22.36Z"/><path class="cls-1" d="M234.31,26.34c1.81-3.61,3.4-6.9,5.14-10.11A3.31,3.31,0,0,1,241.33,15c1.6-.51,2.81.42,2.44,2-.7,3-1.67,5.93-2.57,8.89a.87.87,0,0,1-.64.45C238.61,26.35,236.67,26.34,234.31,26.34Z"/><path class="cls-1" d="M130.31,26.35c1.69-3.48,3.2-6.62,4.77-9.73a2.41,2.41,0,0,1,1.19-1.26,4.47,4.47,0,0,1,2.74-.12c.46.21.73,1.57.56,2.28-.63,2.68-1.44,5.31-2.27,7.93a1.44,1.44,0,0,1-1,.86C134.45,26.39,132.59,26.35,130.31,26.35Z"/><path class="cls-1" d="M350.47,36.72c.88-3.08,1.68-5.89,2.49-8.7,0-.13.15-.34.24-.34a13.44,13.44,0,0,1,3.86.07,2.53,2.53,0,0,1,1.31,2.11A13.84,13.84,0,0,1,356.78,35C355.44,37.15,353,36.86,350.47,36.72Z"/><path class="cls-1" d="M354.64,22c.81-2.84,1.59-5.56,2.38-8.29,0-.13.14-.36.22-.36a12,12,0,0,1,3.3.14A2.4,2.4,0,0,1,362,15.24C361.88,19.34,360.17,22.91,354.64,22Z"/><path class="cls-1" d="M387.07,34c1.07-4,2.06-8.09,3.25-12.09a34.58,34.58,0,0,1,2.4-5.85A7.32,7.32,0,0,1,395,13.4c1.92-1.31,3.85-.3,3.71,2a29.53,29.53,0,0,1-1,6.68c-1.19,4-2.67,8-4.08,12a6.54,6.54,0,0,1-1.1,1.74,3.5,3.5,0,0,1-3.87,1.46C387.08,36.62,387.5,35.24,387.07,34Z"/><path class="cls-1" d="M459,26.32c1.73-3.5,3.24-6.69,4.88-9.81a3.58,3.58,0,0,1,1.77-1.45c1.84-.75,3.2.27,2.75,2.18-.68,2.87-1.64,5.67-2.51,8.48-.07.24-.37.57-.56.57C463.32,26.33,461.32,26.32,459,26.32Z"/><path class="cls-1" d="M565.35,26.35c.75-1.65,1.34-3,2-4.29.78-1.64,1.55-3.28,2.4-4.89A5.19,5.19,0,0,1,571,15.55a2.47,2.47,0,0,1,3-.43c1.06.64.89,1.65.6,2.63-.75,2.54-1.49,5.09-2.31,7.6a1.55,1.55,0,0,1-1,.95C569.39,26.4,567.58,26.35,565.35,26.35Z"/></svg>