<svg id="Layer_1" data-name="Layer 1" xmlns="http://www.w3.org/2000/svg" viewBox="0 0 93.26 86.09"><defs><style>.cls-1{fill:#edddd6;}.cls-2{fill:#507849;}.cls-3{fill:#e56445;}.cls-4{fill:#fca397;}.cls-5{fill:#fff;}</style></defs><circle class="cls-1" cx="-44.65" cy="-31.43" r="46.62" transform="translate(9.15 -40.78) rotate(-45)"/><path class="cls-2" d="M12.55,71.46c.1.12.2.23.31.34l.43.44a46.49,46.49,0,0,0,33.32,14,49.11,49.11,0,0,0,6-.37h0a46.57,46.57,0,0,0,13.61-4C65.85,65,66,50.25,66,50c-.16-.35-8-2.36-18.39-2.7C31.25,46.75,17.41,56,12.55,71.46Z"/><path class="cls-2" d="M52.59,85.88h0a46.57,46.57,0,0,0,13.61-4l1-.5a46.61,46.61,0,0,0,17.24-14.7C75.56,54.41,68.22,50.82,66,50a6.48,6.48,0,0,0-.68-.24Z"/><path class="cls-3" d="M46.42,19.86s-10.76.52-11.37-9.8c-.65-11,9.52-12,13.84-7.6s3.52,9,3.52,9,3-2.71,6.29.62c2.41,2.44,1.17,6.44,1.17,6.44s5.55-.21,5,4.63a10.83,10.83,0,0,1-4,7.31Z"/><path class="cls-4" d="M56.27,38.87,55.15,50.31s-2.39,3.08-9.13,3c-5-.08-6.67-1.38-6.67-1.38l1.27-5.72,1.23-5.58L54.2,39.12Z"/><path d="M54.2,39.12a3.68,3.68,0,0,1-.45,1.07c-3.11,5.46-10.23,6-13.13,6l1.23-5.58Z"/><path class="cls-4" d="M41.85,14.28S34.45,28,36,36.23s9,7.54,13.49,6.35a14.49,14.49,0,0,0,6.75-3.71,6.18,6.18,0,0,0,7-1.85c3-3.57,1.72-8.06-.53-9.25s-5.16.26-5.16.26l2.51-4S52.7,2.24,41.85,14.28Z"/><path d="M57.45,34.29a.5.5,0,0,1-.25-.93l4.54-2.63a.5.5,0,1,1,.5.86L57.7,34.22A.45.45,0,0,1,57.45,34.29Z"/><path d="M61.16,34.69a.53.53,0,0,1-.24-.06l-2.3-1.21a.5.5,0,1,1,.46-.88l2.31,1.2a.51.51,0,0,1,.21.68A.5.5,0,0,1,61.16,34.69Z"/><path d="M39.85,19.67a.52.52,0,0,1-.42-.22.51.51,0,0,1,.14-.7,3.24,3.24,0,0,1,3.64,0,.5.5,0,0,1,.11.7.49.49,0,0,1-.69.11,2.26,2.26,0,0,0-2.5,0A.51.51,0,0,1,39.85,19.67Z"/><path d="M41.38,32.69a.51.51,0,0,1-.49-.4,9.51,9.51,0,0,1,1.92-7.94.49.49,0,0,1,.7,0,.51.51,0,0,1,0,.71,8.66,8.66,0,0,0-1.68,7.07.49.49,0,0,1-.39.59Z"/><path d="M39.84,26.42a.51.51,0,0,1-.5-.52l.12-2.73a.46.46,0,0,1,.52-.48.51.51,0,0,1,.48.52l-.12,2.73A.5.5,0,0,1,39.84,26.42Z"/><path d="M47.35,27.14a.51.51,0,0,1-.5-.52L47,23.89a.47.47,0,0,1,.52-.48.49.49,0,0,1,.48.52l-.11,2.73A.5.5,0,0,1,47.35,27.14Z"/><path class="cls-3" d="M40.33,17.39a4.85,4.85,0,0,1,4.32-1.92A6.21,6.21,0,0,1,49,17.9s-1.72,4.69,1.91,7.62S57.59,28,57.59,28l2.91-.73L63,23.39l-7.28-9.57-10-6.59-5.84,4.35Z"/><path d="M43.76,35.62a4.08,4.08,0,0,1-.76-.06.5.5,0,0,1-.39-.59.49.49,0,0,1,.58-.39,3.38,3.38,0,0,0,3.45-1.52.51.51,0,0,1,.69-.18.51.51,0,0,1,.17.69A4.19,4.19,0,0,1,43.76,35.62Z"/><path class="cls-5" d="M36.83,30.54a5,5,0,1,1,4.87-5A4.95,4.95,0,0,1,36.83,30.54Zm0-9a4,4,0,1,0,3.87,4A3.95,3.95,0,0,0,36.83,21.5Z"/><path class="cls-5" d="M48.4,31.66a5,5,0,1,1,5-5A5,5,0,0,1,48.4,31.66Zm0-9a4,4,0,1,0,4,4A4,4,0,0,0,48.4,22.62Z"/><path class="cls-5" d="M44.37,26.61l-3.58-.29a.49.49,0,0,1-.45-.54.5.5,0,0,1,.54-.45l3.53.28a.51.51,0,0,1,.46.54A.49.49,0,0,1,44.37,26.61Z"/><path class="cls-5" d="M60.5,27.8a.48.48,0,0,1-.36-.16c-2.18-2.31-6.94.08-7,.11a.51.51,0,0,1-.67-.22.5.5,0,0,1,.22-.67c.22-.12,5.48-2.76,8.17.1a.5.5,0,0,1,0,.71A.48.48,0,0,1,60.5,27.8Z"/><path class="cls-5" d="M45.88,53.38a20.59,20.59,0,0,1-8.89-2,.49.49,0,0,1-.2-.68.49.49,0,0,1,.67-.2c.1,0,9.63,5.11,18.46-1.38a.5.5,0,0,1,.59.81A17.66,17.66,0,0,1,45.88,53.38Z"/><path d="M50.89,21.29a.51.51,0,0,1-.43-.23,2.59,2.59,0,0,0-3.2-1.23.5.5,0,0,1-.38-.93,3.59,3.59,0,0,1,4.43,1.63.48.48,0,0,1-.16.68A.42.42,0,0,1,50.89,21.29Z"/></svg>