<svg id="Layer_1" data-name="Layer 1" xmlns="http://www.w3.org/2000/svg" viewBox="0 0 87.42 90.11"><defs><style>.cls-1{fill:#7c6053;}.cls-2{fill:#ada9c4;}.cls-3{fill:#f27e64;}.cls-4{fill:#6c6b7c;}.cls-5{fill:#fcb35b;}.cls-6{fill:none;stroke:#681410;stroke-linecap:round;stroke-linejoin:round;stroke-width:1.17px;}</style></defs><path class="cls-1" d="M59.2,66.74,24,86.26a48.5,48.5,0,0,1-7.8-3.71A49.51,49.51,0,0,1,2.13,70.29c3.69-7.84,12.45-21.44,30.09-25.75a18.66,18.66,0,0,1,9.46,0C54.86,48.12,59.2,66.74,59.2,66.74Z"/><path class="cls-1" d="M85.3,62.88A49.81,49.81,0,0,1,24,86.26a48.5,48.5,0,0,1-7.8-3.71c1.3-14.76,2.64-27.15,3.65-29.48,1.78-4.13,13.72-7,21.84-8.55,4.36-.81,7.61-1.23,7.61-1.23s16,.65,29.05,11.52A40.24,40.24,0,0,1,85.3,62.88Z"/><path class="cls-2" d="M29.69,4.68S24,11.09,27.14,18.15,33.59,5.32,33.59,5.32Z"/><path class="cls-3" d="M48.72,33.45l.22,12.7s-2.23,3.69-9.65,4.42c-5.53.55-7.49-.67-7.49-.67l.66-6.45.65-6.28L46.48,34Z"/><path d="M46.48,34c0,.35,2,1.44,1.85,1.91-2.74,6.39-12.93,9.61-16.12,10l.9-8.68Z"/><path class="cls-3" d="M32.1,5.32a12,12,0,0,0-3.69,5.5c-1.66,4.9-5,16.35-2.81,23.36,2.85,9.12,11.07,7.41,16,5.48a16.29,16.29,0,0,0,7.08-5.08,6.92,6.92,0,0,0,7.62-3c3-4.45.88-9.39-1.8-10.45s-5.75,1-5.75,1L51,17.25S41.75-2.54,32.1,5.32Z"/><path d="M49.38,28.26A.5.5,0,0,1,49,28a.52.52,0,0,1,.11-.74l4.63-3.46a.54.54,0,0,1,.64.86L49.7,28.15A.52.52,0,0,1,49.38,28.26Z"/><path d="M54.6,28.1h-.13l-3.78-.91a.53.53,0,1,1,.25-1l3.78.91a.53.53,0,0,1,.4.64A.54.54,0,0,1,54.6,28.1Z"/><path d="M26.71,18a.29.29,0,0,1,0-.13c0-.29.23-.49.46-.44l2.38.49a.56.56,0,0,1,.38.61c0,.29-.24.49-.47.44l-2.38-.49A.51.51,0,0,1,26.71,18Z"/><path d="M34.83,19.13a.5.5,0,0,1,0-.13.52.52,0,0,1,.4-.63l2.94-.68a.53.53,0,0,1,.64.41.52.52,0,0,1-.4.63l-2.95.68A.54.54,0,0,1,34.83,19.13Z"/><path class="cls-4" d="M28,12.21a.54.54,0,0,1,1-.46l1.15,2.13a.53.53,0,0,1-.93.51l-1.16-2.13Z"/><path class="cls-4" d="M39.2,14.09a.43.43,0,0,1-.17.12l-3.24,1.45a.54.54,0,0,1-.44-1l3.25-1.44a.53.53,0,0,1,.7.27A.52.52,0,0,1,39.2,14.09Z"/><path class="cls-2" d="M48.71,22.08s-1.32,5.29-2.33,4.64-2-8.26-1.21-11.67,1.31-5.13,1.31-5.13S32.61,8.69,29,5.39,33,0,40.92,1.46s11,4.47,11,4.47,5-.74,6.8,2.28S56.37,22.7,56.37,22.7,55.13,19.82,48.71,22.08Z"/><path class="cls-2" d="M22.25,27.54s3.87-4.29,5.85-3.65,2.69,3.53,2.69,3.53,2.34-3.24,4.92-2.33,8.12,1.25,8.18,2.15-1.54,1.21-1.54,1.21S29.31,30,22.25,27.54Z"/><path class="cls-2" d="M48.71,22.08s-.23,8.57-.07,12.5-10.76,10.06-18.3,6.68S24.86,28,24.86,28l6.73.62a13.25,13.25,0,0,1,3.31-1.24A8.68,8.68,0,0,1,39,28Z"/><path d="M36.62,27.89a.55.55,0,0,1,.36.62.53.53,0,0,1-.63.41s-2.28-.45-3.58.89a.53.53,0,1,1-.76-.75,5.31,5.31,0,0,1,4.55-1.18Z"/><path d="M30.55,26.47a.55.55,0,0,1-.48-.29c-1.88-3.75.82-7.69.94-7.86a.53.53,0,0,1,.74-.13.54.54,0,0,1,.14.74S29.44,22.52,31,25.7a.54.54,0,0,1-.48.77Z"/><path class="cls-5" d="M35.82,51.15A29.4,29.4,0,0,1,29,50.36a.53.53,0,0,1-.38-.65.53.53,0,0,1,.65-.38c.13,0,13.21,3.31,19.74-4.42a.53.53,0,0,1,.75-.07.54.54,0,0,1,.06.75C46,50.1,40.29,51.15,35.82,51.15Z"/><polyline class="cls-6" points="54.82 8.46 54.82 9.85 53.29 9.85"/><polyline class="cls-6" points="56.91 7.97 56.91 9.92 58.34 9.92"/><polyline class="cls-6" points="53.17 11.91 54.94 11.91 54.94 13.58"/><polyline class="cls-6" points="56.91 13.67 56.91 11.83 58.34 11.83"/></svg>