<svg id="Layer_1" data-name="Layer 1" xmlns="http://www.w3.org/2000/svg" viewBox="0 0 93.26 86.09"><defs><style>.cls-1{fill:#7c6053;}.cls-2{fill:#ada9c4;}.cls-3{fill:#f27e64;}.cls-4{fill:#6c6b7c;}.cls-5{fill:#fcb35b;}</style></defs><path class="cls-1" d="M59.92,66.74,24.52,86.36a48.56,48.56,0,0,1-7.84-3.73A49.84,49.84,0,0,1,2.55,70.31c3.71-7.88,12.52-21.56,30.24-25.88a18.79,18.79,0,0,1,9.52,0C55.55,48,59.92,66.74,59.92,66.74Z"/><path class="cls-1" d="M86.15,62.86a50.06,50.06,0,0,1-61.63,23.5,48.56,48.56,0,0,1-7.84-3.73C18,67.79,19.34,55.34,20.35,53c1.79-4.15,13.8-7.07,22-8.6,4.38-.81,7.65-1.23,7.65-1.23s16.12.64,29.2,11.58A40,40,0,0,1,86.15,62.86Z"/><path class="cls-2" d="M30.25,4.36s-5.69,6.43-2.56,13.53S34.17,5,34.17,5Z"/><path class="cls-3" d="M49.39,33.28,49.6,46s-2.24,3.71-9.7,4.45c-5.55.54-7.53-.68-7.53-.68L33,43.33,33.7,37l13.43-3.19Z"/><path d="M47.13,33.82c0,.35,2.06,1.44,1.86,1.92-2.75,6.42-13,9.65-16.2,10L33.7,37Z"/><path class="cls-3" d="M32.67,5A12.06,12.06,0,0,0,29,10.53C27.3,15.45,23.93,27,26.14,34c2.87,9.17,11.13,7.45,16,5.51a16.35,16.35,0,0,0,7.11-5.11,7,7,0,0,0,7.66-3c3-4.48.88-9.45-1.81-10.52s-5.78,1-5.78,1L51.68,17S42.38-2.9,32.67,5Z"/><path d="M50.05,28.06a.55.55,0,0,1-.43-.22.53.53,0,0,1,.11-.75l4.66-3.47a.54.54,0,0,1,.75.1.54.54,0,0,1-.11.76L50.37,28A.54.54,0,0,1,50.05,28.06Z"/><path d="M55.29,27.9l-.12,0L51.36,27a.53.53,0,0,1-.39-.65.53.53,0,0,1,.64-.39l3.81.91a.54.54,0,0,1,.39.64A.53.53,0,0,1,55.29,27.9Z"/><path d="M28.92,19.88l-.13,0a.53.53,0,0,1-.39-.65l.75-2.95a.53.53,0,0,1,.65-.38.53.53,0,0,1,.39.65l-.75,2.94A.55.55,0,0,1,28.92,19.88Z"/><path d="M37,20.3h-.13a.54.54,0,0,1-.38-.65l.74-2.95a.54.54,0,0,1,.66-.38.53.53,0,0,1,.38.65l-.75,2.94A.53.53,0,0,1,37,20.3Z"/><path class="cls-4" d="M28.45,13.45a.53.53,0,0,1-.53-.48.54.54,0,0,1,.48-.59l2.42-.26a.54.54,0,0,1,.12,1.07l-2.43.26Z"/><path class="cls-4" d="M39.44,15.4a.52.52,0,0,1-.21,0L35.94,14a.55.55,0,0,1-.29-.7.54.54,0,0,1,.71-.29l3.29,1.38a.54.54,0,0,1-.21,1Z"/><path class="cls-2" d="M49.37,21.85S48.05,27.16,47,26.51s-2-8.31-1.21-11.74,1.31-5.15,1.31-5.15-14-1.24-17.62-4.55,4.09-5.46,12-3.95S52.61,5.61,52.61,5.61s5-.75,6.84,2.29-2.37,14.57-2.37,14.57S55.82,19.58,49.37,21.85Z"/><path class="cls-2" d="M22.77,27.33s3.9-4.31,5.88-3.66,2.71,3.54,2.71,3.54,2.35-3.26,5-2.34,8.16,1.26,8.22,2.16S43,28.25,43,28.25,29.87,29.77,22.77,27.33Z"/><path class="cls-2" d="M49.37,21.85s-.23,8.61-.07,12.56S38.49,44.52,30.91,41.12,25.4,27.78,25.4,27.78l6.76.62a13,13,0,0,1,3.33-1.24,8.62,8.62,0,0,1,4.13.6Z"/><path d="M33.22,30.37a.53.53,0,0,1-.53-.48.54.54,0,0,1,.48-.59,4.36,4.36,0,0,0,3.15-1.94.53.53,0,0,1,.72-.24.54.54,0,0,1,.24.72c-1.1,2.2-3.88,2.52-4,2.53Z"/><path d="M31.12,26.26a.53.53,0,0,1-.48-.3c-1.89-3.76.82-7.73.94-7.89a.53.53,0,0,1,.75-.14.54.54,0,0,1,.13.75s-2.46,3.61-.86,6.8a.54.54,0,0,1-.24.72A.53.53,0,0,1,31.12,26.26Z"/><path class="cls-5" d="M36.41,51.07a30.34,30.34,0,0,1-6.88-.79.54.54,0,0,1-.38-.66.53.53,0,0,1,.65-.38c.13,0,13.28,3.33,19.84-4.45a.54.54,0,0,1,.82.69C46.64,50,40.91,51.07,36.41,51.07Z"/></svg>