<svg id="Layer_1" data-name="Layer 1" xmlns="http://www.w3.org/2000/svg" viewBox="0 0 87.42 90.11"><defs><style>.cls-1{fill:#507849;}.cls-2{fill:#e56445;}.cls-3{fill:#fca397;}.cls-4{fill:#fff;}.cls-5,.cls-6{fill:none;stroke-linecap:round;stroke-linejoin:round;stroke-width:1.03px;}.cls-5{stroke:#681410;}.cls-6{stroke:#211815;}</style></defs><path class="cls-1" d="M7.51,74.22a3.59,3.59,0,0,0,.32.35c.14.16.3.31.44.46A47.89,47.89,0,0,0,42.58,89.45a49.78,49.78,0,0,0,6.15-.38h.05A48,48,0,0,0,62.8,85c-.41-17.39-.24-32.6-.24-32.89-.16-.36-8.22-2.43-18.93-2.78C26.76,48.78,12.51,58.3,7.51,74.22Z"/><path class="cls-1" d="M48.73,89.07h.05A48,48,0,0,0,62.8,85c.36-.16.72-.34,1.08-.51A48,48,0,0,0,81.63,69.34C72.38,56.67,64.83,53,62.56,52.1a5.7,5.7,0,0,0-.7-.25Z"/><path class="cls-2" d="M42.39,21.11S31.31,21.64,30.68,11C30-.31,40.48-1.39,44.93,3.18s3.62,9.23,3.62,9.23,3.1-2.79,6.48.64c2.48,2.52,1.2,6.63,1.2,6.63s5.72-.22,5.18,4.77A11.16,11.16,0,0,1,57.31,32Z"/><path class="cls-3" d="M52.52,40.67,51.37,52.45s-2.45,3.18-9.4,3.06c-5.17-.08-6.86-1.42-6.86-1.42l1.3-5.89,1.27-5.75,12.71-1.52Z"/><path d="M50.39,40.93a3.81,3.81,0,0,1-.45,1.1c-3.21,5.63-10.54,6.19-13.53,6.17l1.27-5.75Z"/><path class="cls-3" d="M37.68,15.35s-7.62,14.16-6,22.6S41,45.71,45.58,44.49a15,15,0,0,0,6.94-3.81,6.37,6.37,0,0,0,7.22-1.91c3.13-3.67,1.77-8.3-.55-9.53s-5.3.27-5.3.27l2.58-4.08S48.85,3,37.68,15.35Z"/><path d="M53.74,36a.5.5,0,0,1-.44-.26.51.51,0,0,1,.19-.7l4.67-2.71a.51.51,0,1,1,.51.89L54,35.89A.48.48,0,0,1,53.74,36Z"/><path d="M57.56,36.37a.5.5,0,0,1-.24-.06l-2.38-1.24a.52.52,0,0,1,.48-.92l2.37,1.25a.51.51,0,0,1-.23,1Z"/><path d="M37.2,34.31a.52.52,0,0,1-.51-.42,9.78,9.78,0,0,1,2-8.17.51.51,0,0,1,.76.69A9,9,0,0,0,37.7,33.7a.5.5,0,0,1-.4.6Z"/><path class="cls-2" d="M36.12,18.56a5,5,0,0,1,4.45-2A6.38,6.38,0,0,1,45,19.09s-1.77,4.82,2,7.84,6.9,2.58,6.9,2.58l3-.75,2.54-4-7.5-9.85L41.64,8.1l-6,4.48Z"/><path d="M42.49,34.55a4.69,4.69,0,0,1,.77.13.52.52,0,0,1,.36.63.53.53,0,0,1-.64.36,3.47,3.47,0,0,0-3.66,1.27.51.51,0,1,1-.84-.59A4.32,4.32,0,0,1,42.49,34.55Z"/><path class="cls-4" d="M32.51,32.1a5.17,5.17,0,1,1,5-5.17A5.1,5.1,0,0,1,32.51,32.1Zm0-9.31a4.14,4.14,0,1,0,4,4.14A4.07,4.07,0,0,0,32.51,22.79Z"/><path class="cls-4" d="M44.43,33.25a5.17,5.17,0,1,1,5.17-5.17A5.18,5.18,0,0,1,44.43,33.25Zm0-9.31a4.14,4.14,0,1,0,4.14,4.14A4.15,4.15,0,0,0,44.43,23.94Z"/><path class="cls-4" d="M40.28,28.05l-3.69-.3a.51.51,0,0,1-.47-.55.53.53,0,0,1,.56-.47l3.64.3a.51.51,0,0,1,0,1Z"/><path class="cls-4" d="M56.88,29.28a.54.54,0,0,1-.37-.16c-2.24-2.38-7.14.08-7.19.1a.51.51,0,1,1-.47-.91c.23-.12,5.64-2.84,8.41.1a.53.53,0,0,1,0,.73A.54.54,0,0,1,56.88,29.28Z"/><path class="cls-4" d="M41.83,55.62a21.07,21.07,0,0,1-9.16-2.11.51.51,0,0,1-.2-.7.52.52,0,0,1,.7-.2c.09,0,9.9,5.25,19-1.42a.52.52,0,0,1,.61.83A18.17,18.17,0,0,1,41.83,55.62Z"/><polyline class="cls-5" points="47.34 18.21 47.34 19.43 45.99 19.43"/><polyline class="cls-5" points="49.18 17.77 49.18 19.49 50.44 19.49"/><polyline class="cls-5" points="45.89 21.24 47.45 21.24 47.45 22.71"/><polyline class="cls-5" points="49.18 22.79 49.18 21.17 50.44 21.17"/><line class="cls-6" x1="35.62" y1="21.76" x2="37.22" y2="23.3"/><line class="cls-6" x1="43.54" y1="21.28" x2="42.12" y2="23"/><line class="cls-6" x1="34.05" y1="26.22" x2="35.62" y2="26.22"/><line class="cls-6" x1="42.12" y1="26.22" x2="43.68" y2="26.22"/></svg>