<svg id="Layer_1" data-name="Layer 1" xmlns="http://www.w3.org/2000/svg" viewBox="0 0 93.26 86.09"><defs><style>.cls-1{fill:#ada9c4;}.cls-2{fill:#fcb35b;}.cls-3{fill:#7772d3;}.cls-4{fill:#fca397;}.cls-5{fill:#6c6b7c;}.cls-6{fill:#fff;}.cls-7{fill:#46467f;}</style></defs><path class="cls-1" d="M39,21.29s-13.26-4.61-14.93,9.06,19.21,19.33,22.28,7.41S39,21.29,39,21.29Z"/><path class="cls-2" d="M83.06,66A47.18,47.18,0,0,1,71.8,76.78a46.31,46.31,0,0,1-19.49,7.53l-5.8-12.43L41.45,61,39,54.69l-2.7-7,3.81-.44L42.36,47l5.81-.68,6.68-.78A37.48,37.48,0,0,1,81.4,63C82,63.86,82.5,64.89,83.06,66Z"/><path class="cls-3" d="M71.8,76.78a46.31,46.31,0,0,1-19.49,7.53,44.72,44.72,0,0,1-5.71.45c-.31,0-.62,0-.93,0a46.85,46.85,0,0,1-10.93-1.29L39,54.69l1.11-7.46.41-2.79.55.13,7.09,1.72L55.12,48S69.37,56.16,71.8,76.78Z"/><path class="cls-1" d="M60.36,29.08a13.18,13.18,0,0,0,3-10.4c-.58-4.35-2.46-5.82-2.46-5.82S64,7.06,55.3,7.12a24.52,24.52,0,0,0-14,4.17s-3.92-2.09-5.87,2.5S35,25.3,35,25.3Z"/><path class="cls-4" d="M41,35.62l-.09,10.66s1.89,3.08,8.12,3.64c4.64.42,6.14-2,6.14-2l-1.05-9.34L42.85,36.06Z"/><path d="M41,35a3.59,3.59,0,0,0,.3,1c2.34,5.35,10.71,7.64,13.4,7.9l-.6-5.27Z"/><path class="cls-4" d="M56.68,14.36s5.47,13.41,3.2,20.82-9,6.06-13.07,4.52A13.4,13.4,0,0,1,41,35.62a5.72,5.72,0,0,1-6.28-2.4c-2.46-3.59-.79-7.61,1.4-8.48s4.73.75,4.73.75l-1.93-3.91S47.86,2.19,56.68,14.36Z"/><path class="cls-1" d="M40.81,25.49s5.66,1.35,9.84-4.87,3.91-8.83,3.91-8.83l3.73,6.69s1-4.52-.69-7.48S54,8.58,54,8.58L41.29,11.29l-3.66,10Z"/><path d="M55.67,31.28l-.17,0a.51.51,0,0,1-.31-.64c.82-2.37-.9-5.05-.92-5.07a.51.51,0,0,1,.14-.7.51.51,0,0,1,.7.15c.08.12,2,3.1,1,5.95A.51.51,0,0,1,55.67,31.28Z"/><path d="M40.06,31.77a.5.5,0,0,1-.37-.16L36.2,27.67a.49.49,0,0,1,0-.7.48.48,0,0,1,.7,0l3.49,3.93a.51.51,0,0,1,0,.71A.5.5,0,0,1,40.06,31.77Z"/><path d="M36.28,30.63a.5.5,0,0,1-.06-1l2.5-.3a.49.49,0,0,1,.56.43.5.5,0,0,1-.44.56l-2.5.3Z"/><path class="cls-5" d="M58.59,20.5h-.1L56.15,20a.5.5,0,1,1,.2-1l2.34.49a.51.51,0,0,1,.39.6A.5.5,0,0,1,58.59,20.5Z"/><path class="cls-5" d="M48.74,21.72a.49.49,0,0,1-.45-.29.5.5,0,0,1,.24-.67l3.14-1.46a.51.51,0,0,1,.67.25.5.5,0,0,1-.24.66L49,21.67A.5.5,0,0,1,48.74,21.72Z"/><path d="M58.41,26a.5.5,0,0,1-.49-.37l-.65-2.42a.46.46,0,0,1,.11-.46l.76-.87a.51.51,0,0,1,.71,0,.49.49,0,0,1,0,.7l-.59.68.59,2.16a.5.5,0,0,1-.35.61Z"/><path d="M51.68,26.37A.5.5,0,0,1,51.2,26l-.66-2.42a.5.5,0,0,1,.12-.47L51.71,22a.5.5,0,0,1,.74.67l-.87.95.58,2.16a.5.5,0,0,1-.35.61Z"/><path class="cls-6" d="M50.2,50.52a18.85,18.85,0,0,1-8-2.31.5.5,0,1,1,.5-.87c.08,0,8.37,4.64,12.07.31a.5.5,0,1,1,.76.64A6.67,6.67,0,0,1,50.2,50.52Z"/><path class="cls-7" d="M60.39,30.9h-.17a4.31,4.31,0,0,1-3.81-4.73,4.32,4.32,0,0,1,4.24-4.35,3.77,3.77,0,0,1,2.8,1.49,4.79,4.79,0,0,1,1,3.24,4.85,4.85,0,0,1-1.3,3.14A3.82,3.82,0,0,1,60.39,30.9Zm.09-8.1a3.35,3.35,0,0,0-3.07,3.4,3.32,3.32,0,0,0,2.85,3.69A2.78,2.78,0,0,0,62.43,29a4,4,0,0,0,.24-5.06A2.82,2.82,0,0,0,60.6,22.8Z"/><path class="cls-7" d="M50.36,31.09h-.22a4.56,4.56,0,1,1,3.27-1.18A4.49,4.49,0,0,1,50.36,31.09Zm0-8.1a3.86,3.86,0,1,0,.17,0Z"/><path class="cls-7" d="M56.65,26.38a.57.57,0,0,1-.31-.1,2.61,2.61,0,0,0-1.87,0,.52.52,0,0,1-.63-.34.51.51,0,0,1,.34-.62,3.56,3.56,0,0,1,2.77.19.49.49,0,0,1,.09.7A.47.47,0,0,1,56.65,26.38Z"/><path class="cls-7" d="M46.31,26.85a.49.49,0,0,1-.41-.21c-1-1.44-5.64-1.67-7.34-1.64a.52.52,0,0,1-.51-.5.5.5,0,0,1,.49-.5c.68,0,6.64-.06,8.17,2.06a.48.48,0,0,1-.11.69A.46.46,0,0,1,46.31,26.85Z"/><path class="cls-2" d="M46.51,71.88c.2,5,.17,9.6.09,12.88-.31,0-.62,0-.93,0a46.48,46.48,0,0,1-35.19-16c-1-1.1-1.86-2.24-2.71-3.42C24.58,44.82,40.88,44.26,40.88,44.26a3.28,3.28,0,0,1,.2.31A16.92,16.92,0,0,1,42.36,47C45.12,53.18,46.17,63.13,46.51,71.88Z"/><path d="M54.21,34.78a4.34,4.34,0,0,1-2.67-1.18.5.5,0,0,1,0-.71.51.51,0,0,1,.71,0s1.42,1.33,2.68.74a.5.5,0,0,1,.43.91A2.75,2.75,0,0,1,54.21,34.78Z"/></svg>