<svg id="Layer_1" data-name="Layer 1" xmlns="http://www.w3.org/2000/svg" viewBox="0 0 87.42 90.11"><defs><style>.cls-1{fill:#507849;}.cls-2{fill:#e56445;}.cls-3{fill:#fca397;}.cls-4{fill:#fff;}</style></defs><path class="cls-1" d="M7.62,74.22a2.66,2.66,0,0,0,.32.35c.14.16.29.31.44.46a47.88,47.88,0,0,0,34.3,14.42,50.06,50.06,0,0,0,6.16-.38h0A47.9,47.9,0,0,0,62.9,85c-.41-17.39-.23-32.6-.23-32.89-.17-.36-8.22-2.43-18.94-2.78C26.87,48.78,12.62,58.3,7.62,74.22Z"/><path class="cls-1" d="M48.84,89.07h0A47.9,47.9,0,0,0,62.9,85c.36-.16.72-.34,1.08-.51A47.88,47.88,0,0,0,81.73,69.34C72.49,56.67,64.93,53,62.67,52.1a6.53,6.53,0,0,0-.7-.25Z"/><path class="cls-2" d="M42.5,21.11S31.41,21.64,30.79,11C30.12-.31,40.59-1.39,45,3.18s3.63,9.23,3.63,9.23,3.09-2.79,6.47.64c2.49,2.52,1.21,6.63,1.21,6.63s5.71-.22,5.18,4.77A11.16,11.16,0,0,1,57.42,32Z"/><path class="cls-3" d="M52.63,40.67,51.48,52.45s-2.46,3.18-9.4,3.06c-5.17-.08-6.86-1.42-6.86-1.42l1.3-5.89,1.27-5.75L50.5,40.93Z"/><path d="M50.5,40.93A3.87,3.87,0,0,1,50,42c-3.21,5.63-10.53,6.19-13.52,6.17l1.27-5.75Z"/><path class="cls-3" d="M37.79,15.35s-7.62,14.16-6,22.6,9.26,7.76,13.89,6.54a15,15,0,0,0,6.94-3.81,6.37,6.37,0,0,0,7.22-1.91c3.13-3.67,1.77-8.3-.55-9.53s-5.31.27-5.31.27l2.59-4.08S49,3,37.79,15.35Z"/><path d="M53.85,36a.51.51,0,0,1-.26-1l4.67-2.71a.52.52,0,1,1,.52.89l-4.67,2.71A.48.48,0,0,1,53.85,36Z"/><path d="M57.66,36.37a.53.53,0,0,1-.24-.06l-2.37-1.24a.53.53,0,0,1-.22-.7.51.51,0,0,1,.69-.22L57.9,35.4a.51.51,0,0,1-.24,1Z"/><path d="M35.72,20.9a.5.5,0,0,1-.42-.22.52.52,0,0,1,.14-.72,3.34,3.34,0,0,1,3.75,0,.51.51,0,0,1,.11.72.52.52,0,0,1-.72.12,2.28,2.28,0,0,0-2.57,0A.51.51,0,0,1,35.72,20.9Z"/><path d="M37.3,34.31a.51.51,0,0,1-.5-.42,9.8,9.8,0,0,1,2-8.17.52.52,0,0,1,.73,0,.51.51,0,0,1,0,.72,9,9,0,0,0-1.72,7.29.51.51,0,0,1-.41.6Z"/><path d="M35.72,27.86a.53.53,0,0,1-.52-.54l.12-2.81a.48.48,0,0,1,.54-.49.51.51,0,0,1,.49.53l-.12,2.81A.52.52,0,0,1,35.72,27.86Z"/><path d="M43.45,28.59a.52.52,0,0,1-.52-.53l.12-2.81a.48.48,0,0,1,.54-.5.53.53,0,0,1,.49.54L44,28.1A.51.51,0,0,1,43.45,28.59Z"/><path class="cls-2" d="M36.22,18.56a5,5,0,0,1,4.45-2,6.41,6.41,0,0,1,4.46,2.51s-1.78,4.82,2,7.84S54,29.51,54,29.51l3-.75,2.54-4L52,14.89,41.74,8.1l-6,4.48Z"/><path d="M39.75,37.33a5.69,5.69,0,0,1-.78-.06.52.52,0,0,1,.2-1,3.47,3.47,0,0,0,3.55-1.56.51.51,0,1,1,.88.53A4.31,4.31,0,0,1,39.75,37.33Z"/><path class="cls-4" d="M32.62,32.1a5.17,5.17,0,1,1,5-5.17A5.1,5.1,0,0,1,32.62,32.1Zm0-9.31a4.14,4.14,0,1,0,4,4.14A4.07,4.07,0,0,0,32.62,22.79Z"/><path class="cls-4" d="M44.53,33.25a5.17,5.17,0,1,1,5.17-5.17A5.17,5.17,0,0,1,44.53,33.25Zm0-9.31a4.14,4.14,0,1,0,4.15,4.14A4.14,4.14,0,0,0,44.53,23.94Z"/><path class="cls-4" d="M40.38,28.05l-3.68-.3a.51.51,0,0,1-.47-.55.52.52,0,0,1,.55-.47l3.64.3a.51.51,0,0,1,0,1Z"/><path class="cls-4" d="M57,29.28a.57.57,0,0,1-.38-.16c-2.23-2.38-7.14.08-7.19.1a.51.51,0,1,1-.46-.91c.22-.12,5.64-2.84,8.4.1a.51.51,0,0,1,0,.73A.52.52,0,0,1,57,29.28Z"/><path class="cls-4" d="M41.94,55.62a21,21,0,0,1-9.16-2.11.51.51,0,1,1,.49-.9c.1,0,9.91,5.25,19-1.42a.52.52,0,0,1,.61.83A18.19,18.19,0,0,1,41.94,55.62Z"/><path d="M47.09,22.58a.5.5,0,0,1-.43-.25,2.68,2.68,0,0,0-3.3-1.26.52.52,0,0,1-.4-.95,3.69,3.69,0,0,1,4.57,1.67.51.51,0,0,1-.17.71A.53.53,0,0,1,47.09,22.58Z"/></svg>