<svg id="Layer_1" data-name="Layer 1" xmlns="http://www.w3.org/2000/svg" viewBox="0 0 87.42 90.11"><defs><style>.cls-1{fill:#ada9c4;}.cls-2{fill:#fcb35b;}.cls-3{fill:#7772d3;}.cls-4{fill:#fca397;}.cls-5{fill:#6c6b7c;}.cls-6{fill:#fff;}.cls-7{fill:#46467f;}.cls-8,.cls-9{fill:none;stroke-linecap:round;stroke-linejoin:round;stroke-width:1.14px;}.cls-8{stroke:#000;}.cls-9{stroke:#932f2d;}</style></defs><path class="cls-1" d="M37,17.42S21.89,12.18,20,27.73s21.83,22,25.32,8.42S37,17.42,37,17.42Z"/><path class="cls-2" d="M87,68.28a53.7,53.7,0,0,1-12.8,12.23,52.65,52.65,0,0,1-22.16,8.56L45.46,74.94,39.71,62.61,36.93,55.4l-3.07-8,4.33-.5,2.55-.3,6.61-.77L54.94,45A42.6,42.6,0,0,1,85.12,64.79C85.75,65.82,86.37,67,87,68.28Z"/><path class="cls-3" d="M74.21,80.51a52.65,52.65,0,0,1-22.16,8.56,49.41,49.41,0,0,1-6.49.51c-.35,0-.7,0-1.06,0a53.52,53.52,0,0,1-12.42-1.47L36.93,55.4l1.26-8.48.47-3.17.63.14,8.06,2,7.9,1.91S71.45,57.07,74.21,80.51Z"/><path class="cls-1" d="M61.2,26.28a15,15,0,0,0,3.42-11.82c-.66-5-2.79-6.61-2.79-6.61s3.56-6.6-6.38-6.53S39.52,6.06,39.52,6.06,35.06,3.68,32.85,8.9,32.4,22,32.4,22Z"/><path class="cls-4" d="M39.15,33.72,39,45.83s2.15,3.51,9.24,4.15c5.28.47,7-2.22,7-2.22L54.07,37.14,41.29,34.21Z"/><path d="M39.17,33a4.1,4.1,0,0,0,.34,1.17c2.66,6.08,12.18,8.68,15.23,9l-.67-6Z"/><path class="cls-4" d="M57,9.54s6.22,15.25,3.64,23.67-10.28,6.9-14.86,5.15a15.23,15.23,0,0,1-6.65-4.64A6.52,6.52,0,0,1,32,31c-2.79-4.08-.9-8.65,1.6-9.65S39,22.2,39,22.2l-2.19-4.44S47-4.29,57,9.54Z"/><path class="cls-1" d="M39,22.2s6.45,1.53,11.2-5.54,4.44-10,4.44-10l4.23,7.6S60,9.09,58.07,5.73,53.94,3,53.94,3L39.52,6.06,35.36,17.4Z"/><path d="M55.87,28.79a.41.41,0,0,1-.19,0,.56.56,0,0,1-.35-.72c.93-2.7-1-5.74-1-5.77a.57.57,0,0,1,.95-.62c.09.14,2.29,3.53,1.17,6.76A.56.56,0,0,1,55.87,28.79Z"/><path d="M38.13,29.34a.56.56,0,0,1-.43-.19l-4-4.47a.57.57,0,1,1,.85-.75l4,4.47a.56.56,0,0,1,0,.8A.52.52,0,0,1,38.13,29.34Z"/><path d="M33.82,28.05a.58.58,0,0,1-.56-.51.57.57,0,0,1,.5-.63l2.85-.34a.57.57,0,1,1,.13,1.13L33.89,28Z"/><path class="cls-5" d="M59.39,15.29l-.09.08-2.23,1.56a.57.57,0,0,1-.65-.93l2.23-1.56a.57.57,0,0,1,.79.14A.56.56,0,0,1,59.39,15.29Z"/><path class="cls-5" d="M46.18,14.75A.57.57,0,0,1,47,14l3.13,2.38a.57.57,0,0,1-.69.91l-3.13-2.39A.49.49,0,0,1,46.18,14.75Z"/><path class="cls-6" d="M49.65,50.66c-4.37,0-8.83-2.47-9.11-2.63a.57.57,0,0,1-.22-.77A.57.57,0,0,1,41.1,47c.09.05,9.52,5.27,13.72.35a.57.57,0,0,1,.8-.07.56.56,0,0,1,.06.8A7.55,7.55,0,0,1,49.65,50.66Z"/><path class="cls-7" d="M49.83,28.57h-.25A5.17,5.17,0,1,1,55,23.64a5.17,5.17,0,0,1-5.16,4.93Zm0-9.21a4.31,4.31,0,1,0,.2,0Z"/><path class="cls-7" d="M57,23.21a.54.54,0,0,1-.34-.12,3.08,3.08,0,0,0-2.14,0,.59.59,0,0,1-.71-.39.57.57,0,0,1,.39-.7c.21-.06,2.08-.59,3.14.22a.57.57,0,0,1-.34,1Z"/><path class="cls-7" d="M45.23,23.74a.56.56,0,0,1-.46-.23c-1.19-1.64-6.42-1.91-8.35-1.87a.58.58,0,0,1-.58-.56.57.57,0,0,1,.56-.58c.76,0,7.55-.07,9.29,2.34a.56.56,0,0,1-.46.9Z"/><path class="cls-2" d="M45.46,74.94c.23,5.68.19,10.91.1,14.64-.35,0-.7,0-1.06,0a53.52,53.52,0,0,1-12.42-1.47A53,53,0,0,1,4.5,71.36c-1.08-1.25-2.12-2.55-3.08-3.89C20.53,44.18,39.06,43.54,39.06,43.54s.16.23.23.35a19.45,19.45,0,0,1,1.45,2.73C43.88,53.68,45.07,65,45.46,74.94Z"/><line class="cls-8" x1="48.25" y1="21.18" x2="51" y2="21.74"/><line class="cls-8" x1="57.33" y1="21.73" x2="60.09" y2="21.2"/><path class="cls-7" d="M61.24,28.35H61c-2.52-.12-4.46-2.53-4.33-5.38S59,17.89,61.53,18a4.3,4.3,0,0,1,3.19,1.7A5.66,5.66,0,0,1,64.37,27,4.32,4.32,0,0,1,61.24,28.35Zm.1-9.21A3.8,3.8,0,0,0,57.85,23c-.11,2.22,1.35,4.11,3.24,4.2a3.24,3.24,0,0,0,2.46-1,4.55,4.55,0,0,0,.28-5.76,3.18,3.18,0,0,0-2.35-1.26Z"/><path class="cls-8" d="M51,31.77s5.31-1.05,7.71.32"/><polyline class="cls-9" points="41.47 13.94 41.47 15.29 39.98 15.29"/><polyline class="cls-9" points="43.5 13.46 43.5 15.36 44.88 15.36"/><polyline class="cls-9" points="39.86 17.3 41.58 17.3 41.58 18.92"/><polyline class="cls-9" points="43.5 19 43.5 17.21 44.88 17.21"/></svg>