<svg xmlns="http://www.w3.org/2000/svg" xmlns:xlink="http://www.w3.org/1999/xlink" viewBox="0 0 837.11 585.61"><defs><style>.cls-1{isolation:isolate;}.cls-2{fill:#ded2ad;}.cls-3{fill:#f3e8c7;}.cls-4{fill:#fcf4de;}.cls-5{fill:#292220;}.cls-6{fill:#100d0c;}.cls-7{fill:#332f33;}.cls-8{fill:#fff;}.cls-9{fill:#e2d7bf;}.cls-10{fill:#fdf6e7;}.cls-11{fill:#4e4b4e;}.cls-12{fill:#7c241f;}.cls-13{fill:#a53232;}.cls-14{fill:#801615;}.cls-15{opacity:0.2;mix-blend-mode:multiply;}.cls-16{fill:url(#鍊踑臇蜸馯鳺艜_60);}.cls-17{fill:url(#鍊踑臇蜸馯鳺艜_60-2);}.cls-18{fill:#9d9fa6;}.cls-19{fill:#8a8e97;}.cls-20{fill:#6c6659;}.cls-21{fill:#e9d7ba;}.cls-22{fill:#4f484f;}.cls-23{fill:#794b3a;}.cls-24{opacity:0.8;mix-blend-mode:color-burn;}.cls-25{fill:url(#鍊踑臇蜸馯鳺艜_60-4);}.cls-26{fill:url(#鍊踑臇蜸馯鳺艜_60-5);}.cls-27{fill:url(#鍊踑臇蜸馯鳺艜_60-6);}.cls-28{fill:url(#鍊踑臇蜸馯鳺艜_60-8);}.cls-29{fill:#d64141;}</style><linearGradient id="鍊踑臇蜸馯鳺艜_60" x1="590.62" y1="485.72" x2="764.83" y2="718.98" gradientTransform="matrix(1, -0.05, 0.05, 1, -54.84, 18.66)" gradientUnits="userSpaceOnUse"><stop offset="0" stop-color="#f1d0c0"/><stop offset="1" stop-color="#d696ce"/></linearGradient><linearGradient id="鍊踑臇蜸馯鳺艜_60-2" x1="665.6" y1="429.9" x2="839.87" y2="663.25" xlink:href="#鍊踑臇蜸馯鳺艜_60"/><linearGradient id="鍊踑臇蜸馯鳺艜_60-4" x1="693.73" y1="85.55" x2="868.87" y2="632.52" xlink:href="#鍊踑臇蜸馯鳺艜_60"/><linearGradient id="鍊踑臇蜸馯鳺艜_60-5" x1="363.94" y1="191.34" x2="538.56" y2="736.71" xlink:href="#鍊踑臇蜸馯鳺艜_60"/><linearGradient id="鍊踑臇蜸馯鳺艜_60-6" x1="507.78" y1="147.02" x2="680.87" y2="687.57" xlink:href="#鍊踑臇蜸馯鳺艜_60"/><linearGradient id="鍊踑臇蜸馯鳺艜_60-8" x1="36.22" y1="296.32" x2="210.73" y2="841.33" xlink:href="#鍊踑臇蜸馯鳺艜_60"/></defs><g class="cls-1"><g id="Layer_1" data-name="Layer 1"><path class="cls-2" d="M768.87,358.49c.69,3.9-1.55,9-11.33,15C734.58,387.56,462,558.64,462,558.64s-21.55,13.52-42.32,1.94S120.12,407.31,120.12,407.31s-13-5.74-11.63-15.62l-4-92.4,78.07,37.63L401.42,195.19s26.34-14.05,53.23-2.44c17.79,7.68,146.61,74.18,231.67,118.24l78.75-45.71,3.79,93.09Z"/><path class="cls-3" d="M453,378.36c-11-3.82-21.61-9-31.93-14.1-18.12-9-32-13.63-51.61-18.68-42.07-10.85-83.86-22-124.46-37.6a22.17,22.17,0,0,1-8.43-6l-54,35-78.07-37.63,4,92.4c-1.32,9.88,11.63,15.62,11.63,15.62S398.89,549,419.68,560.58a37.94,37.94,0,0,0,23.56,4.35,265.29,265.29,0,0,1-2-30.22c.14-20-.83-39.77-1.81-59.73a30.25,30.25,0,0,1,4.4-18C442.53,430.51,448,404.31,453,378.36Z"/><path class="cls-4" d="M112.36,285.25,397.51,100.59s26.33-14.07,53.21-2.45S757.86,255.57,757.86,255.57s18.73,9.26-4.23,23.32S458.07,464,458.07,464s-21.55,13.52-42.32,1.94S116.19,312.7,116.19,312.7,92.58,302.22,112.36,285.25Z"/><path class="cls-5" d="M616,243a130.43,130.43,0,0,0-4.63-12.45A71.38,71.38,0,0,1,616,243Z"/><path class="cls-5" d="M565.45,338.09c-73.14,46.84-194.93,52.44-272,12.51-41.62-21.55-61.72-51.93-59.91-82.71,0,0,0-.1,0-.3.06-1.22.18-2.41.32-3.61.1-.88.23-1.78.38-2.66a.25.25,0,0,1,0-.17c.13-.83.29-1.67.47-2.52,5-25.52,31.49-96.22,170.91-113.93,0,0,160.81-17.93,205.71,85.87A130.43,130.43,0,0,1,616,243a3.25,3.25,0,0,1,.11.42C624.57,275.89,607.84,310.93,565.45,338.09Z"/><path class="cls-6" d="M616.08,243.44A3.25,3.25,0,0,0,616,243a130.43,130.43,0,0,0-4.63-12.45C570.82,136.9,435.94,142.36,410,144.32c30,21,31.85,71.26,45.8,99.61,6,12.1,9.95,24,9.22,37.62-.66,12.41-5,23.8-7.2,35.93-3.74,20.38-7,39.9-15.57,58.67,45.31-3.63,89.45-16.44,123.21-38.06C607.84,310.93,624.57,275.89,616.08,243.44Z"/><path class="cls-5" d="M233.53,267.59c0-.53.08-1.77.32-3.61C233.71,265.18,233.59,266.37,233.53,267.59Z"/><path class="cls-5" d="M233.85,264c.08-.78.21-1.66.38-2.66C234.08,262.2,234,263.1,233.85,264Z"/><path class="cls-5" d="M616.11,243.44h0A3.25,3.25,0,0,0,616,243C616,243.16,616.05,243.3,616.11,243.44Z"/><path class="cls-7" d="M538.31,166.22c66.24,34.29,69,94.69,6.21,134.91s-167.43,45-233.66,10.74-69-94.68-6.2-134.9S472.08,131.93,538.31,166.22Z"/><path class="cls-8" d="M148.84,317.52,404.17,447.46s22.9,13.92,33.77,12.61,22.72-7.52,43.47-23.05S685.18,304.19,685.18,304.19s12.74-13.33-.72-15.75S450.29,444.93,433.84,440.22,179.91,315.28,179.91,315.28,114,288,148.84,317.52Z"/><path class="cls-9" d="M759.76,293.07l2.69,58.57s1.31,10.87-10.49,18.3-102.13,63.39-102.13,63.39-14.52,5.52,10.94-13.05,82.3-49.93,87-62.7S756.68,270.14,759.76,293.07Z"/><path class="cls-10" d="M112.52,335.38l2.38,51.81s.6,13,13,18.22,79.46,44.62,78.85,38-77.22-42-80.13-52.5S111.13,305.09,112.52,335.38Z"/><path class="cls-11" d="M386.6,156.35s84.95-16.15,149.46,19.28,32.1,101.69-23.88,122S536.29,229,507,208.69,319.06,176.15,386.6,156.35Z"/><path class="cls-12" d="M234.87,447.09A84.18,84.18,0,0,0,247,467.58l9.08,21.81,20.64-7.11c13.09-4.51,15.63-27.62,5.67-51.55s-28.73-39.84-41.82-35.33l-20.64,7.11L229,424.32A80.82,80.82,0,0,0,234.87,447.09Z"/><path class="cls-13" d="M215.85,453.61c10,24,28.72,39.78,41.83,35.26s15.67-27.63,5.68-51.63S234.65,397.45,221.52,402,205.87,429.61,215.85,453.61Z"/><path class="cls-14" d="M225.2,461.35s-15-22-10.93-43.33,26.92-11.23,30.77,1.73-16.93-1.54-20,13.58S233.08,472.58,225.2,461.35Z"/><g class="cls-15"><path class="cls-16" d="M768.87,358.5c.69,3.9-1.55,9-11.33,15C734.58,387.57,462,558.65,462,558.65a50.49,50.49,0,0,1-18.78,6.28c-.55.07-1.11.15-1.69.17a37.83,37.83,0,0,1-6.82,0c-.59,0-1.17-.09-1.76-.16a36.63,36.63,0,0,1-13.27-4.37C398.9,549,120.12,407.32,120.12,407.32s-12.94-5.75-11.62-15.62l-4-91.94v-.05c-.5-4,1.34-8.9,7.81-14.47L397.49,100.59s26.36-14.06,53.22-2.45S757.85,255.56,757.85,255.56s7.28,3.6,7.2,9.73h0l3.79,93.09Z"/><path class="cls-17" d="M406.1,144.67l-.6.06.14,0Z"/><path class="cls-17" d="M406.1,144.67l-.6.06.14,0Z"/></g><path class="cls-18" d="M663.44,129.54C665.81,171.17,646,213.29,633.05,236c-5.2,9.17-9.31,15.16-10.39,16.72l-.27.39c-10,13.14-23.81,25.68-41.5,37-84.46,54.08-225.11,60.54-314.15,14.44-28.43-14.71-48.14-33-59.08-52.83l-.07-.11C177,203.72,177.75,158.4,177.75,158.4l42.59-2.52c9.64-11.56,22.31-22.6,38.06-32.68,84.44-54.08,225.08-60.54,314.15-14.44a171.25,171.25,0,0,1,35.63,24.07Z"/><path class="cls-7" d="M216.76,270.41s-3.18-22.26,16.68-15.67,57.45,28,49.16,50.55-63.18-29.35-63.18-29.35A9.89,9.89,0,0,1,216.76,270.41Z"/><path class="cls-19" d="M636.62,131.13a64.07,64.07,0,0,1-16.06,51.14,71.39,71.39,0,0,1-18.26,14.39c-5.39,2.91-11.11,5.36-16.65,8l-.27.13c-20.49,10-41,19.86-60.18,32.35-1.59,1-3.2,2-4.84,2.83,1.6,13.57,2.74,27.25,3.19,40.78.4,12,.69,24.64-1.14,36.73,21.24-7.06,41.06-16.15,58.48-27.3,17.69-11.34,31.53-23.88,41.5-37l.27-.39c1.08-1.56,5.19-7.55,10.39-16.72,13-22.72,32.76-64.84,30.39-106.47Z"/><path class="cls-20" d="M220.85,275.31s-2.57-17.59,14-12.46,48,21.93,41,39.79-52.81-23-52.81-23A7.61,7.61,0,0,1,220.85,275.31Z"/><path class="cls-21" d="M588.23,40.05c97.47,50.46,101.56,139.34,9.13,198.52S351,304.84,253.52,254.38,152,115.05,244.39,55.86,490.76-10.4,588.23,40.05Z"/><ellipse class="cls-22" cx="420.87" cy="147.22" rx="220.49" ry="127.3" transform="translate(-6.32 19.49) rotate(-2.63)"/><path class="cls-5" d="M554.49,115.16c74.76,31.65,77.37,88.4,5.83,126.77s-190.13,43.82-264.89,12.18-77.37-88.4-5.83-126.77S479.73,83.52,554.49,115.16Z"/><path class="cls-23" d="M459.33,166.2c19.83,8.4,20.53,23.46,1.55,33.64s-50.45,11.63-70.29,3.23-20.53-23.45-1.55-33.63S439.49,157.81,459.33,166.2Z"/><path class="cls-5" d="M262.74,287.07l.9,10.7s-110.89,29.67-160.26,90.55c-38.75,47.79-77.36,35.41-80.48,14L21.76,388.8l2.53,2.74a28.6,28.6,0,0,1,4.79-7.82C53.31,355,144.51,293,229.94,277.55l18.72,11.23C253.07,287.39,258.78,286.1,262.74,287.07Z"/><path class="cls-22" d="M262.74,287.08s-110.89,29.69-160.27,90.57S4,401.74,28.18,373,143.6,282.33,229,266.86Z"/><path class="cls-5" d="M51,375.61s11.05-22.08,36.67-31.3S74.9,358.92,68,366.84,44.41,385.34,51,375.61Z"/><g class="cls-24"><path class="cls-25" d="M663.45,129.55l0,.44a1.34,1.34,0,0,0-.06-.44Z"/><path class="cls-26" d="M661.65,159.69c-5,30.81-18.78,59.11-28.6,76.31-5.18,9.19-9.31,15.15-10.41,16.73a3.16,3.16,0,0,1-.26.38c-10,13.16-23.79,25.7-41.51,37-2.62,1.66-5.29,3.31-8,4.89a1.59,1.59,0,0,1-.27.17c-2.32,1.36-4.72,2.68-7.16,4-1.14.61-2.29,1.23-3.43,1.77s-2.4,1.28-3.63,1.82c-1.3.7-2.6,1.33-3.91,1.91-1.93.94-3.87,1.83-5.84,2.69-3.8,1.71-7.64,3.3-11.56,4.81-2.62,1.05-5.23,2-7.89,3-1.15.42-2.3.79-3.46,1.17s-2.18.78-3.29,1.12c-81.34,27.1-183.79,23.82-254.44-12.26-5.15-1.66-11.12-5.14-17.08-9.3C220.39,304.31,140.81,330,99.6,377c-40.55,46.28-78.66,32.42-81,10.9L18.07,376a9.9,9.9,0,0,1,0-1.54c.13-5.12,2.3-10.55,6.94-15.64C48.87,332.65,133.31,279.23,214.9,263a102.06,102.06,0,0,1-7.25-11.25s0,0-.05-.08c-30.56-47.93-29.86-93.26-29.86-93.26-1.65-35.91,20.45-72.95,66.65-102.51C336.83-3.32,490.77-10.4,588.22,40.06c45.83,23.67,71,55.88,75.19,89.49a1.34,1.34,0,0,1,.06.44A81.37,81.37,0,0,1,661.65,159.69Z"/><path class="cls-27" d="M525.72,316.29c-1.07.41-2.18.78-3.29,1.16v0C523.54,317.07,524.61,316.7,525.72,316.29Z"/><path class="cls-25" d="M663.45,129.55l0,.44a1.34,1.34,0,0,0-.06-.44Z"/><path class="cls-28" d="M18.08,374.44a9.9,9.9,0,0,0,0,1.54L18,374.33Z"/></g><path class="cls-29" d="M306.26,329.76s-1.79-20.52,13.89-10.25,24.89,8.15,31.44,3.62,5.21-7.63,11.89,5.33,26-15.41,35.46-8.71,16.52,17.51,27.29,11,5.21-18.61,24.82-14.17,39.21,16.46,50.51-3.33,30.93-10.21,35.33-5,9.57-8,27.13-15.16,19.06,10.2.76,16.46-44.78,30-115.9,37.05C397.7,351.76,320.29,346.41,306.26,329.76Z"/><path class="cls-29" d="M553.89,302.43S575.62,290,572,277.68s11.94,8.17,5.53,20.67"/></g></g></svg>