<svg id="Layer_1" data-name="Layer 1" xmlns="http://www.w3.org/2000/svg" viewBox="0 0 93.26 86.09"><defs><style>.cls-1{fill:#a69360;}.cls-2{fill:#c6ae72;}.cls-3{fill:#424242;}.cls-4{fill:#737373;}.cls-5{fill:#5a5a5a;}.cls-6{fill:none;stroke:#4b5355;stroke-miterlimit:10;stroke-width:1.86px;}</style></defs><path class="cls-1" d="M37.4,78c1.12,2.17-1.4,5-4.62,5S27,81,27,78.51s1.23-3.46,4.45-3.46S36.55,76.3,37.4,78Z"/><path class="cls-2" d="M40.05,77.74c-.47.84-.9,1.7-1.33,2.56-.84,1.69-3.31,5.36-8.4,3.5a5.7,5.7,0,0,1-4-5.9,9.35,9.35,0,0,1,2.14-5.65l9-11.15,1.6-2s2.43-3.55,3.69-5c.44-.52,2.09-1,3.84-1,2.62,0,5.44,1.1,4.58,4.83l-1.88,3.37Zm-7.27,5.19c3.22,0,5.74-2.81,4.62-5-.85-1.65-2.78-2.9-6-2.9S27,76.06,27,78.51,29.56,82.93,32.78,82.93Z"/><path class="cls-3" d="M90.06,33.11,88.75,43.25c-1.3,15-36.15,18-36.15,18l-3.34,0,1.88-3.37c.86-3.73-2-4.83-4.58-4.83l0-3.11h.64c20,0,36.78-5.9,41.1-13.82a8.48,8.48,0,0,0,1-3.12Z"/><path class="cls-4" d="M89.4,32.1a6.84,6.84,0,0,1-.06.91,8.48,8.48,0,0,1-1,3.12h0c-2.39-4.76-8.19-7.16-12.43-8.55C54.82,20.64,37.3,21.44,23.6,25.21A30.61,30.61,0,0,0,7.07,36.85L6.65,37a8.76,8.76,0,0,1-1.6-4.89c0-9.86,18.88-17.86,42.17-17.86S89.4,22.24,89.4,32.1Z"/><path class="cls-5" d="M88.31,36.12h0C84,44.05,67.24,50,47.22,50h-.64c-19-.12-35-5.56-39.93-13l.42-.14A30.61,30.61,0,0,1,23.6,25.21c13.7-3.77,31.22-4.57,52.28,2.36C80.12,29,85.92,31.36,88.31,36.12Z"/><path class="cls-3" d="M46.58,50l0,3.11c-1.75,0-3.4.49-3.84,1-1.26,1.49-3.69,5-3.69,5l-1.6,2L37,60.73C3.27,57.64,4.39,42,4.39,42V32.1h.66A8.76,8.76,0,0,0,6.65,37C11.62,44.39,27.57,49.83,46.58,50Z"/><path class="cls-6" d="M5.05,32.1c0-9.86,18.88-17.86,42.17-17.86s42.18,8,42.18,17.86a6.84,6.84,0,0,1-.06.91,8.48,8.48,0,0,1-1,3.12C84,44.05,67.24,50,47.22,50h-.64c-19-.12-35-5.56-39.93-13A8.76,8.76,0,0,1,5.05,32.1Z"/></svg>