<svg id="Layer_1" data-name="Layer 1" xmlns="http://www.w3.org/2000/svg" viewBox="0 0 93.26 38.76"><defs><style>.cls-1{fill:#fff;}.cls-1,.cls-2,.cls-3,.cls-5,.cls-6,.cls-7,.cls-8{fill-rule:evenodd;}.cls-2{fill:#f8f4f2;}.cls-3{fill:#e8e1de;}.cls-4{fill:#f7a900;}.cls-5{fill:#f49d00;}.cls-6{fill:#f18a00;}.cls-7{fill:#fcc200;}.cls-8{fill:#fbf7cc;}</style></defs><path class="cls-1" d="M91.91,23.4c-3.27-2-14-3.32-13.86-6.74,0-.21,0-.43.06-.65a16.81,16.81,0,0,1,1.1-3.43c.91-2.33,1.81-4.61.24-6.14a4.35,4.35,0,0,0-.5-.39l-.18-.11a4.68,4.68,0,0,0-.5-.28l-.21-.11c-.25-.12-.51-.23-.81-.35L77,5.12l-.73-.26-.4-.13-.74-.21-.4-.11c-.34-.1-.69-.19-1.06-.28l.1,0c-12.45-3-39.53-3.9-38.52-.83.4,1.24,4,2.76,2.84,3.55s-14,1.27-24.34,3.1h0l-1.42.26-.5.1-.94.19-.55.12-.86.2L9,11l-.93.25-.37.09-1.19.36-.32.11-.8.28L5,12.21l-.66.27L4,12.64c-.22.1-.43.2-.63.31l-.26.13c-.27.16-.53.31-.76.47l-.11.09c-.19.14-.36.28-.52.42l-.17.17a2.73,2.73,0,0,0-.32.37l-.14.19a2.19,2.19,0,0,0-.21.4l-.09.18a3.22,3.22,0,0,0-.13.6,5.66,5.66,0,0,0,2.24,4.32,14.08,14.08,0,0,0,1.8,1.39,19.7,19.7,0,0,0,6,2.67,19.4,19.4,0,0,0,2.59.3c1.8.13,4.05.21,6,.3a6.82,6.82,0,0,1,4.48,1.46l.07.06C25,27.55,25.34,29,26,30.37c.07.14.15.28.23.42a3.48,3.48,0,0,0,.34.51A5.75,5.75,0,0,0,31,33.49a15.18,15.18,0,0,0,1.75.1c1.29,0,3,.08,5,.2,1.12.07,2.29.15,3.48.25l1.78.15c3.56.32,7,.73,9,1.13a11.89,11.89,0,0,1,1.18.31c.28.1.45.19.49.29a.1.1,0,0,1,0,.09,2.39,2.39,0,0,0-.31.62.37.37,0,0,0,0,.23c.14.26.7.43,2.2.44.13,0,.28,0,.43,0l1,0,.64,0c.6,0,1.28-.08,2.05-.14L61.28,37l2-.19C66.74,36.39,70,36,73,35.45c1.18-.2,2.32-.41,3.4-.63l1.58-.33c1.55-.33,3-.68,4.28-1a38,38,0,0,0,5.36-1.85,14.39,14.39,0,0,0,2.34-1.34,12.66,12.66,0,0,0,1.3-1.05c.2-.19.39-.37.56-.56a7.91,7.91,0,0,0,.87-1.15c.12-.2.22-.39.31-.58a3.45,3.45,0,0,0,.3-1.13A2.47,2.47,0,0,0,91.91,23.4Z"/><path class="cls-2" d="M32.7,33.59c5.9,0,21.46,1.44,20.86,2.42s-1.52,1.92,9.68.75,19.87-3.14,24.33-5.16,7.61-6.18,4.34-8.2-14-3.32-13.86-6.74S82,8.9,79.45,6.44l-.25-.22h0L78.9,6h0l-.34-.2h0l-.36-.19,0,0-.39-.18-.07,0-.4-.16-.1,0L76.76,5,76.61,5l-.4-.13L76,4.77l-.38-.12-.27-.08L75,4.48l-.33-.09-.32-.08-.4-.1-.29-.07c1.12.29,5.24,1.55,5.13,4.49-.13,3.4-7.33,6.61-7.78,9.42S78.82,21.39,84.78,23,89,30.23,76.14,33.49s-19,2.91-20,2.56,4-1.51,1.5-1.8-14.46-.4-18.06-1.31-11.64-.46-11.91-3.21S28.8,24,22.39,23,10,21,5.9,18.94s-3.08-6.54,7.88-9l-.67.11-.2,0-.59.11-.15,0-.68.14-.13,0-.61.12-.14,0-.65.15-.12,0-.58.14-.15,0-.62.16-.09,0-.58.16-.11,0-.58.17L7,11.5l-.54.17-.11,0-.54.18,0,0-.53.19-.09,0-.48.19-.06,0a4.25,4.25,0,0,0-.49.21l-.06,0-.45.21,0,0L3.17,13l0,0c-.13.07-.26.14-.38.22l0,0-.37.24,0,0L2,13.82l0,0a2.55,2.55,0,0,0-.3.26l0,0a3.07,3.07,0,0,0-.25.26l0,0a2.92,2.92,0,0,0-.23.29h0A2.61,2.61,0,0,0,1,15l0,0a2.71,2.71,0,0,0-.13.3h0a2.81,2.81,0,0,0-.1.31v0c0,.11,0,.22,0,.32-.26,4.22,6.91,7.7,10,8.38a79.56,79.56,0,0,0,8.57.6C28.49,25.36,22.39,33.54,32.7,33.59Z"/><path class="cls-3" d="M3.6,12.81C1.83,13.7.73,14.74.65,16c-.26,4.22,6.91,7.7,10,8.38a79.56,79.56,0,0,0,8.57.6c9.24.41,3.14,8.59,13.45,8.64h.85c-8.72-1.39-7.76-5.53-7.71-6.6s-.21-1.61-2.36-2.25-8.21-.65-13.1-1.29-8.63-4.4-9.07-6.82S3.52,12.86,3.6,12.81Z"/><path class="cls-3" d="M32.7,33.59c.5,0,1.07,0,1.7,0-1.62-.08-2.76-.11-3.08-.1C31.75,33.57,32.2,33.59,32.7,33.59Zm5.62.24C45.19,34.28,54,35.27,53.56,36c-.59,1-1.52,1.92,9.68.75s19.87-3.14,24.33-5.16,7.61-6.18,4.34-8.2-14-3.32-13.86-6.74S82,8.9,79.45,6.44a2.57,2.57,0,0,0-.39-.32c.41.32,1.4,1.39.44,3.78-1.18,3-4.24,5.37-4.3,7.3s2.47,2.1,3.44,2.37,12.28,2.61,13,5.42-1.82,5.21-4.83,6.44-15,3.92-20,4.56-12.19,1.91-12.35.73.75-1.08-.54-1.61C53.15,34.76,44.68,34.18,38.32,33.83Z"/><ellipse class="cls-4" cx="53.05" cy="18.12" rx="14.13" ry="8.44"/><path class="cls-5" d="M56.37,9.91c6.2.9,10.81,4.23,10.81,8.21,0,4.66-6.33,8.44-14.13,8.44s-14.14-3.78-14.14-8.44c0-3,2.62-5.63,6.56-7.13-14.42,6.09,4,16.82,15.69,10.2C66.85,18,64.6,11.62,56.37,9.91Z"/><path class="cls-6" d="M65.56,14.19a5.94,5.94,0,0,1,1.62,3.93c0,4.66-6.33,8.44-14.13,8.44s-14.14-3.78-14.14-8.44a5.39,5.39,0,0,1,.24-1.55c0,.09-.5,6.37,8.86,8.58S70,22.66,65.56,14.19Z"/><path class="cls-7" d="M50.23,10.63S43.14,11.91,42,15.14s2.81,5.37,8,5.76S51.8,17,54.81,16.12C64.89,13.27,56.83,9.86,50.23,10.63Z"/><path class="cls-8" d="M48.3,11.49s-3.24.87-3.92,1.93.86,1.28,1.83.76a32.28,32.28,0,0,1,3.3-1.71C50.18,12.26,51.39,10.89,48.3,11.49Z"/><path class="cls-8" d="M49.82,13c-.68.46-1.63.8-1.18,1.27C49.76,15.43,53.59,10.87,49.82,13Z"/></svg>