<svg id="Layer_1" data-name="Layer 1" xmlns="http://www.w3.org/2000/svg" viewBox="0 0 93.26 48.09"><defs><style>.cls-1{fill:#efe4d6;}.cls-1,.cls-2,.cls-3,.cls-5,.cls-6{fill-rule:evenodd;}.cls-2{fill:#a8621a;opacity:0.43;}.cls-3{fill:#b6927a;}.cls-4{fill:#bf662c;}.cls-5{fill:#cf962e;}.cls-6{fill:#fbf7cc;}</style></defs><path class="cls-1" d="M82.46,27.47c-2.77-1.71-11.83-2.82-11.74-5.71a5.43,5.43,0,0,1,.06-.55,14.12,14.12,0,0,1,.92-2.91c.78-2,1.53-3.9.2-5.2a2.43,2.43,0,0,0-.42-.32.78.78,0,0,0-.15-.1,4.16,4.16,0,0,0-.42-.23l-.18-.1c-.21-.1-.43-.19-.68-.29l-.2-.07-.62-.22-.34-.11-.63-.18-.33-.1-.9-.23.09,0c-10.55-2.55-33.47-3.31-32.62-.7.34,1,3.36,2.33,2.41,3S25.08,14.55,16.3,16.1h0l-1.2.22-.42.08-.8.17-.46.1-.73.17-.44.1-.79.21-.3.08-1,.3-.27.1c-.24.07-.47.15-.69.23L8.88,18l-.56.23-.3.13-.53.27a1.51,1.51,0,0,0-.22.11c-.23.13-.45.26-.65.4l-.09.07a5.67,5.67,0,0,0-.44.36A.93.93,0,0,0,6,19.7a3.74,3.74,0,0,0-.27.31.88.88,0,0,0-.12.17,2.68,2.68,0,0,0-.18.33.77.77,0,0,0-.07.16,1.72,1.72,0,0,0-.11.51,4.77,4.77,0,0,0,1.89,3.66A12.75,12.75,0,0,0,8.61,26a16.81,16.81,0,0,0,5.08,2.26,18.08,18.08,0,0,0,2.19.26c1.52.11,3.43.17,5.06.25A5.82,5.82,0,0,1,24.74,30s0,0,.05,0c1,.92,1.3,2.18,1.89,3.31a4,4,0,0,0,.2.35,4.08,4.08,0,0,0,.28.44A4.91,4.91,0,0,0,30.85,36a13,13,0,0,0,1.47.08c1.1,0,2.58.07,4.23.17l2.94.21L41,36.6c3,.27,5.92.62,7.59,1a8,8,0,0,1,1,.26c.24.08.39.16.42.24a.08.08,0,0,1,0,.08,2,2,0,0,0-.26.53.31.31,0,0,0,0,.19c.12.22.6.37,1.86.38H52l.83,0,.54,0c.51,0,1.08-.07,1.73-.13l1.44-.12,1.66-.17c3-.31,5.71-.68,8.22-1.11,1-.17,2-.34,2.87-.53l1.34-.27c1.31-.29,2.52-.58,3.62-.89a30.52,30.52,0,0,0,4.54-1.57,11.57,11.57,0,0,0,2-1.13,11.08,11.08,0,0,0,1.11-.89l.47-.47a6.47,6.47,0,0,0,.74-1,4.52,4.52,0,0,0,.25-.49,2.65,2.65,0,0,0,.26-1A2.08,2.08,0,0,0,82.46,27.47Z"/><path class="cls-2" d="M32.32,36.09c5,0,18.17,1.22,17.67,2s-1.29,1.63,8.2.63S75,36.11,78.78,34.4s6.45-5.23,3.68-6.93-11.83-2.82-11.74-5.71S74,15.18,71.9,13.1l-.21-.18h0l-.25-.18h0l-.28-.18h0l-.31-.16h0a2.53,2.53,0,0,0-.33-.16l-.06,0-.34-.14L70,12a3.24,3.24,0,0,0-.33-.13l-.13,0-.34-.12L69,11.69l-.32-.1-.23-.07-.28-.07-.27-.08-.28-.07-.33-.09L67,11.15c1,.25,4.44,1.32,4.35,3.81-.12,2.88-6.21,5.6-6.6,8s6.6,2.82,11.64,4.15S80,33.25,69.1,36s-16.06,2.46-17,2.16,3.43-1.27,1.27-1.52-12.24-.34-15.29-1.11S28.25,35.15,28,32.82s1-4.87-4.43-5.7-10.47-1.66-14-3.44S7,18.15,16.31,16.1l-.57.1-.17,0-.5.1-.12,0-.58.12-.11,0-.52.11-.11,0-.56.13-.09,0-.5.12-.12,0-.53.13-.07,0-.49.13-.1,0-.49.14-.07,0-.47.15-.08,0-.47.15h0l-.46.17-.07,0-.41.17,0,0-.41.17-.05,0-.38.18h0l-.37.19,0,0L7,18.9l0,0a3.28,3.28,0,0,0-.31.2l0,0-.27.21,0,0L6,19.6H6l-.21.23,0,0a2.23,2.23,0,0,0-.19.24h0a1.28,1.28,0,0,0-.15.25l0,0a1.89,1.89,0,0,0-.11.25h0a2.41,2.41,0,0,0-.08.25v0a1.26,1.26,0,0,0,0,.27C5,24.75,11,27.7,13.69,28.27a66.77,66.77,0,0,0,7.25.51C28.76,29.12,23.6,36.05,32.32,36.09Z"/><path class="cls-3" d="M7.7,18.5c-1.51.75-2.44,1.63-2.5,2.68C5,24.75,11,27.7,13.69,28.27a66.77,66.77,0,0,0,7.25.51c7.82.34,2.66,7.27,11.38,7.31h.73c-7.39-1.18-6.57-4.68-6.53-5.59s-.18-1.36-2-1.91-6.95-.54-11.09-1.09-7.31-3.72-7.68-5.77S7.63,18.54,7.7,18.5Z"/><path class="cls-3" d="M32.32,36.09l1.45,0c-1.37-.06-2.34-.09-2.61-.08C31.52,36.07,31.91,36.09,32.32,36.09Zm4.77.21c5.81.37,13.28,1.21,12.9,1.84-.5.84-1.29,1.63,8.2.63S75,36.11,78.78,34.4s6.45-5.23,3.68-6.93-11.83-2.82-11.74-5.71S74,15.18,71.9,13.1a2.39,2.39,0,0,0-.33-.27c.35.27,1.19,1.18.38,3.21-1,2.5-3.59,4.54-3.64,6.18s2.09,1.77,2.91,2,10.4,2.21,11,4.59-1.54,4.41-4.09,5.45-12.68,3.32-16.93,3.87-10.31,1.61-10.45.61.64-.91-.45-1.36C49.64,37.08,42.47,36.59,37.09,36.3Z"/><ellipse class="cls-4" cx="49.55" cy="22.99" rx="11.96" ry="7.15"/><path class="cls-2" d="M52.37,16.05c5.25.75,9.15,3.57,9.15,6.94,0,4-5.36,7.15-12,7.15s-12-3.2-12-7.15c0-2.53,2.21-4.76,5.55-6C30.93,22.11,46.52,31.2,56.42,25.6,61.24,22.87,59.33,17.49,52.37,16.05Z"/><path class="cls-5" d="M60.15,19.67A5,5,0,0,1,61.52,23c0,4-5.36,7.15-12,7.15s-12-3.2-12-7.15a4.48,4.48,0,0,1,.2-1.31c0,.08-.42,5.4,7.5,7.27S63.87,26.84,60.15,19.67Z"/><path class="cls-5" d="M47.17,16.65s-6,1.09-7,3.82S42.57,25,47,25.35,48.5,22,51.05,21.3C59.58,18.89,52.76,16,47.17,16.65Z"/><path class="cls-6" d="M45.54,17.38s-2.75.74-3.33,1.64.74,1.08,1.55.64a26.12,26.12,0,0,1,2.8-1.44C47.13,18,48.15,16.87,45.54,17.38Z"/><path class="cls-6" d="M46.82,18.66c-.58.39-1.38.68-1,1.08C46.77,20.71,50,16.85,46.82,18.66Z"/></svg>