<svg xmlns="http://www.w3.org/2000/svg" xmlns:xlink="http://www.w3.org/1999/xlink" viewBox="0 0 759.85 227.82" ><defs><style>.cls-1{isolation:isolate;}.cls-10,.cls-11,.cls-12,.cls-2,.cls-3,.cls-4,.cls-5,.cls-6,.cls-7,.cls-8,.cls-9{fill-rule:evenodd;}.cls-2{fill:url(#鍊踑臇蜸馯鳺艜_44);}.cls-3{fill:#3a1015;}.cls-4{fill:url(#鍊踑臇蜸馯鳺艜_44-2);}.cls-5{fill:#f7d2a3;mix-blend-mode:soft-light;}.cls-6{fill:url(#未命名漸層_29);}.cls-7{fill:url(#鍊踑臇蜸馯鳺艜_67);}.cls-8{fill:url(#鍊踑臇蜸馯鳺艜_62);}.cls-9{opacity:0.5;mix-blend-mode:screen;fill:url(#鍊踑臇蜸馯鳺艜_63);}.cls-10{fill:url(#鍊踑臇蜸馯鳺艜_50);}.cls-11{fill:url(#鍊踑臇蜸馯鳺艜_50-2);}.cls-12{fill:url(#鍊踑臇蜸馯鳺艜_50-3);}</style><linearGradient id="鍊踑臇蜸馯鳺艜_44" x1="-1523.94" y1="226.36" x2="-1523.94" y2="127.51" gradientTransform="matrix(-1, 0, 0, 1, -876.07, 1.88)" gradientUnits="userSpaceOnUse"><stop offset="0.02" stop-color="#561e2d"/><stop offset="0.99" stop-color="#6f2537"/></linearGradient><linearGradient id="鍊踑臇蜸馯鳺艜_44-2" x1="1283.43" y1="226.36" x2="1283.43" y2="127.51" gradientTransform="matrix(1, 0, 0, 1, -1146.76, 2.28)" xlink:href="#鍊踑臇蜸馯鳺艜_44"/><linearGradient id="未命名漸層_29" x1="8.32" y1="112.71" x2="768.76" y2="112.71" gradientTransform="matrix(1, 0, 0, 1, -1.08, 0.57)" gradientUnits="userSpaceOnUse"><stop offset="0.02" stop-color="#df904e"/><stop offset="0.99" stop-color="#bf5232"/></linearGradient><linearGradient id="鍊踑臇蜸馯鳺艜_67" x1="7.57" y1="172.56" x2="760.68" y2="172.56" gradientTransform="matrix(1, 0, 0, 1, -1.08, 0.57)" gradientUnits="userSpaceOnUse"><stop offset="0.01" stop-color="#6f2537"/><stop offset="0.98" stop-color="#561c18"/></linearGradient><linearGradient id="鍊踑臇蜸馯鳺艜_62" x1="7.57" y1="164.73" x2="760.68" y2="164.73" gradientTransform="matrix(1, 0, 0, 1, -1.08, 0.57)" gradientUnits="userSpaceOnUse"><stop offset="0.02" stop-color="#b5522f"/><stop offset="0.99" stop-color="#b75040"/></linearGradient><linearGradient id="鍊踑臇蜸馯鳺艜_63" x1="0.83" y1="158.93" x2="764.82" y2="158.93" gradientTransform="matrix(1, 0, 0, 1, -1.08, 0.57)" gradientUnits="userSpaceOnUse"><stop offset="0" stop-color="#be5a23"/><stop offset="1"/></linearGradient><linearGradient id="鍊踑臇蜸馯鳺艜_50" x1="44.81" y1="132.6" x2="731.4" y2="132.6" gradientTransform="matrix(1, 0, 0, 1, -1.08, 0.57)" gradientUnits="userSpaceOnUse"><stop offset="0.02" stop-color="#983c2a"/><stop offset="0.99" stop-color="#6f2537"/></linearGradient><linearGradient id="鍊踑臇蜸馯鳺艜_50-2" x1="85.74" y1="105.16" x2="705.84" y2="105.16" xlink:href="#鍊踑臇蜸馯鳺艜_50"/><linearGradient id="鍊踑臇蜸馯鳺艜_50-3" x1="117.98" y1="76.51" x2="738.08" y2="76.51" gradientTransform="matrix(0.9, 0, 0, 1, 11.15, 0.55)" xlink:href="#鍊踑臇蜸馯鳺艜_50"/></defs><g class="cls-1"><g id="Layer_1" data-name="Layer 1"><polygon class="cls-2" points="659.06 127.61 656.59 223.73 637.21 226.96 637.68 128.55 659.06 127.61"/><polygon class="cls-3" points="637.68 128.59 628.08 129.06 628.66 227.12 637.21 226.96 637.68 128.59"/><polygon class="cls-4" points="125.86 128.4 128.62 224.52 148.01 227.69 147.24 129.28 125.86 128.4"/><polygon class="cls-3" points="147.24 129.32 156.84 129.76 156.56 227.82 148.01 227.69 147.24 129.32"/><polygon class="cls-5" points="16.18 171.11 35.93 167.42 108.78 167.68 96.93 172.23 16.18 171.11"/><polygon class="cls-5" points="112.68 167.68 372.51 167.42 349.43 174.8 101.55 172.46 112.68 167.68"/><polygon class="cls-6" points="0 168.44 136.94 57.42 650.19 57.42 764 167.8 0 168.44"/><polygon class="cls-7" points="6.74 163.3 8.08 176.77 756.6 181.83 759.85 164.44 6.74 163.3"/><path class="cls-8" d="M759.85,164.44S295.43,170.26,6.74,163.3Z"/><path class="cls-9" d="M0,168.44l764-.64S262.58,126.44,0,168.44Z"/><polygon class="cls-10" points="43.93 134.92 730.52 134.12 726.48 130.05 47.68 132.22 43.93 134.92"/><polygon class="cls-11" points="86.44 102.53 702.86 106.29 704.92 107.76 84.82 103.87 86.44 102.53"/><polygon class="cls-12" points="118.38 73.83 670.43 77.68 672.28 79.15 116.92 75.17 118.38 73.83"/></g></g></svg>