<svg xmlns="http://www.w3.org/2000/svg" viewBox="0 0 93.26 48.09"><defs><style>.cls-1{isolation:isolate;}.cls-2{fill:#332f33;opacity:0.15;mix-blend-mode:multiply;}.cls-3{fill:#ef615e;}.cls-4{fill:#995d24;}.cls-5{fill:#84491c;}.cls-6{fill:#e1924a;}.cls-7{fill:#d6a150;}.cls-8{fill:#cba669;}.cls-9{fill:#f5c97e;}.cls-10{fill:#e1b257;}</style></defs><g class="cls-1"><g id="Layer_1" data-name="Layer 1"><path class="cls-2" d="M46.58,24.08a5.29,5.29,0,0,0,.09-.8C46.65,23.47,46.62,23.76,46.58,24.08Z"/><path class="cls-3" d="M46.46,24.37A6.9,6.9,0,0,0,46.8,23,11.3,11.3,0,0,1,46.46,24.37Z"/><path class="cls-4" d="M54.3,7.17c2.52,0,20.65,2.24,29,6,2.68,1.2,1.31,6.44.83,7.41-1.4,2.79-36.3,14.12-36.09,15.58s.74,5.64-4.68,8.14c-5.08,2.34-16,3.7-30.11-6.77C6.7,32.65,2.44,18.75,9.37,15.29c5.83-2.92,11,4,13.87,2.93S49.51,7.17,54.3,7.17Z"/><path class="cls-5" d="M44.07,39.55c-.55-.44-1.46-.18-1.92-.76s0-1.27-.76-1.86c-1.5-1.15-3.22-.9-4.91-1a7.83,7.83,0,0,1-5.56-2.51,28.9,28.9,0,0,0-7.08-5.49,58.35,58.35,0,0,0-5.32-2.48c-1.33-.55-2.82-.93-4.12-1.54-2.11-1-2.61-3.74-3.87-5.5A5.64,5.64,0,0,0,8,16.15C2.86,20.57,7,33,13.13,37.6c14.08,10.47,25,9.11,30.11,6.77a12.12,12.12,0,0,0,1.14-.6l0-.24C44.26,42.45,45,40.3,44.07,39.55Z"/><path class="cls-6" d="M52.54,1.71c3.77,0,32.73,9.17,31.27,12.09S46.08,29.22,46.29,30.68,49,35.48,43.58,38C38.5,40.32,25,41.73,12.72,30.89,7.15,26,3.92,17.47,10.85,14c5.83-2.91,7.71-.2,10.63-1.25S47.74,1.71,52.54,1.71Z"/><path class="cls-7" d="M52,2.78c3.51,0,30.54,8.14,29.18,10.84s-36.7,15-36.5,16.31,2.9,4.63-2.13,6.94c-4.72,2.17-16.37,3.5-27.8-6.52C9.57,25.81,5.53,18,12,14.82c5.42-2.69,8.2-.27,10.92-1.24S47.53,2.78,52,2.78Z"/><path class="cls-4" d="M68.47,22.25c-1.76.6-3.25,1.7-5,2.31-2,.69-4.2,1-6.14,1.8-1.7.66-3.27,1.38-5,2.1-1.12.47-4.31,1.9-4.86,1.8l-.13.43a3.72,3.72,0,0,0,1.08,2.85c1.26.81,1.85-.16,2.74-.94,2.27-2,4.73-2.81,7.67-3.89s5.92-2.34,8.89-3.22C70.26,24.74,72.41,20.91,68.47,22.25Z"/><path class="cls-8" d="M15.48,18.15a11.74,11.74,0,0,0,2.2-.29c.52-.1.3-.9-.22-.79a11.07,11.07,0,0,1-2,.26.41.41,0,0,0,0,.82Z"/><path class="cls-8" d="M14.24,21.49a7.61,7.61,0,0,0,.29,1.78.41.41,0,0,0,.79-.22,7.37,7.37,0,0,1-.26-1.56.41.41,0,0,0-.82,0Z"/><path class="cls-8" d="M16.07,27.59l2.5.42c.52.08.74-.71.22-.8l-2.5-.42c-.52-.08-.75.71-.22.8Z"/><path class="cls-8" d="M24,29.13a.41.41,0,0,0,0-.82.41.41,0,0,0,0,.82Z"/><path class="cls-8" d="M24,29.13A7.61,7.61,0,0,0,25.74,29c.52-.12.3-.92-.22-.8a6.81,6.81,0,0,1-1.56.13.41.41,0,0,0,0,.82Z"/><path class="cls-8" d="M27.33,33.84a11.42,11.42,0,0,0,2.19.16.42.42,0,0,0,0-.83,11,11,0,0,1-2-.12c-.52-.1-.74.7-.21.79Z"/><path class="cls-8" d="M36.41,33.65a5.13,5.13,0,0,0,.73-1.21.4.4,0,0,0-.28-.5.41.41,0,0,0-.51.29,5.42,5.42,0,0,1-.65,1c-.3.44.41.85.71.41Z"/><path class="cls-8" d="M30.49,26.77A7.13,7.13,0,0,0,33,26.34c.5-.19.28-1-.21-.8a6.46,6.46,0,0,1-2.26.41.41.41,0,0,0,0,.82Z"/><path class="cls-8" d="M23.4,22.18A3.92,3.92,0,0,0,24.63,22c.5-.16.28-1-.22-.79a3.45,3.45,0,0,1-1,.12.41.41,0,0,0,0,.82Z"/><path class="cls-8" d="M23.82,16.21a.42.42,0,0,0,0-.83.42.42,0,0,0,0,.83Z"/><path class="cls-8" d="M24,16.21h2.36a.42.42,0,0,0,0-.83H24a.42.42,0,0,0,0,.83Z"/><path class="cls-8" d="M32.93,19.2,33.77,18c.29-.44-.42-.86-.71-.42l-.84,1.25c-.29.45.42.86.71.42Z"/><path class="cls-8" d="M31,12.86c.82-.27,1.68-.43,2.5-.7.5-.16.29-1-.22-.79-.82.26-1.68.43-2.5.69-.5.17-.29,1,.22.8Z"/><path class="cls-8" d="M39.51,12.34l.7.69a.41.41,0,0,0,.58-.58l-.69-.7a.42.42,0,0,0-.59.59Z"/><path class="cls-8" d="M41.81,31.71a2.16,2.16,0,0,1,.36,1.18.42.42,0,0,0,.83,0,2.94,2.94,0,0,0-.48-1.6c-.28-.44-1,0-.71.42Z"/><path class="cls-8" d="M51.41,21.85a6.75,6.75,0,0,1,1.71-.51c.52-.11.3-.9-.22-.8a7.57,7.57,0,0,0-1.91.6c-.48.23-.06.94.42.71Z"/><path class="cls-8" d="M50.89,17c.74-.3,1.48-.58,2.23-.84.5-.17.28-1-.22-.79-.75.25-1.49.54-2.23.83-.48.2-.27,1,.22.8Z"/><path class="cls-8" d="M45.75,9a9.49,9.49,0,0,0,2-.74c.47-.23.05-1-.42-.71a8,8,0,0,1-1.85.65c-.52.11-.3.91.22.8Z"/><path class="cls-8" d="M49.92,5.21a3.89,3.89,0,0,1,2,.42c.5.2.71-.6.22-.79a4.39,4.39,0,0,0-2.44-.42c-.52.1-.3.9.22.79Z"/><path class="cls-8" d="M57.11,7.81a5.59,5.59,0,0,0,2.29.62.42.42,0,0,0,0-.83,4.62,4.62,0,0,1-1.88-.5c-.47-.23-.89.48-.41.71Z"/><path class="cls-8" d="M52.17,11.62a.41.41,0,0,0,0-.82.41.41,0,0,0,0,.82Z"/><path class="cls-8" d="M52.38,11.57A7.81,7.81,0,0,1,54,11.05a.41.41,0,0,0-.22-.79,8.88,8.88,0,0,0-1.76.59c-.48.23-.07,1,.41.72Z"/><path class="cls-8" d="M59.93,17c.74-.15,1.48-.27,2.22-.42.52-.1.3-.9-.22-.79l-2.22.41c-.52.11-.3.9.22.8Z"/><path class="cls-8" d="M59.65,20.92a8.2,8.2,0,0,0,1.63-.6c.47-.23.06-.94-.42-.71a6.59,6.59,0,0,1-1.43.51.42.42,0,0,0,.22.8Z"/><path class="cls-8" d="M63.09,12.81c.32-.47.66-.92,1-1.39s-.41-.86-.71-.42-.65.92-1,1.39.42.86.71.42Z"/><path class="cls-8" d="M69.38,14.53a14,14,0,0,1,3.22-.41.41.41,0,0,0,0-.82,15.36,15.36,0,0,0-3.44.43c-.52.12-.3.92.22.8Z"/><path class="cls-9" d="M21.21,31.06a12.06,12.06,0,0,1,1.95.56c.49.19.7-.6.22-.79a11.12,11.12,0,0,0-1.95-.56c-.52-.11-.74.69-.22.79Z"/><path class="cls-9" d="M28.06,30.75a6.6,6.6,0,0,1,2-.8c.52-.11.3-.9-.22-.79a7.27,7.27,0,0,0-2.19.87.42.42,0,0,0,.42.72Z"/><path class="cls-9" d="M26.61,24.29a5.71,5.71,0,0,1,1.87-1.47c.47-.24.05-.95-.42-.71a6.19,6.19,0,0,0-2,1.59c-.33.41.25,1,.58.59Z"/><path class="cls-9" d="M18.33,23.66a5.7,5.7,0,0,0,1.63.73.41.41,0,0,0,.22-.79A4.88,4.88,0,0,1,18.75,23c-.45-.3-.86.42-.42.71Z"/><path class="cls-9" d="M19.48,20.64a9.74,9.74,0,0,0,1.21-.46.4.4,0,0,0,.15-.56.41.41,0,0,0-.56-.15,8.89,8.89,0,0,1-1,.38c-.5.16-.28,1,.22.79Z"/><path class="cls-9" d="M29.07,16.33c.61-.16,1.19-.42,1.81-.55s.3-.91-.22-.8-1.2.4-1.81.56a.41.41,0,0,0,.22.79Z"/><path class="cls-9" d="M36.12,24.91a3.22,3.22,0,0,0,2.4.46c.53-.09.3-.89-.22-.8a2.33,2.33,0,0,1-1.76-.37c-.44-.31-.85.41-.42.71Z"/><path class="cls-9" d="M35.91,36.92a14.09,14.09,0,0,0,2.34-.16c.52-.08.3-.87-.22-.79a13.64,13.64,0,0,1-2.12.12.42.42,0,0,0,0,.83Z"/><path class="cls-9" d="M40,30.18a3.49,3.49,0,0,1,.63-.75.41.41,0,0,0-.58-.58,3.88,3.88,0,0,0-.76.91.42.42,0,0,0,.15.57.41.41,0,0,0,.56-.15Z"/><path class="cls-9" d="M45.36,25.94a.42.42,0,0,0,0-.83.42.42,0,0,0,0,.83Z"/><path class="cls-9" d="M45.47,25.92l2.78-.41c.53-.08.3-.87-.22-.8l-2.78.42c-.52.07-.3.87.22.79Z"/><path class="cls-9" d="M46.2,18.71h1a.41.41,0,0,0,0-.82h-1a.41.41,0,0,0,0,.82Z"/><path class="cls-9" d="M37,17.86a7.5,7.5,0,0,0,1.9-.6c.48-.23.06-.94-.42-.71a7.26,7.26,0,0,1-1.7.52c-.53.1-.3.9.22.79Z"/><path class="cls-9" d="M44.32,13.09,46,12.26c.47-.24.06-.95-.42-.71l-1.67.83c-.47.24,0,.95.42.71Z"/><path class="cls-9" d="M38.21,9.9a11.43,11.43,0,0,1,1.66-1.11c.48-.25.06-1-.41-.72a11.07,11.07,0,0,0-1.67,1.12c-.42.31,0,1,.42.71Z"/><path class="cls-9" d="M43.21,7.67a2.65,2.65,0,0,0,1.18.2.42.42,0,0,0,0-.83A1.77,1.77,0,0,1,43.63,7a.43.43,0,0,0-.57.15.42.42,0,0,0,.15.56Z"/><path class="cls-9" d="M46.61,5.78a3.16,3.16,0,0,1,.87.13c.51.16.72-.63.22-.8A3.68,3.68,0,0,0,46.61,5a.41.41,0,0,0,0,.82Z"/><path class="cls-9" d="M52.17,8.7c.33,0,.65.13,1,.14.53,0,.53-.81,0-.82-.33,0-.65-.13-1-.14-.53,0-.53.81,0,.82Z"/><path class="cls-9" d="M50.37,14a5.07,5.07,0,0,0,1.5-.15c.5-.15.29-.95-.22-.79a4.6,4.6,0,0,1-1.28.12.41.41,0,0,0,0,.82Z"/><path class="cls-9" d="M56.9,14.12a.41.41,0,0,0,0-.82.41.41,0,0,0,0,.82Z"/><path class="cls-9" d="M57.11,14.07a4.19,4.19,0,0,1,1.29-.79.42.42,0,0,0-.22-.8,5,5,0,0,0-1.49.88c-.44.29,0,1,.42.71Z"/><path class="cls-9" d="M55.3,19.07,57,17.82c.42-.32,0-1-.42-.71l-1.67,1.25c-.42.31,0,1,.42.71Z"/><path class="cls-9" d="M54.88,23.24a4.42,4.42,0,0,1,1-.51c.5-.17.28-1-.22-.8a5.25,5.25,0,0,0-1.21.6c-.44.29,0,1,.41.71Z"/><path class="cls-9" d="M65,17.6a20.07,20.07,0,0,0,2.89-.29c.52-.09.3-.89-.22-.8a17.12,17.12,0,0,1-2.67.26.42.42,0,0,0,0,.83Z"/><path class="cls-9" d="M72.33,15.93a.41.41,0,0,0,0-.82.41.41,0,0,0,0,.82Z"/><path class="cls-9" d="M72.62,15.81a5.15,5.15,0,0,1,1.3-.91c.48-.24.06-1-.41-.71a5.65,5.65,0,0,0-1.48,1c-.38.37.21.95.59.58Z"/><path class="cls-9" d="M66.14,12.54a3.63,3.63,0,0,0,.92-.62c.38-.37-.2-1-.59-.58a2.94,2.94,0,0,1-.75.49.41.41,0,0,0-.14.56.42.42,0,0,0,.56.15Z"/><path class="cls-9" d="M73,11.7a8.25,8.25,0,0,0,1.63.74.41.41,0,0,0,.22-.79A7.71,7.71,0,0,1,73.37,11c-.48-.24-.89.47-.42.71Z"/><path class="cls-9" d="M61.49,7.73A7.39,7.39,0,0,1,63,8a.41.41,0,0,0,.22-.79,7.61,7.61,0,0,0-1.77-.29.41.41,0,0,0,0,.82Z"/><path class="cls-9" d="M60.72,10.31l.83-.41a.41.41,0,0,0,.15-.57.42.42,0,0,0-.56-.14l-.84.41a.42.42,0,0,0-.14.57.41.41,0,0,0,.56.14Z"/><path class="cls-9" d="M54.29,4.94a12.4,12.4,0,0,0,2.19.29.42.42,0,0,0,0-.83,10.85,10.85,0,0,1-2-.26c-.52-.1-.74.69-.22.8Z"/><path class="cls-10" d="M65.1,8c-2.28-.81-4.52-1.34-6.81-2.25-2.48-1-4.21-1.88-6.95-1.78A14.78,14.78,0,0,0,45,5.55c-2.21,1.27-4.12,3-6.56,3.81-2.14.75-4.67,1-6.54,2.41l-1.25.13c-.06,1.82-8.67.73-7.06,5.12.83,2.23,5.3,1.63,7.09,1.39a19.89,19.89,0,0,0,8-2.58,24.32,24.32,0,0,1,16-3.52c4.49.65,10.63,4.41,14.1,0C70.91,9.67,67.2,8.76,65.1,8Z"/></g></g></svg>