<svg id="Layer_1" data-name="Layer 1" xmlns="http://www.w3.org/2000/svg" viewBox="0 0 148.25 153.03"><defs><style>.cls-1{fill:#717373;}.cls-2{fill:#9db9c4;}.cls-3{fill:#2e3133;}.cls-4{fill:#c59340;}.cls-5{fill:#6c8341;}.cls-6{fill:#8ea8b2;}.cls-7{fill:#edf2f4;}.cls-8{fill:#c4dae3;}.cls-9{fill:#d3e79e;}.cls-10{fill:#84491c;}.cls-11{fill:#995d24;}.cls-12{fill:#985320;}.cls-13{fill:#dfecf4;}.cls-14{fill:#8d5520;}.cls-15{fill:#bb843c;}.cls-16{fill:#4a4c4a;}.cls-17{fill:#bde267;}.cls-18{fill:#484a4e;}.cls-19{fill:#494a4d;}.cls-20{fill:#e1b257;}.cls-21{fill:#a46d29;}.cls-22{fill:#a46226;}.cls-23{fill:#a1a954;}.cls-24{fill:#686a6f;}.cls-25{fill:#859c55;}.cls-26{fill:#7c9250;}.cls-27{fill:#d1b041;}.cls-28{fill:#ceb341;}.cls-29{fill:#829954;}.cls-30{fill:#cbf273;}.cls-31{fill:#edc982;}.cls-32{fill:#eac177;}.cls-33{fill:#bde268;}.cls-34{fill:#9f682e;}.cls-35{fill:#2d3033;}.cls-36{fill:#d6a150;}.cls-37{fill:#69522b;}.cls-38{fill:#ecc47e;}.cls-39{fill:#ecc27d;}.cls-40{fill:#edc37f;}.cls-41{fill:#edc47c;}.cls-42{fill:#eec680;}.cls-43{fill:#ebc37a;}.cls-44{fill:#eec57d;}.cls-45{fill:#edc47b;}.cls-46{fill:#edc27a;}.cls-47{fill:#ebc378;}.cls-48{fill:#474a4e;}.cls-49{fill:#2e3333;}.cls-50{fill:#2e3234;}.cls-51{fill:#303134;}.cls-52{fill:#f1b43f;}.cls-53{fill:#ea9636;}.cls-54{fill:#ec9636;}.cls-55{fill:#e3b36f;}.cls-56{fill:#e1b576;}.cls-57{fill:#e0b36f;}.cls-58{fill:#e3b67a;}.cls-59{fill:#e1b677;}.cls-60{fill:#e5b878;}.cls-61{fill:#f1c987;}.cls-62{fill:#66696c;}.cls-63{fill:#161d0c;}</style></defs><g id="M1T6Ws"><path class="cls-1" d="M136,104.62c-.23,0-.22.33-.42.39-.21-.26,0-.48.09-.7a13.55,13.55,0,0,0,1.67-7.85,18,18,0,0,0-.77-3.66c-.07-.24-.22-.48,0-.73l.16,0a13.77,13.77,0,0,1,1.07,7.49A12.64,12.64,0,0,1,136,104.62Z"/><path class="cls-2" d="M74,148.33a6.17,6.17,0,0,1-3.4.68c-.15.1-.32,0-.48,0s-.23-.05-.25-.18a.28.28,0,0,1,.16-.28,4,4,0,0,1,.93-.28c.71-.25.79-.45.63-1.19a11.64,11.64,0,0,1-.26-2.42c0-1.12,0-2.23,0-3.35,0-3.86.16-7.72.41-11.57.13-2,.33-4,.46-6s.45-3.92.75-5.87c.38-2.41.66-4.83,1.14-7.22a101.62,101.62,0,0,1,2.71-10.46,33.77,33.77,0,0,1,1.67-3.75,57.79,57.79,0,0,1,3.24-5.81c.72-1.19,1.53-2.33,2.36-3.44,1.35-1.89,2.8-3.71,4.19-5.57,2.34-3.11,5-6,7.59-8.82,1.84-2,3.76-4,5.67-6,2.1-2.17,4.28-4.27,6.45-6.36s4.32-4.09,6.65-5.94c.44-.35.76-.81,1.18-1.18,2.71-2.34,5.4-4.7,8.17-7,1.13-.92,2.21-1.94,3.41-2.76,1.85-1.29,3.53-2.8,5.34-4.13a3.73,3.73,0,0,1,4.31.41,7.78,7.78,0,0,1,1,1.15,5.93,5.93,0,0,1,.3,2.61l-2,45.85a5.53,5.53,0,0,1-.14,1.46c-.29-.16-.17-.44-.2-.67L137,65.48c0-.14,0-.28,0-.42,0-.29-.11-.39-.38-.24a2.54,2.54,0,0,0-.49.26c-2.42,1.89-5.21,3.26-7.52,5.3a26.75,26.75,0,0,1-3.82,2.8,1.18,1.18,0,0,0-.27.22c-1.28,1.69-3.32,2.54-4.63,4.21a6.1,6.1,0,0,1-1.25,1,70.74,70.74,0,0,0-8.36,7.78c-.05,0-.09.11-.14.15-2.83,2.55-5,5.7-7.54,8.49-1.61,1.76-3.07,3.62-4.5,5.51a42.83,42.83,0,0,1-2.58,3.55A8,8,0,0,0,94,106.47a7.56,7.56,0,0,1-1.65,2.24c-1,1.05-1.57,2.46-2.48,3.61a45.28,45.28,0,0,0-4,7.06c-.35.66-.8,1.26-1.11,1.94-1.27,2.72-2.85,5.27-4,8-.7,1.64-1.68,3.16-2.32,4.84-1.19,3.18-2.63,6.26-3.68,9.5A5.85,5.85,0,0,1,74,145a6.42,6.42,0,0,0-.58,2.55C73.35,147.91,73.77,148.06,74,148.33Z"/><path class="cls-3" d="M136.52,92.07c.21.87.5,1.72.76,2.56a10.15,10.15,0,0,1,.26,2.61,12.68,12.68,0,0,1-.3,3.74,11.57,11.57,0,0,1-1.5,3.53.77.77,0,0,0-.18.5h0a3.43,3.43,0,0,1-3.34,1.45,1.66,1.66,0,0,1-1.34-.62,8.07,8.07,0,0,1-2.25-5.11,19,19,0,0,1,.52-6.84,1.7,1.7,0,0,1,.3-.62,1.77,1.77,0,0,0,.3-.69,8.49,8.49,0,0,1,1.92-2.74c.27-.35.74-.21,1.11-.31a3.88,3.88,0,0,1,2.73,1,2.89,2.89,0,0,1,.64,1Z"/><path class="cls-4" d="M108.33,31c.13,1.8-.23,3.58-.26,5.37,0,.57,0,1.1.49,1.47a1.68,1.68,0,0,0-.39,1.08c0,1.48-.13,3-.18,4.43a1.54,1.54,0,0,0,.16.94.48.48,0,0,1-.23.62.78.78,0,0,1-.21.09c-.76.21-.87.14-.87-.63a27.61,27.61,0,0,1,.15-4c.16-1.15-.13-2.34,0-3.47.18-1.72,0-3.45.33-5.14.18-1,.15-1.93.4-2.89a11,11,0,0,1,1.27-2.7,10.39,10.39,0,0,0,1.52-4.72,35.4,35.4,0,0,0-.07-5.15c-.17-1.63-1.5-3.05-3.62-2-2.48,1.24-5,2.49-7.33,3.92S95,21,92.81,22.56s-4.54,3.09-6.72,4.75c-1.25,1-2.51,1.92-3.69,3-.54.48-.83,1.17-1.41,1.63-.36.28-.22.83-.4,1.24a11.41,11.41,0,0,0-1,4.47A20.08,20.08,0,0,0,80,43a1,1,0,0,0,.9.83,2.88,2.88,0,0,1,2.06,2.45c.17,2.92.26,5.85.39,8.77.09,2,.25,4.08.28,6.13,0,1.78.2,3.56.22,5.35a1.88,1.88,0,0,1-.47,1.34,1.12,1.12,0,0,1-.41.4c-.16,0-.31.11-.4-.1-.14-3.09-.32-6.17-.46-9.26-.11-2.55-.2-5.11-.37-7.66-.09-1.34-.08-2.69-.19-4a2.35,2.35,0,0,0-1.61-2.36c-1.08-.36-1.17-1.37-1.37-2.26-.58-2.58-.25-5.18-.06-7.77a13.84,13.84,0,0,1,1-3.17,11.85,11.85,0,0,1,2.3-3.62,27,27,0,0,1,3.71-2.93c1.57-1.2,3.23-2.26,4.83-3.44,1-.74,2.08-1.39,3.15-2.05q2.07-1.29,4.18-2.52,3.84-2.25,7.89-4.13c.55-.25,1.06-.57,1.64-.77a4.32,4.32,0,0,1,.43-.22.49.49,0,0,1,.37.07h0a4.33,4.33,0,0,1,2.23,1.18,4.85,4.85,0,0,1,1,2.67c.12,1.74,0,3.48,0,5.22a14.67,14.67,0,0,1-.68,3.95c-.12.36-.47.63-.51,1.05a16.84,16.84,0,0,0-1.27,2.28A6.67,6.67,0,0,0,108.33,31Z"/><path class="cls-5" d="M136.14,91.45a4,4,0,0,0-3.43-1.78,10.43,10.43,0,0,1-2.62-.13,24,24,0,0,0-3.68-.24,2.8,2.8,0,0,0-2.3,2.12,3.23,3.23,0,0,0-.74,1.83,1.23,1.23,0,0,1-.08.33c-.9,2.09-.76,4.31-.88,6.5a2.52,2.52,0,0,0,.22,1.08,8.2,8.2,0,0,0,1.54,4.59,2.52,2.52,0,0,0,2.3,1c1.94,0,3.86-.37,5.79-.46,1.38.31,2.29-.62,3.29-1.28l-.2,1.4c-1.1,0-2.13.38-3.22.46-1.25.08-2.47.42-3.73.44-.78,0-1.56.2-2.36.16a3.18,3.18,0,0,1-2.33-1.21,9.67,9.67,0,0,1-1.78-4.27,7.08,7.08,0,0,1-.17-2.63c.13-1.11,0-2.22.1-3.34s.53-2.16.78-3.23A7,7,0,0,1,124,90.07a3.65,3.65,0,0,1,3.38-1.57c2.26.22,4.51.49,6.75.92a6.29,6.29,0,0,1,1.93.94c0,.21,0,.41.05.62Z"/><path class="cls-6" d="M102.45,129.86l1-.67a2.13,2.13,0,0,0,1.27-.78h0l5.78-3.81c.54-.33,1-.72,1.59-1l3.19-2,2.71-1.76c.32-.23.67-.42,1-.64,1.75-1.19,3.51-2.35,5.32-3.44a3.24,3.24,0,0,1,.89-.62l1.68-1.09c1.32-.85,2.65-1.68,3.94-2.57a27.28,27.28,0,0,0,2.44-1.7,8.6,8.6,0,0,0,2.09-3.29.7.7,0,0,0-1-.1.91.91,0,0,1-.59.17,20.51,20.51,0,0,0-2.94.34,30.47,30.47,0,0,1-4.85.44,2.79,2.79,0,0,1-2-1.11,8.57,8.57,0,0,1-1.7-4,5.75,5.75,0,0,1-.26-2.12,21.2,21.2,0,0,0,.1-2.65,9.76,9.76,0,0,1,.75-4.24c.06-.15.18-.31.17-.45a4.23,4.23,0,0,1,1.4-2.79,3.26,3.26,0,0,1,2.58-1.28c1.79,0,3.52.47,5.3.6a5.37,5.37,0,0,1,3.43,1.12c.13.12.26,0,.39,0l.75-16.67q.19-4.36.38-8.72c0-.18.1-.4-.09-.52s-.33.1-.49.16a19.38,19.38,0,0,0-2.32,1.63,46.81,46.81,0,0,0-4.61,3.08,35.23,35.23,0,0,1-4.19,3.21,4.57,4.57,0,0,0-1.54,1.17,5.45,5.45,0,0,1-1.74,1.57,6.82,6.82,0,0,0-1.29,1,17.57,17.57,0,0,1-2.2,2,13.83,13.83,0,0,0-2,1.46c-1.73,1.62-3.45,3.25-5.11,4.94-1.18,1.21-2.34,2.45-3.61,3.57a1.44,1.44,0,0,0-.22.27,45.81,45.81,0,0,1-3.27,4c-1.14,1.42-2.45,2.72-3.6,4.14a69.32,69.32,0,0,0-4.37,5.84c-.9,1.41-2.3,2.49-2.83,4.16,0,.07-.09.11-.12.17-.9,1.48-2.18,2.66-3.06,4.19s-2,2.9-2.84,4.51c-1.36,2.68-2.93,5.25-4.24,8-1,2-2.05,4-3.09,6.06-1.39,2.69-2.45,5.51-3.67,8.26-1.08,2.43-1.65,5.07-3,7.37a1,1,0,0,0-.1.4,6,6,0,0,1-.29,1.57c-.15.62.06,1,.74,1.15a9.82,9.82,0,0,0,1.72-1.06A3.34,3.34,0,0,0,77,146.5h0l1.43-.93,1.12-.65h0l.62-.53a2.47,2.47,0,0,0,1-.52h0l.46-.41a4.92,4.92,0,0,0,1.59-1h0l5.47-3.55c.41-.32.93-.54,1.41-.91l11.26-7.35"/><path class="cls-6" d="M124.31,115.68a1,1,0,0,1,.89-.62A2.21,2.21,0,0,1,124.31,115.68Z"/><path class="cls-7" d="M84,87.09a12.49,12.49,0,0,0-2,2.67c-.86,1.27-1.59,2.64-2.41,3.95s-1.28,2.59-2,3.88a1.2,1.2,0,0,1-1.87.51,1.89,1.89,0,0,0-1.13-.49,6.33,6.33,0,0,1-2.38-.72,7.62,7.62,0,0,0-1.94-.52,12.19,12.19,0,0,1-3.15-1.06,28.49,28.49,0,0,0-5.61-1.5,2.42,2.42,0,0,1-.59-.2,6.27,6.27,0,0,0-2.43-.79c-.81,0-1.41-.64-2.19-.83a20.28,20.28,0,0,1-2.63-.58c-.41-.15-.89.18-1.37.12-.25,0-.14.39-.28.59-.26-.4.32-1.06-.43-1.27-.44-.17-.67-.6-1.06-.83a1.16,1.16,0,0,0-1-.35,11.05,11.05,0,0,1-1.81-.52c-.7.3-1.31-.17-1.94-.29A30.69,30.69,0,0,1,42,87.55a11.56,11.56,0,0,0-3.49-.78c-.32,0-.58,0-.64.41s-.42.51-.68.16c-1.25-1.69-3.19-2-5-2.57A37.68,37.68,0,0,1,28,83.2a2.62,2.62,0,0,0-1.19-.3A3,3,0,0,1,25,82.4c-.42-.29-.94.1-1.4-.09,0,0-.16.13-.16.2-.06,1-.88,1.65-1.1,2.6-.1.42-.11.85-.17,1.27s.36.39.66.4c1.73.08,3.47.06,5.19.26a5.7,5.7,0,0,1,3.08.91c.42.33.51.62.14,1a1.5,1.5,0,0,0-.4.55c-.12.41-.16.84.43,1a.74.74,0,0,1,.57.9.54.54,0,0,1-.89.45,3.9,3.9,0,0,0-2.07-.56,4.67,4.67,0,0,1-2.56-.75A1.86,1.86,0,0,0,24.46,90c-.21.08-.41-.06-.59-.16-.56-.3-.92-.92-1.65-1-.22,0-.23-.34-.26-.53-.09-.66-.31-.64-.67-.17a.79.79,0,0,1-.23.16.45.45,0,0,1,0-.46c.51-1.18.5-2.53,1.19-3.65.13-.22,0-.5.17-.73a.57.57,0,0,0,0-.13,15.26,15.26,0,0,0,.93-2.06c.89-1.62,1.81-3.22,2.63-4.87a17.28,17.28,0,0,1,1.89-2.73c.93-1.24,1.63-2.63,2.61-3.83,1.34-1.65,2.63-3.33,3.94-5,.14.8.68,1,1.43,1.14a19.72,19.72,0,0,1,3.66,1.09c3.54,1.19,7.1,2.36,10.68,3.42.74.22,1.5.36,2.24.54a7.49,7.49,0,0,1,2.38.94,11.7,11.7,0,0,0,2.49.89c1.7.55,3.32,1.34,5.06,1.74a87.15,87.15,0,0,1,9.54,3,14.75,14.75,0,0,1,1.5.71c.82.3,1.72.24,2.54.6a28.36,28.36,0,0,0,3.56,1.36c2,.56,3.88,1.18,5.82,1.8a5.43,5.43,0,0,1,1.28.68c.33.23.1.53-.07.72-.9,1-1.56,2.22-2.37,3.3A1,1,0,0,0,84,87.09Z"/><path class="cls-8" d="M22.38,83.54A2.55,2.55,0,0,1,22,84.9a5.88,5.88,0,0,0-.6,2.25c-.05.45-.46.76-.36,1.23a42.19,42.19,0,0,0-1.42,6c-.35,2-.87,4.07-1.1,6.14-.26,2.48-.67,5-1,7.42-.14,1.08-.22,2.18-.28,3.26-.24,4.18-.45,8.36-.55,12.55a36.23,36.23,0,0,0,.1,5.41,7.86,7.86,0,0,0,2.28,4.77,3.68,3.68,0,0,1,.34.44,5.7,5.7,0,0,1-2.08-2.53,9.68,9.68,0,0,1-.86-4c-.14-2.19.18-4.36.13-6.54a58.44,58.44,0,0,1,.17-5.92c.16-2.13.18-4.27.43-6.39.28-2.36.61-4.72.91-7.08.27-2.18.72-4.32,1.06-6.49.24-1.46.6-2.9.93-4.34a6.58,6.58,0,0,0,.13-.89c.38-1.27.81-2.54,1.12-3.83A14.3,14.3,0,0,1,22.38,83.54Z"/><path class="cls-9" d="M23.32,81.35a4.08,4.08,0,0,1-.93,2.06A7.37,7.37,0,0,1,23.32,81.35Z"/><path class="cls-10" d="M72.8,5.35a18.36,18.36,0,0,0,2.8-1.5,5.41,5.41,0,0,1,2.91-.75,27.24,27.24,0,0,1,6.54.81.86.86,0,0,0,.28,0l1,.07.14.15c.23.5-.2.61-.49.75-1.58.73-3,1.72-4.57,2.49-.13.06-.23.16-.35.23-2.36,1.31-4.65,2.72-6.9,4.2-3.93,2.59-7.63,5.47-11.36,8.31a9.83,9.83,0,0,0-1.63,1.53,2.58,2.58,0,0,1-.77.7,8.18,8.18,0,0,1-2.61-.29A25.84,25.84,0,0,0,55,21.84a9.54,9.54,0,0,1-2.13-.32c-.59-.15-.68-.32-.35-.84a2.83,2.83,0,0,0,.2-.28l.12-.15c.46-.39.88-.83,1.33-1.22l1.5-1.41a7.47,7.47,0,0,0,1.74-1.32,135.13,135.13,0,0,1,12.2-9C70.64,6.64,71.73,6,72.8,5.35Z"/><path class="cls-11" d="M53.08,40.59A2.81,2.81,0,0,0,52,38.24c-.12-.07-.23-.21-.34-.21-1-.05-1.37-.86-1.5-1.6-.66-3.67-1-7.35,0-11a.87.87,0,0,1,.09-.11,2.56,2.56,0,0,1,0,2.15A4.72,4.72,0,0,0,50,30.5a4.83,4.83,0,0,1,.17,1.64,10.88,10.88,0,0,0,.46,4.39,1.42,1.42,0,0,0,1.22,1.17,1.57,1.57,0,0,1,1.18.78.6.6,0,0,0,.87.3,2,2,0,0,1,2.4.17c.3.24,1.18-.24,1.35-.67.06-.15.05-.33.17-.45a.3.3,0,0,1,.31.1A4.36,4.36,0,0,0,59.5,39c.87.41.91,1.3,1,2.15.16,1.39,0,2.79.07,4.18.15,2-.09,4,.09,6s-.1,4.09,0,6.13A1.71,1.71,0,0,1,60,59.23a1.14,1.14,0,0,0-.52,1.08,3.2,3.2,0,0,1,0,.62c-.17.79-.73,1-1.39.59a6.42,6.42,0,0,1-1.1-1.17,2.6,2.6,0,0,0-1-.79c-.64-.2-1,.13-.91.78a1.24,1.24,0,0,0,.36.82c.75.59,1.27,1.42,2,2a4.19,4.19,0,0,1,.74.83.61.61,0,0,1-.22,1,.68.68,0,0,1-1-.14,2.92,2.92,0,0,1-.33-.69c-.12-.3-.23-.67-.66-.57s-.39.4-.41.72c0,.83-.26,1-1.15,1-.21-.06-.51,0-.55-.31.66-.13.73-.56.75-1.18.05-1.75-.27-3.47-.35-5.21a4.27,4.27,0,0,0-.25-.79,2.48,2.48,0,0,0,.21-1.87,32.28,32.28,0,0,1-.33-3.67c-.12-2-.26-3.92-.47-5.88a16.06,16.06,0,0,1-.06-2.5A25,25,0,0,0,53.08,40.59Z"/><path class="cls-12" d="M57.81,37.83c0,.28.12.72,0,.79a8.91,8.91,0,0,0-1.21.74c-.13.1-.32-.06-.42-.18a1.63,1.63,0,0,0-2.26-.2c-.55.29-.83.17-1.06-.38a1.26,1.26,0,0,0-1.18-.74,1.26,1.26,0,0,1-1.21-1.06A11.44,11.44,0,0,1,50,32a4.7,4.7,0,0,0-.16-1.48,4.41,4.41,0,0,1,.27-3.2,4.52,4.52,0,0,0,.18-2.06,12.14,12.14,0,0,1,2.46-4.9c0,.24-.22.35-.27.55s-.1.37.15.37c.89,0,1.73.36,2.63.33a19.75,19.75,0,0,1,4.65.59,1,1,0,0,0,.6-.09c.17.3-.06.47-.21.65a7.47,7.47,0,0,0-1.34,2.5,8.21,8.21,0,0,1-.51,1.27,2.14,2.14,0,0,0-.4,1.51,1.72,1.72,0,0,1-.09.44,6.2,6.2,0,0,0-.41,3.1,8.79,8.79,0,0,0,0,2.29,4.71,4.71,0,0,0,.15,1.63C57.59,36.31,57.83,37.06,57.81,37.83Z"/><path class="cls-13" d="M53.79,49.06c.18,1.77.24,3.55.36,5.33A16.77,16.77,0,0,1,54.33,57a1.07,1.07,0,0,1-.34.8c0,.27-.2.41-.35.57L51.19,61a3.1,3.1,0,0,0-.75,1.16A1.41,1.41,0,0,0,51.28,64a8.91,8.91,0,0,0,1.51.5,1.65,1.65,0,0,1,1,.48c.16.15.36.11.55.15a3.68,3.68,0,0,0,1.44-.06,6.5,6.5,0,0,1,1.59,0c.41.08.69-.22,1-.37a5.66,5.66,0,0,0,2.3-1.52,11.33,11.33,0,0,1,1.11-1.19,36.79,36.79,0,0,0,2.92-3.07c1.25-1.32,2.65-2.49,3.8-3.88s2.43-2.36,3.63-3.56c.34-.33.61-.7.94-1,.7-.71,1.1-.65,1.63.2.34,1.63.45,3.3.63,5,.22,2,.41,4,.67,5.94a2.25,2.25,0,0,1-.1,1.23c-.12.26-.38.4-.55.63a3.64,3.64,0,0,1-.34.34c-.33.27-.61.61-.95.87a.12.12,0,0,1-.15-.06c.17-.74.87-1,1.31-1.57a1.31,1.31,0,0,0,.31-1.34,6.3,6.3,0,0,1-.24-1.91,24.89,24.89,0,0,0-.28-2.52c-.32-1.41-.13-2.85-.5-4.25a14.62,14.62,0,0,0-.29-2.24c-.15-.36-.32-.46-.57-.12-1,1.45-2.56,2.43-3.77,3.71-1.81,1.91-3.69,3.77-5.54,5.65-1.58,1.61-2.93,3.48-4.89,4.71a5.53,5.53,0,0,1-2.84.84,6.81,6.81,0,0,1-2.34,0c-1.07-.32-2.15-.6-3.21-.91a2.08,2.08,0,0,1-.83-3.11c.66-.85,1.45-1.61,2.19-2.41.48-.53,1-1.07,1.45-1.59a1,1,0,0,0,.16-1.16,4.56,4.56,0,0,1-.25-1.42c-.19-1.87-.12-3.77-.39-5.64a5.82,5.82,0,0,1-.08-1.1c.06-1-.39-2-.21-3"/><path class="cls-12" d="M54.14,19a3.33,3.33,0,0,1-1.33,1.22A4,4,0,0,1,54.14,19Z"/><path class="cls-14" d="M97,10.76a27.51,27.51,0,0,1,6.78.44c1.27.2,2.51.58,3.77.87,0,.19-.11.25-.27.25a9.17,9.17,0,0,0-2.09.88,41,41,0,0,0-4,2C98.72,16.51,96.35,18,94,19.44c-3.74,2.32-7.32,4.88-10.84,7.52A13.56,13.56,0,0,0,81.93,28c-.2.21-.31.49-.57.65a1.42,1.42,0,0,1-.88.14,54.92,54.92,0,0,1-6-.89,5.71,5.71,0,0,0-.83-.11c-.3,0-.62-.06-.74-.41a.83.83,0,0,1,.24-.83c.36-.42.82-.75,1.2-1.17a2.4,2.4,0,0,1,.73-.61,5.17,5.17,0,0,0,1.74-1.22c1.34-1,2.67-2.06,4-3a2.79,2.79,0,0,0,.5-.47.66.66,0,0,1,.24-.17,5,5,0,0,0,1.8-1.2,3.93,3.93,0,0,1,1.15-.87c1.57-1.12,3.17-2.2,4.84-3.17.5-.3.93-.75,1.59-.67a39.25,39.25,0,0,1,3.81-2.11C95.55,11.49,96.3,11.13,97,10.76Z"/><path class="cls-15" d="M81.66,20l-.14.13a.21.21,0,0,1-.3,0c0-.5.45-.69.79-.91,2.26-1.42,4.39-3.05,6.69-4.4a1.35,1.35,0,0,0,.81-1.59,5.07,5.07,0,0,1,.17-1.44c0-1,.1-2,.09-2.93a4.39,4.39,0,0,0-1-2.34.86.86,0,0,0-.69-.29A3.29,3.29,0,0,0,85.56,7a3.71,3.71,0,0,1-.82.53,91,91,0,0,0-11.13,6.91c-2.74,1.95-5.48,3.93-8.08,6.09a43.2,43.2,0,0,0-3.84,3.33,11,11,0,0,0-2.52,4.86,20,20,0,0,0-.39,7.19c0,.26.1.51.14.76a1.34,1.34,0,0,0,1,1.17,2,2,0,0,1,1.4,1.39c.6,1.4.38,2.85.42,4.27.05,2.39.11,4.79.1,7.18,0,1.8,0,3.61.08,5.42s0,3.48.12,5.22a1,1,0,0,1-.17.79l-1,1.08a1.17,1.17,0,0,1-.26-.84c-.07-1.07-.07-2.14-.08-3.2s0-1.85.08-2.77c.16-2.44-.06-4.87-.07-7.31,0-1.21.06-2.42,0-3.62-.1-1.51,0-3-.09-4.52a2,2,0,0,0-1.56-2.13A1.53,1.53,0,0,1,58,37.69a5.94,5.94,0,0,1-.34-1.47,32.88,32.88,0,0,1-.12-4.86,15.31,15.31,0,0,1,1.39-6c.13-.27.22-.56.33-.84A12,12,0,0,1,62.89,20c1.18-.94,2.38-1.85,3.58-2.77,3.2-2.45,6.52-4.75,9.91-6.94,1.54-1,3.15-1.86,4.71-2.81,1.76-.93,3.42-2,5.26-2.81.23-.09.45-.24.69-.32s.43,0,.63.11c1.74,0,2.6,1.45,2.78,3.45a43.39,43.39,0,0,1-.09,5.35c0,.5.12.76.65.72a17,17,0,0,0-2.65,1.53c-1.53.78-2.77,2-4.29,2.78a2.42,2.42,0,0,0-.53.53C82.92,19.22,82.32,19.66,81.66,20Z"/><path class="cls-16" d="M109.68,38.14l1,.38A1.72,1.72,0,0,1,112.06,40a2,2,0,0,1-.88,1.91c-1,.81-2.07,1.64-3,2.55-.33-.09-.4-.32-.38-.64.08-1.79.16-3.58.23-5.37,0-.38.13-.63.57-.59A1.79,1.79,0,0,0,109.68,38.14Z"/><path class="cls-17" d="M61.12,67.63A10.5,10.5,0,0,1,63.44,66c1-.39,1.64-1,1.48-2.12a.94.94,0,0,1,.16-.59c.35,0,.56.07.46.54s.31.68.14,1.07a2,2,0,0,1-.21.44c-.18.21-.71.31-.3.72a.82.82,0,0,0,1.09.07c.6-.5,1.38-.92,1.18-2a2.43,2.43,0,0,1,.2-.83,2.52,2.52,0,0,1-.71,2.91.94.94,0,0,1-.56.26,2,2,0,0,0-1.1.37c-.19.13-.42.15-.46-.16-.09-.66-.62-.62-1-.53a2.34,2.34,0,0,0-1.2,1c-.19.23.09.37.29.44a2.14,2.14,0,0,0,1.25,0c-.26.26-.34.74-.89.56-.24-.09-.32.1-.45.23s-.34.41-.63.37-.36.09-.42-.12.09-.26.24-.29.43-.25.35-.5-.31-.1-.48-.11S61.37,67.67,61.12,67.63Z"/><path class="cls-17" d="M58.78,73.26a14.88,14.88,0,0,1-2.88-1.05c.61-.59,1.23-.06,1.81-.12a2.31,2.31,0,0,0,1.45.35.52.52,0,0,1,.35,0c1.55,1.07,3.38,1.35,5.14,1.86a2.14,2.14,0,0,1,.27.06c.15.11.48.12.38.39s-.32,0-.49,0a28.74,28.74,0,0,1-5.55-1.47A2.52,2.52,0,0,0,58.78,73.26Z"/><path class="cls-17" d="M60.4,70.34a6.86,6.86,0,0,0,2.06,1.21c.16,0,.27.57-.05.85a.56.56,0,0,1-.87-.07,2.07,2.07,0,0,0-1.42-.82c-.35-.08-.61-.29-.51-.69S60,70.34,60.4,70.34Z"/><path class="cls-13" d="M97.32,55.37A7.83,7.83,0,0,1,99.94,53c-.06.44-.12.89-.19,1.33-.15,1-.68,1.32-1.63,1.05A2.13,2.13,0,0,0,97.32,55.37Z"/><path class="cls-13" d="M77.28,72.25c.57-.37,1,.21,1.53.21a1.1,1.1,0,0,1-1.24.34C77.28,72.75,77.26,72.49,77.28,72.25Z"/><path class="cls-13" d="M94.69,57.77c0-.61.17-1.06.89-1.08A1.05,1.05,0,0,1,94.69,57.77Z"/><path class="cls-17" d="M100.09,52.7l.88-.8C101,52.47,100.55,52.61,100.09,52.7Z"/><path class="cls-17" d="M103,50.17c.24-.23.29-.66.73-.67C103.55,49.8,103.43,50.15,103,50.17Z"/><path class="cls-18" d="M132.26,106.29a24.66,24.66,0,0,1-5,.59,8.41,8.41,0,0,1-1.51.06c-1.64-.25-2.14-1.58-2.71-2.79a11.46,11.46,0,0,1-.62-2.19.91.91,0,0,1,.15-.73A25,25,0,0,1,126,101a8.38,8.38,0,0,0,1.66,0c.48-.06.64-.29.59-.75a17.79,17.79,0,0,1,.4-5.59,13.3,13.3,0,0,1,.46-1.39.54.54,0,0,1,.49-.43.34.34,0,0,1,0,.45,2.94,2.94,0,0,0-.59,1.6,23.14,23.14,0,0,0-.22,5.94A8.06,8.06,0,0,0,131,105.7,1.53,1.53,0,0,0,132.26,106.29Z"/><path class="cls-19" d="M129.64,93.29v-.43c-.2-.6-.63-.75-1.23-.87a21.65,21.65,0,0,0-3.59-.38,1.12,1.12,0,0,1-.84-.25,2.88,2.88,0,0,1,2.4-2.28,47.91,47.91,0,0,1,6.32.59c-1.61.47-2.3,1.78-2.89,3.19C129.76,93,129.8,93.19,129.64,93.29Z"/><path class="cls-20" d="M107.7,44.79a19.48,19.48,0,0,1-3.75,2.9c-.27,0-.41-.28-.59-.45-.33-.33-.69-.51-1.08-.15s-.23.74,0,1.13c.11.23.48.32.39.67a2.7,2.7,0,0,1-1.32,1.2l-.13,0c-1.12-.45-1.41-.29-1.54.9a1,1,0,0,1-.47.87,1,1,0,0,0-.48.65,1.44,1.44,0,0,1-.66.79c-.72.4-1.17,1.12-2,1.5S94.9,56,94.28,56.67a20.29,20.29,0,0,1-2.88,2.68,3.56,3.56,0,0,0-.78.77c-1.32,1.62-3,2.92-4.29,4.54-.57.69-1.3,1.25-1.92,1.91-.4.44-.6,1.07-1.2,1.32a2.79,2.79,0,0,0,.39-1.8c0-2.71-.31-5.4-.35-8.11,0-2.5-.32-5-.3-7.49,0-1.47-.16-3-.21-4.43a2.54,2.54,0,0,0-2.07-2c-.53,0-.72-.34-.84-.77a21.26,21.26,0,0,1-.41-4.06A17.8,17.8,0,0,1,79.77,35a9.42,9.42,0,0,1,.6-1.84,2.1,2.1,0,0,0,.2-.8.71.71,0,0,1,.18-.59,44.73,44.73,0,0,1,3.64-3.35c1.14-.84,2.31-1.68,3.41-2.58,1.28-1.05,2.67-1.92,4-2.84,1.52-1,3-2.07,4.57-3.05a96.14,96.14,0,0,1,9.49-5.35,14.61,14.61,0,0,1,1.38-.67c1.87-.68,3.11.56,3.34,2.16a26.92,26.92,0,0,1,.11,5,10.14,10.14,0,0,1-1.67,5.3A9.3,9.3,0,0,0,107.58,31c-.07,1.32-.24,2.64-.27,4a35.89,35.89,0,0,0-.08,4.28,7,7,0,0,1-.14,1.93,20.56,20.56,0,0,0,0,3.51C107,45.41,107.5,44.6,107.7,44.79Z"/><path class="cls-21" d="M81.43,28.52c.13-.2.19-.45.45-.54.05-.05.1-.05.14,0a6.3,6.3,0,0,1-1.28,1.79,18.86,18.86,0,0,0-1.76,4c-.59,1.37-.32,2.84-.48,4.26a15,15,0,0,0,.24,4.63c.19,1,.42,1.92,1.66,2.22a1.91,1.91,0,0,1,1.3,2c.07,1.08.16,2.17.21,3.25.1,2.38.1,4.76.32,7.14.13,1.31.09,2.63.15,4,.08,1.66.11,3.32.28,5a5.46,5.46,0,0,1,0,2.13,4.28,4.28,0,0,1-1.55,1.61,7.86,7.86,0,0,1-4.2,1.44.26.26,0,0,1-.29-.15,3.66,3.66,0,0,0,0-1.77,34.76,34.76,0,0,0-.54-4.31c-.14-.53,0-1.1-.12-1.65a1.63,1.63,0,0,0-.19-.65,3.12,3.12,0,0,0,0-2c-.38-2.63-.58-5.27-.88-7.91-.09-.82-.21-1.64-.31-2.47a2,2,0,0,1-.33-1.05,20.23,20.23,0,0,0-.4-3.1,2.4,2.4,0,0,0-1.62-2.15,2.56,2.56,0,0,1-1.61-2,12.81,12.81,0,0,1-.49-3.5c0-1.34-.36-2.67-.24-4,0-.56.2-1.09.26-1.65,0-.17.07-.37.33-.36a1.08,1.08,0,0,1,.14.87,25.33,25.33,0,0,0,.16,5A20.9,20.9,0,0,0,71,40.73a7.06,7.06,0,0,0,.89,2.18c0,.06.06.14.12.17a12.43,12.43,0,0,0,2.64,1.3,12.39,12.39,0,0,0,3,.11c.94,0,1.07-.21.83-1.12a10.44,10.44,0,0,1-.35-3.73c.12-1.13-.28-2.25-.13-3.4a16.28,16.28,0,0,1,2.55-7A3.23,3.23,0,0,1,81.43,28.52Z"/><path class="cls-22" d="M82,28h-.14a15.57,15.57,0,0,1,2.93-2.44c2-1.48,4.08-3,6.19-4.34s4.19-2.68,6.35-3.94c1.89-1.1,3.83-2.11,5.71-3.21.77-.45,1.64-.73,2.46-1.11.58-.27,1.09-.72,1.8-.62-2.08,1.06-4.18,2.06-6.24,3.14-2.41,1.27-4.71,2.7-7,4.1-2.74,1.65-5.3,3.54-7.91,5.37C84.74,25.91,83.38,26.94,82,28Z"/><path class="cls-23" d="M76.63,71.22a8.46,8.46,0,0,0,4.05-1.17,11.25,11.25,0,0,0,1.95-1.76l.29-.12a7,7,0,0,1-2.51,2.34,4.46,4.46,0,0,1-2,.71,5.73,5.73,0,0,1-2.32.26,22.59,22.59,0,0,1-4.48-1.32A2.05,2.05,0,0,1,71,67.61a14.58,14.58,0,0,1,2-2.27c.31-.26.47-.71.91-.82l0,0a.5.5,0,0,1-.12.48c-.7.8-1.43,1.58-2.12,2.39A1.51,1.51,0,0,0,72.4,70c.41.15.84.26,1.24.44a8.29,8.29,0,0,0,2,.48l.21,0C76.1,71.08,76.42,71,76.63,71.22Z"/><path class="cls-24" d="M124,91.36a33.16,33.16,0,0,1,5.17.5c.74.11.46.61.49,1a2.58,2.58,0,0,0-.72,1.66,16.3,16.3,0,0,0-.51,3.63,15,15,0,0,0,.1,2.41c.08.42-.12.6-.45.61a9.55,9.55,0,0,1-1.52.1,10.27,10.27,0,0,0-3,.12,2.05,2.05,0,0,1-1-.16,1,1,0,0,1-.37-1l.18-4.16a5.6,5.6,0,0,1,.35-1.41,8,8,0,0,0,.5-1.93A2,2,0,0,1,124,91.36Z"/><path class="cls-25" d="M46.9,117.62q-.18,3.38-.5,6.73c-.15,1.65-.08,3.34-.17,5-.07,1.37,0,2.73,0,4.1a2.28,2.28,0,0,1-3,2.12c-.49-.17-1-.26-1.48-.39a2.18,2.18,0,0,1-1.7-2.21c0-2.68.07-5.35.23-8,.18-3,.43-5.93.68-8.88.05-.58.22-1.14.32-1.71,0-.23,0-.43-.3-.51a44.91,44.91,0,0,1-5-2.05c-2-.77-3.73-1.87-5.59-2.8-.53-.27-1.23-.5-1.35-1.27a.25.25,0,0,1,.2-.06,43.29,43.29,0,0,0,7.25,3.83c1.41.61,2.82,1.2,4.24,1.76.63.25,1,.6.93,1.34-.22,2.8-.56,5.59-.74,8.4s-.39,5.57-.3,8.36c0,.44,0,.88,0,1.33,0,1.21.27,1.64,1.41,2a4.68,4.68,0,0,1,.53.17,3.45,3.45,0,0,0,2.24.2,1.43,1.43,0,0,0,.91-.93,34.15,34.15,0,0,0,.13-4.41,13.39,13.39,0,0,1,0-1.55l.21-4.91a2.36,2.36,0,0,1,.08-.65,15.9,15.9,0,0,0,.21-2.66c0-.34,0-.69.08-1a3.16,3.16,0,0,0,.16-.8C46.58,117.9,46.57,117.63,46.9,117.62Z"/><path class="cls-26" d="M46.9,117.62c-.36.35,0,.9-.33,1.25a1.38,1.38,0,0,1-.1-1.25,8,8,0,0,0,.15-1.37,1.3,1.3,0,0,1,.14-.61c.29-.43.7-.38,1.12-.28,1.66.38,3.33.67,5,1,1.4.23,2.82.28,4.23.44.68.07,1.36.38,2.05,0,1.64-.77,2.16-3.25,1.48-4.78a2.8,2.8,0,0,0-1.36-1.13,55.69,55.69,0,0,0-6.16-3.25,37.78,37.78,0,0,0-3.81-1.52c-1.08-.37-1.13-.41-1-1.52,0-.14,0-.28,0-.42.56-3.25,1.39-6.44,2.23-9.62.08-.28.1-.61.48-.68.19.42-.11.76-.18,1.14-.31,1.24-.64,2.48-.92,3.74s-.56,2.62-.81,3.93a10.09,10.09,0,0,0-.4,2.18c0,.33.07.51.39.63,1.25.48,2.47,1,3.72,1.48a31.4,31.4,0,0,1,3.36,1.61c1.36.7,2.64,1.58,4,2.3a2.12,2.12,0,0,1,1.09,1.44c.42,1.68-.13,4-1.85,4.87a2.93,2.93,0,0,1-1.77.18c-1.82-.2-3.64-.36-5.44-.66a30.47,30.47,0,0,1-4.35-.88c-.46-.15-.71-.21-.78.42C47,116.7,46.93,117.16,46.9,117.62Z"/><path class="cls-27" d="M26.11,126.89c1.71.39,3.33,1,3.92,2.87a2.62,2.62,0,0,1-.54,2.67,4,4,0,0,1-4.08,1.09,4.48,4.48,0,0,1-2.88-1.45,3.18,3.18,0,0,1-.75-2.71,2.52,2.52,0,0,1,1.4-1.66A4.23,4.23,0,0,1,26.11,126.89Z"/><path class="cls-28" d="M61.32,143.85a4.61,4.61,0,0,1-3.46-1.36c-1.56-1.42-1.26-3.63.53-4.89,1.2-.86,2.51-.65,3.8-.51a4.84,4.84,0,0,1,3.16,2.08,3.12,3.12,0,0,1-.75,4A5,5,0,0,1,61.32,143.85Z"/><path class="cls-29" d="M29.17,107.75H29c-.88-1.85.1-3.17,1.26-4.44a2.18,2.18,0,0,1,1.89-.75,76.3,76.3,0,0,1,10,1.12.69.69,0,0,0,.86-.75,24.81,24.81,0,0,1,.66-3.54,36.63,36.63,0,0,1,1.06-4c.24-.84.49-1.67.72-2.51a1.6,1.6,0,0,1,.42-.93.34.34,0,0,1,.15.18A4.51,4.51,0,0,1,45.63,94c-.91,3.11-1.61,6.27-2.3,9.43-.28.81-.42,1-1.27.79-2.45-.47-4.93-.66-7.39-1-1-.12-2-.12-2.93-.16a1,1,0,0,0-.65.2,4,4,0,0,0-1.8,3.71C29.32,107.23,29.39,107.52,29.17,107.75Z"/><path class="cls-30" d="M51.25,95.58a.7.7,0,0,1-.09-.71C51.36,95.13,51.36,95.13,51.25,95.58Z"/><path class="cls-31" d="M102.64,48.89c-.27-.36-.72-.57-.77-1.1a.9.9,0,0,1,.38-1,.83.83,0,0,1,1.08.12c.21.24.41.49.62.74C103.73,48.33,103.14,48.56,102.64,48.89Z"/><path class="cls-32" d="M98.7,52.49a.47.47,0,0,1,.19-.71c.6-.17.57-.61.6-1.07s.1-.9.56-1a1,1,0,0,1,1.27.41.6.6,0,0,1-.27.46Z"/><path class="cls-33" d="M63.9,61.74c.24,0,.45,0,.54.3l-.06.12c-.15.19-.24.6-.56.4S63.61,62,63.9,61.74Z"/><path class="cls-11" d="M81.1,7.54a29.66,29.66,0,0,1-2.7,1.67c-2.34,1.45-4.64,2.95-6.91,4.52-3,2.11-6,4.37-8.88,6.66a12.21,12.21,0,0,0-3.22,3.95c-.25.29,0,.88-.61.95a1.72,1.72,0,0,1,.19-.73,15.33,15.33,0,0,1,1.49-2.41,28.44,28.44,0,0,1,4.9-4.26c2-1.57,4.07-3,6.07-4.49,1.21-.93,2.54-1.69,3.8-2.55,1.68-1.15,3.48-2.08,5.21-3.15A2.65,2.65,0,0,1,81,7.52C81,7.47,81.06,7.47,81.1,7.54Z"/><path class="cls-12" d="M81.1,7.54l-.14,0a16.16,16.16,0,0,1,2.33-1.4c.92-.56,1.88-1,2.84-1.51.26-.13.26-.27.16-.49l.68.32c0,.11-.06.22-.19.25-1.54.37-2.75,1.39-4.14,2.05C82.12,7,81.62,7.27,81.1,7.54Z"/><path class="cls-34" d="M58.78,25.29c.43-.17.29-.7.61-.95A3.17,3.17,0,0,1,58.81,26a14.15,14.15,0,0,0-1.1,4.83,30.26,30.26,0,0,0,0,5.55,3.84,3.84,0,0,0,.53,1.77,1.07,1.07,0,0,0,.64.49,2.1,2.1,0,0,1,1.68,2.17c-.17,2,.12,3.89.07,5.83-.06,2.41,0,4.82.12,7.22,0,1.42,0,2.82,0,4.24.06,1.69.1,3.39.11,5.09a5,5,0,0,1-3.59,1.93,9.63,9.63,0,0,1-2.27.19c-.23,0-.47,0-.66-.14.6,0,1.13-.08.9-1a.75.75,0,0,1,.61-.89c.48-.14.66.21.8.57l.23.66c.09.24.2.46.53.45a.81.81,0,0,0,.63-.39c.2-.28-.09-.43-.24-.58-.79-.82-1.56-1.67-2.42-2.43a2.08,2.08,0,0,1-.67-1.39c-.09-.72.52-1.1,1.25-.8a4,4,0,0,1,1.57,1.44,2.42,2.42,0,0,0,.53.53c.24.17.48.45.8.2a.89.89,0,0,0,.37-.92,1.41,1.41,0,0,1,.82-1.71c.5-.26.5-.87.46-1.29-.13-1.15.11-2.28,0-3.41-.23-3.21,0-6.43-.24-9.64-.09-1.08.1-2.17,0-3.26s-.21-2-1.48-2.37c-.47-.13-.72-.7-1-1.1a4.44,4.44,0,0,1-.32-2.25c-.13-.55-.06-1.13-.2-1.68a5,5,0,0,1,.09-2.24,7.06,7.06,0,0,1,.42-3.19l0-.42c.16-.51,0-1.1.49-1.52A4.54,4.54,0,0,1,58.78,25.29Z"/><path class="cls-13" d="M136.08,39.21c-1.76-.56-3.55-1-5.34-1.52-1.61-.42-3.21-.86-4.8-1.34-1.81-.55-3.64-1.08-5.46-1.59s-3.75-1.16-5.66-1.62c-1.53-.37-3-.92-4.53-1.28-.7-.16-1.51-.15-2-.88a.38.38,0,0,0-.16.3c0,1.81-.28,3.6-.32,5.42a1.44,1.44,0,0,0,.56,1.2,1.66,1.66,0,0,0,1.22.39l.16,0a2.56,2.56,0,0,0,1,.5,1.56,1.56,0,0,1,.67,2.55,3.25,3.25,0,0,1-.5.48c-.86.71-1.74,1.4-2.57,2.14-.14.13-.39.21-.27.49l-.28.38h-.16c-1.35.84-2.47,2-3.81,2.84a5.39,5.39,0,0,1-1.34,1.18,6.12,6.12,0,0,1-1.3,1.24c-.76.93-1.85,1.5-2.65,2.39a9.56,9.56,0,0,1-2.53,2.12,2.14,2.14,0,0,0-.71.66,16.26,16.26,0,0,1-3,3.11,39.23,39.23,0,0,0-4.27,4.18,41.09,41.09,0,0,0-4.91,5.38l-.29.28a14.34,14.34,0,0,1-2.49,2.11,8.51,8.51,0,0,1-4.33,1A8.3,8.3,0,0,1,74.69,71a6.52,6.52,0,0,1-2.76-.9c-1-.68-1.39-1.6-.62-2.54s1.83-2,2.75-3a3,3,0,0,1,.63-.74c.82-.76,1.49-1.57.93-2.79a.81.81,0,0,1,0-.35c0-1.23-.38-2.42-.32-3.66a1.29,1.29,0,0,0-.13-.61A2.05,2.05,0,0,1,75,55.32a5.07,5.07,0,0,0-.14-1.73,3.56,3.56,0,0,1-.14-1.38,3.19,3.19,0,0,0-.28-1.56c-.18-.51-.48-.56-.88-.15-.25.25-.41.57-.67.8-2,1.76-3.85,3.64-5.72,5.52s-3.54,3.68-5.32,5.52c-1.24,1.29-2.46,2.61-4.38,2.85A6.87,6.87,0,0,1,54,65.13a6.52,6.52,0,0,0-1.21-.31,4.89,4.89,0,0,1-1.92-.71,1.89,1.89,0,0,1-.1-3.06c1.11-1.14,2.17-2.3,3.22-3.48a1.07,1.07,0,0,0,.29-1.16,9.6,9.6,0,0,1-.4-3.36c-.15-1.95-.26-3.93-.41-5.89a7.26,7.26,0,0,0-.34-2.1L53,45c-1.2,1.52-2.77,2.66-4.11,4.06-2,2-4,4-5.91,6.09q-4.47,4.71-8.61,9.73c-.19.63,0,1.15.76,1.22a18.25,18.25,0,0,1,2.59.69c1.53.39,3,.94,4.48,1.44,2.89,1,5.8,1.91,8.75,2.7a18.48,18.48,0,0,1,2.94.79,11.07,11.07,0,0,0,1.65.83c2,.54,4,1.31,6,1.9A16.37,16.37,0,0,0,63.4,75l.62.15c1.61.45,3.18,1.09,4.77,1.63l4,1.41c.14.1.28.19.42.31a1,1,0,0,0,.65.21,5.16,5.16,0,0,1,2,.48,69.72,69.72,0,0,0,7.14,2.42,13.88,13.88,0,0,1,2.81,1c.68.4.71.52.22,1.12a24.8,24.8,0,0,0-1.88,2.68c-.13.19-.31.37-.22.63a.12.12,0,0,0,.18,0c.72-1,1.46-1.9,2.16-2.88.93-1.3,1.9-2.57,2.92-3.79,2.4-2.89,4.9-5.69,7.47-8.42s5-5.28,7.56-7.79c2-1.87,3.79-3.89,5.91-5.6.55-.45,1-1.09,1.55-1.5a23.39,23.39,0,0,0,3.1-2.68c1.5-1.47,3.13-2.77,4.68-4.17.83-.75,1.65-1.52,2.53-2.19,2.32-1.77,4.43-3.81,6.88-5.43a31.93,31.93,0,0,0,3.4-2.75,3.57,3.57,0,0,1,4.86.42,7.29,7.29,0,0,0,.73.74A3.21,3.21,0,0,0,136.08,39.21ZM77.43,72.28a6.7,6.7,0,0,0,1.1.22C77.92,72.78,77.69,72.73,77.43,72.28ZM94.78,57.61a2,2,0,0,1,.73-.86A2.43,2.43,0,0,1,94.78,57.61Zm4.81-3.4c-.1.9-.37,1.11-1.28,1a2.71,2.71,0,0,0-.75-.05c.71-.68,1.46-1.31,2.17-2A9.44,9.44,0,0,0,99.59,54.21Z"/><path class="cls-35" d="M54,57.75c-.77.82-1.55,1.63-2.32,2.46a15.46,15.46,0,0,0-1.14,1.29,1.71,1.71,0,0,0,.79,2.7,25,25,0,0,0,2.51.77.89.89,0,0,1,.28,0c.55.06,1,0,.62-.71a.37.37,0,0,1,0-.21,26.17,26.17,0,0,0-.26-4.76C54.43,58.8,54.71,58.08,54,57.75Z"/><path class="cls-11" d="M57.8,28.47a19.09,19.09,0,0,0-.42,3.19A4.48,4.48,0,0,1,57.8,28.47Z"/><path class="cls-11" d="M57.29,33.9a2.93,2.93,0,0,1,.2,1.68A2.93,2.93,0,0,1,57.29,33.9Z"/><path class="cls-11" d="M58.31,26.53a15.83,15.83,0,0,0-.49,1.52C57.89,27.51,57.7,26.89,58.31,26.53Z"/><path class="cls-36" d="M70.48,32.65a8.74,8.74,0,0,0-.36,3.55c.13,1.29.22,2.58.32,3.87a7.85,7.85,0,0,0,.85,3.11,1.56,1.56,0,0,0,1.08.81,2.26,2.26,0,0,1,1.68,2.07c.29,1.45.38,2.93.55,4.39-.65-.54-.84-.56-1.4.12a18.47,18.47,0,0,1-2.57,2.51,25,25,0,0,0-2,2.11c-.91.94-1.84,1.86-2.75,2.8-1.12,1.13-2.23,2.28-3.26,3.5a4.75,4.75,0,0,1-.69.57c-.07-2.45-.17-4.9-.21-7.35,0-.86,0-1.73,0-2.6-.05-1.55,0-3.11,0-4.66,0-2.27-.08-4.54-.11-6.81a5.73,5.73,0,0,0-.64-2c-.19-.48-.72-.55-1.16-.68a1.22,1.22,0,0,1-1-1A19.34,19.34,0,0,1,59,28.7c.26-1.06.83-2,1-3.07.09-.54.76-1,1.16-1.44a24.39,24.39,0,0,1,4.06-3.66c1.6-1.22,3.16-2.49,4.79-3.68.79-.57,1.6-1.11,2.36-1.72,2.31-1.82,4.82-3.35,7.29-4.94,1.59-1,3.28-1.89,4.94-2.83a6.81,6.81,0,0,0,1.19-.82c.54-.48,2.5-.84,3-.32A4,4,0,0,1,90,8.81c.06.87-.09,1.76-.09,2.64a10.18,10.18,0,0,0-.14,2.41c.08.3-.15.58-.49.82-1.34.94-2.81,1.68-4.11,2.7-1,.78-2.12,1.4-3.19,2.09a2,2,0,0,0-.7.66c-.08.5-.6.51-.89.76-1.56,1.33-3.31,2.43-4.84,3.8a2.58,2.58,0,0,1-.37.19l-.58.53A9.86,9.86,0,0,0,71.78,29a16.85,16.85,0,0,0-1.07,3.19C70.65,32.38,70.63,32.55,70.48,32.65Z"/><path class="cls-35" d="M73.58,70.56l-1.38-.45a1.66,1.66,0,0,1-.78-2.56,26.79,26.79,0,0,1,2.38-2.62A11.36,11.36,0,0,0,75,63.6l.29-.27c.42-.33.68-.26.72.3.09,1.24.31,2.46.41,3.69a30.27,30.27,0,0,1,.3,3c0,.81,0,.89-.88.74h0C75,71,74.33,70.65,73.58,70.56Z"/><path class="cls-37" d="M75.81,71.08c.69.09.8-.16.75-.86-.16-2.18-.59-4.32-.71-6.5,0-.49-.2-.55-.59-.39,0-.3.33-.35.5-.52.23,0,.4.08.38.37a25.56,25.56,0,0,0,.44,4.19A15,15,0,0,0,77,70.7c.12.34-.31.3-.35.52C76.35,71.21,76.05,71.3,75.81,71.08Z"/><path class="cls-37" d="M75,63.6a2.63,2.63,0,0,1-1.17,1.33l.19-.36Z"/><path class="cls-22" d="M70.48,32.65a12.63,12.63,0,0,1,1.35-4.09A8.56,8.56,0,0,1,74,25.77c.18-.14.32-.34.57-.36a7.68,7.68,0,0,1-1.18,1.17.78.78,0,0,0-.31.79c.1.36.46.22.71.26,1.62.26,3.22.61,4.84.76a6.46,6.46,0,0,0,2.8.13,7.75,7.75,0,0,0-2,2.9,9,9,0,0,0-1,3.09,10.58,10.58,0,0,0-.36,2.11c.25,2.17-.09,4.38.41,6.55.35,1.52.24,1.58-1.38,1.54a10.52,10.52,0,0,0-2.57,0,.71.71,0,0,1-.62-.26,2.45,2.45,0,0,0-1.17-.69c-1.38-.32-1.65-1.52-2-2.62s-.08-2.54-.32-3.76A28.51,28.51,0,0,1,70.48,32.65Z"/><path class="cls-22" d="M75.15,24.88a33.13,33.13,0,0,1,4-3.12c.73-.53,1.43-1.09,2.14-1.63h.27a26.8,26.8,0,0,1-3,2.34c-.88.67-1.76,1.35-2.62,2.06C75.7,24.72,75.5,25,75.15,24.88Z"/><path class="cls-22" d="M81.66,20a6.35,6.35,0,0,1,1.88-1.18A4.1,4.1,0,0,1,81.66,20Z"/><path class="cls-38" d="M98.09,37.58c.3.78.82.73,1.41.53a7.15,7.15,0,0,1,.94-.22.8.8,0,0,0,.63-1.24c-.14-.29-.32-.57-.44-.86-.19-.45.06-.74.38-1s.52-.15.78.06.77.11,1.12,0,.28-.48.24-.78a1.68,1.68,0,0,1,.45-1.2.43.43,0,0,1,.71-.07,1.43,1.43,0,0,1-.4,2.48,1.81,1.81,0,0,0-.84,2c.16.94-.08,1.52-.75,1.82-.43.19-1,0-1.3.51s.19.88.15,1.34c0,.11,0,.28,0,.34-.87.82,0,1.59.1,2.37a.71.71,0,0,0,1,.54.57.57,0,0,1,.72.26c.13.28-.1.49-.34.6s-.43.47-.6.74-.48.6-.9.42-.94-.48-.76-1.07a1,1,0,0,0-.23-1,2.71,2.71,0,0,1-.37-1.8c0-.44-.12-.81-.5-1a1.81,1.81,0,0,1-1-1.95A13.81,13.81,0,0,1,98.09,37.58Z"/><path class="cls-32" d="M96.74,51.93h0c-.25-.1-.6.36-.73,0a1.82,1.82,0,0,1-.13-1.34,2.06,2.06,0,0,0,.25-1.45c-.09-.33.25-.62.67-.63.23,0,.58,0,.55-.26-.11-1,.39-2-.14-3-.1-.18-.21-.36-.3-.55-.25-.55-.14-.8.44-.78,1.54,0,2-.26,2.36,1.64a1.22,1.22,0,0,0,.24.5.75.75,0,0,1-.08,1.11,1.06,1.06,0,0,0-.3.67c-.15,1-.61,1.3-1.57,1.07-.52-.12-.52.29-.38.55a2.66,2.66,0,0,1,.15,1.8C97.71,51.84,97.53,52.14,96.74,51.93Z"/><path class="cls-39" d="M99.86,32.34a.64.64,0,0,0,.28.81A.66.66,0,0,1,100,34.3a1.47,1.47,0,0,0-1,.92c-.17.41-.54.48-.91.13a2.27,2.27,0,0,1-.26-3,1.75,1.75,0,0,0,.43-1.21,1,1,0,0,1,.3-.82c.25-.22.54-.32.76.05A2.9,2.9,0,0,1,99.86,32.34Z"/><path class="cls-32" d="M93.27,48.41a2.14,2.14,0,0,0-.37-1.78,1.58,1.58,0,0,1,0-1.66c.16-.35.43-.38.58,0a4.74,4.74,0,0,0,1.21,1.8c.57.54.34,2.67-.23,3.21s-1,.17-1.18-.49A5.78,5.78,0,0,1,93.27,48.41Z"/><path class="cls-38" d="M103.1,28.74A1.17,1.17,0,0,1,101.68,30c-.31,0-.6-.14-.9.12s-.51.12-.76-.09a1,1,0,0,1-.27-1,.54.54,0,0,1,.58-.49c.4,0,.63-.06.75-.51a.88.88,0,0,1,.9-.65,1,1,0,0,1,.91.65C103,28.29,103.05,28.58,103.1,28.74Z"/><path class="cls-40" d="M94,30.83c-.09.84-.41,1.14-1.09,1.13a1.35,1.35,0,0,0-.79.17c-.2.13-.42.32-.61.06s-.33-.52-.12-.76a3,3,0,0,0,.56-1.74c0-.39.24-.84.67-.89s.61.35.84.65A5.29,5.29,0,0,1,94,30.83Z"/><path class="cls-41" d="M93.85,54.81a1.37,1.37,0,0,1-1.1,1c-.62.06-.74-.41-.89-.87a2.85,2.85,0,0,1,0-1.89c.13-.41.33-.81.86-.72s.92.36.78.94S93.93,54.18,93.85,54.81Z"/><path class="cls-39" d="M96.68,34.73a1.26,1.26,0,0,1-.17.76c-.33.51-.7.55-1.13.14a3,3,0,0,1-.45-3c.2-.4.4-.43.81-.19A2.12,2.12,0,0,1,96.68,34.73Z"/><path class="cls-42" d="M91.76,38.26c-.27.69-.49,1.38-.8,2-.2.41-.74.34-1-.09a2.07,2.07,0,0,1,.55-2.77c.26-.17.39-.68.74-.51s.4.65.45,1A2,2,0,0,0,91.76,38.26Z"/><path class="cls-43" d="M88.58,44.11c.42-.67.13-1.6.66-2.3s.79-.6,1.12.11a2.87,2.87,0,0,1-.27,2.64A.93.93,0,0,1,89,45C88.7,44.9,88.6,44.52,88.58,44.11Z"/><path class="cls-38" d="M103.39,41.27c.54-.06.79.1,1,.42.37.68.81,1.33.26,2.11a.69.69,0,0,1-1.26,0,6.76,6.76,0,0,1-.58-2.05C102.64,41.23,103.23,41.3,103.39,41.27Z"/><path class="cls-44" d="M91.63,57.39c-.1.36-.22.83-.38,1.29s-.51.56-.91.23a1.2,1.2,0,0,1-.45-1.48,2.3,2.3,0,0,0,.2-1.42c-.08-.32.13-.42.42-.33A2.77,2.77,0,0,1,91.63,57.39Z"/><path class="cls-45" d="M87.17,60.68c.11-.33.1-.86.66-1.07a1,1,0,0,1,1.21.17c.57.67-.22,1-.4,1.5a.66.66,0,0,1-1,.42A.93.93,0,0,1,87.17,60.68Z"/><path class="cls-46" d="M90.73,49.38a3.87,3.87,0,0,1,0-.48.65.65,0,0,1,.57-.61c.34-.06.41.24.5.47a1.93,1.93,0,0,1,0,1.85c-.11.19-.27.41-.53.39s-.33-.24-.43-.47A2,2,0,0,1,90.73,49.38Z"/><path class="cls-47" d="M104.82,24.65a1.56,1.56,0,0,0-.09,1.11.29.29,0,0,1-.22.38.32.32,0,0,1-.42-.25.9.9,0,0,0-.44-.67c-.51-.25-.43-.66-.26-1.06s.46-.7.84-.56A1,1,0,0,1,104.82,24.65Z"/><path class="cls-46" d="M89.59,49.75c.63.18.73.73,1,1.17a.79.79,0,0,1-.15.91c-.19.24-.41.11-.62,0a1.6,1.6,0,0,1-.65-1.56A.67.67,0,0,1,89.59,49.75Z"/><path class="cls-47" d="M106.88,25c-.18.32-.42.73-.89.67s-.95-.17-.89-.78a1,1,0,0,1,.86-1C106.3,23.87,106.9,24.57,106.88,25Z"/><path class="cls-40" d="M94.85,30.38c.2,0,.43,0,.38.29s-.08.61-.41.64a.55.55,0,0,1-.55-.51C94.24,30.46,94.62,30.47,94.85,30.38Z"/><path class="cls-37" d="M73.58,70.56a6,6,0,0,1,2.2.51A5.58,5.58,0,0,1,73.58,70.56Z"/><path class="cls-48" d="M29.17,107.75a5.46,5.46,0,0,1,.09-2.54,6.45,6.45,0,0,1,1.9-2.34.36.36,0,0,1,.26,0,32.32,32.32,0,0,1,3.67.25,24.48,24.48,0,0,0,2.69.26,40,40,0,0,1,4,.61c1,.16,1.15.12,1.44-.61.15.59.55.75,1.13.88a11.66,11.66,0,0,1,3.28.85c.24.14.37,0,.47-.23s0-.54.38-.56a4.72,4.72,0,0,1,0,.76c-.1.49.16.67.55.79a41.17,41.17,0,0,1,7,3c1.15.62,2.31,1.21,3.41,1.92-.18.26-.49.36-.73.54A2.66,2.66,0,0,0,57.48,113a9.25,9.25,0,0,1-.36,1.49,2.87,2.87,0,0,0,.3,1.81c.09.33.43.3.7.34.43.07.9-.1,1.26.26a2.82,2.82,0,0,1-1.63.12c-1.14-.18-2.3-.26-3.45-.36a40.71,40.71,0,0,1-5.13-.87c-.56-.12-1.13-.23-1.69-.37-.28-.07-.43.13-.63.22a25.29,25.29,0,0,1-3.58-1.06,2.79,2.79,0,0,0-1.8-.17c.08-.46-.13-.7-.56-.88q-2.94-1.19-5.85-2.44c-1.77-.78-3.45-1.72-5.13-2.67A3.85,3.85,0,0,1,29.17,107.75Z"/><path class="cls-49" d="M41.47,114.44c.09-.5.37-.31.7-.26a45.77,45.77,0,0,1,4.46,1.34.78.78,0,0,1,.22.15c0,.18,0,.37,0,.56a7.29,7.29,0,0,0-.28,1.91c-.12,1.49-.06,3-.26,4.49l0,.56c-.22,1.42-.14,2.85-.26,4.28a2.19,2.19,0,0,0-.19,1c-.08,1.71-.14,3.42-.23,5.13a1.31,1.31,0,0,1-1.5,1.42,5.24,5.24,0,0,0-1.31,0l-.12,0-.41-.11c-1.78-.54-1.87-.75-1.87-2.59,0-1.66.08-3.3.12-4.95.08-2.86.34-5.71.55-8.56C41.11,117.39,41.38,115.92,41.47,114.44Z"/><path class="cls-49" d="M46,128.21l0,1.54a39.33,39.33,0,0,1-.2,4.6,1.39,1.39,0,0,1-.87.84l0-.12a3.12,3.12,0,0,0,.71-2.42c.07-1.46.05-2.92.24-4.37A.15.15,0,0,1,46,128.21Z"/><path class="cls-48" d="M46.27,122.63l.24-5.66a.89.89,0,0,1,.3-.74c0,.89-.3,1.75-.24,2.64s-.1,2-.16,3C46.39,122.15,46.46,122.42,46.27,122.63Z"/><path class="cls-48" d="M46,128.21h-.11c-.21-.23-.12-.46,0-.69.05-1.2.11-2.4.17-3.6,0-.24-.06-.51.16-.72C46.15,124.87,46.08,126.54,46,128.21Z"/><path class="cls-48" d="M45.76,134.35c.06-1.54.13-3.07.2-4.6A19.69,19.69,0,0,1,45.76,134.35Z"/><path class="cls-49" d="M44.89,135.19a3,3,0,0,1-2.27-.11l0,0a4.21,4.21,0,0,1,2.2.1Z"/><path class="cls-50" d="M48.45,104.28c-.28.34-.07,1-.48,1.12s-.73-.3-1.12-.45a13.54,13.54,0,0,0-2.88-.6c-.78-.11-.84-.42-.78-1,.47-2.55,1-5.09,1.75-7.58.35-1.25.68-2.5,1-3.74a4.83,4.83,0,0,0,.57-1.19,1.75,1.75,0,0,1,2.11-1.3,9.76,9.76,0,0,1,2,.62,1.91,1.91,0,0,1,.76,2.41c-.17.44-.27.88-.42,1.32a7.49,7.49,0,0,0-.71,2.3c-.61,2.49-1.31,5-1.69,7.5A4.44,4.44,0,0,1,48.45,104.28Z"/><path class="cls-51" d="M59.38,116.93l-1.53-.09c-.4,0-.52-.23-.72-.62-.63-1.26,0-2.38.23-3.51a2.6,2.6,0,0,1,2-2c1.54.45,2,2.09,1.67,3.54A3.73,3.73,0,0,1,59.38,116.93Z"/><path class="cls-52" d="M22.46,129.7a2.24,2.24,0,0,1,2.4-2,5.15,5.15,0,0,1,2.48.32,4,4,0,0,1,1.56,1.27.65.65,0,0,1,.26.79,1.79,1.79,0,0,1-1.39,1.5,5.24,5.24,0,0,1-5-1.26C22.64,130.15,22.38,130,22.46,129.7Z"/><path class="cls-53" d="M22.46,129.7a4.82,4.82,0,0,0,4.42,1.76c.59-.1,1.18,0,1.64-.54a1.45,1.45,0,0,0,.38-1.64.56.56,0,0,1,.56.32,3.3,3.3,0,0,1-.39,2.56c-1,1.13-2.19,1.11-3.54,1a3.74,3.74,0,0,1-2.27-1,5,5,0,0,1-1.09-1.81A.47.47,0,0,1,22.46,129.7Z"/><path class="cls-52" d="M57.83,139.5c0-.94.51-1.37,1.37-1.78a3.26,3.26,0,0,1,2.77-.11,5.05,5.05,0,0,1,2.44,1.48,1.69,1.69,0,0,1-1.11,2.42,5.39,5.39,0,0,1-5.13-1.28A.94.94,0,0,1,57.83,139.5Z"/><path class="cls-54" d="M57.83,139.5c1.1,1.83,2.91,2.07,4.78,2,1.27-.06,1.73-.68,1.79-2,0-.14,0-.28,0-.42a2,2,0,0,1,.92,2.07,2.21,2.21,0,0,1-.73,1.22,2.51,2.51,0,0,1-1.79,1,7,7,0,0,1-2.74-.18c-.92-.4-1.91-.82-2.23-2a1.79,1.79,0,0,0-.26-.49C57.23,140.26,57.26,139.83,57.83,139.5Z"/><path class="cls-55" d="M70.68,43.48a1.25,1.25,0,0,1-1,1.31c-.33.06-.4.25-.42.52a.59.59,0,0,1-.47.54.56.56,0,0,1-.59-.3,4.56,4.56,0,0,1-.49-.82c-.22-.51.07-1,.59-1s.75-.27.92-.71.12-.68.4-.94.88-.27,1,.26A10,10,0,0,1,70.68,43.48Z"/><path class="cls-56" d="M73,24c0,.52-.17.89-.73,1a2,2,0,0,0-1.13.78c-.13.17-.29.33-.51.27s-.27-.33-.21-.52a11.66,11.66,0,0,1,1.15-3.2c.21-.33.49-.27.76,0A2.12,2.12,0,0,1,73,24Z"/><path class="cls-57" d="M69.47,36.65a1.93,1.93,0,0,1-1.48,2c-.49.13-.81-.11-.65-.54.32-.84.26-1.74.51-2.58.12-.39.29-.75.79-.74s.6.38.68.75S69.44,36.39,69.47,36.65Z"/><path class="cls-58" d="M70.24,47.78c0-.3,0-.51,0-.72,0-.44.24-.89.68-.92a1,1,0,0,1,1,.86c.07.38.16.76.24,1.14A1.56,1.56,0,0,1,71,49.86a.51.51,0,0,1-.62-.51A5.72,5.72,0,0,1,70.24,47.78Z"/><path class="cls-59" d="M68.53,32.56a2.86,2.86,0,0,1,.91-2c.21-.19.42-.53.75-.35a.77.77,0,0,1,.33.86,14.66,14.66,0,0,1-.65,2.59.49.49,0,0,1-.49.3.65.65,0,0,1-.69-.36A1.93,1.93,0,0,1,68.53,32.56Z"/><path class="cls-60" d="M68.26,51.8c-.1-.54.34-.95.37-1.47,0-.23.25-.29.5-.19A1.29,1.29,0,0,1,69.82,52a3.4,3.4,0,0,1-.38.67c-.15.21-.3.52-.64.44a.77.77,0,0,1-.56-.72A3.46,3.46,0,0,1,68.26,51.8Z"/><path class="cls-61" d="M104.55,33.87c0,.38,0,.79-.5.75a.66.66,0,0,1-.58-.8c.06-.34.06-.92.54-.89S104.63,33.42,104.55,33.87Z"/><path class="cls-62" d="M50.32,111c-2-.38-4-.69-6-1.15a58,58,0,0,1-10.21-3.56,2.28,2.28,0,0,1-.9-.84c-.2-.25.34-.74.85-.71,1,.08,2,.15,3,.3a44.76,44.76,0,0,1,6.07,1.36c1.69.49,3.33,1.11,5,1.67A13.72,13.72,0,0,1,51,109.32a4.58,4.58,0,0,1,1,.76c.14.15.39.26.27.5a.68.68,0,0,1-.61.4l-1.32-.06Z"/><path class="cls-63" d="M44.86,135.14l-2.2-.1c.12-.27.36-.25.6-.24a9,9,0,0,0,1,0,1,1,0,0,0,1-1.05c.09-1.83.17-3.66.25-5.49,0-.29-.06-.63.31-.79,0,.23,0,.46,0,.69-.08,1.67-.19,3.34-.21,5A2.17,2.17,0,0,1,44.86,135.14Z"/></g><path class="cls-8" d="M29.46,97.18c7.72,0,7.73-12,0-12s-7.74,12,0,12Z"/><path class="cls-8" d="M26,93.08c4.51,0,4.52-7,0-7s-4.51,7,0,7Z"/><path class="cls-8" d="M24.81,92.5c4.5,0,4.51-7,0-7s-4.51,7,0,7Z"/><path class="cls-8" d="M84,87.09c-.32-.08-.48.15-.62.36-.5.75-1,1.48-1.53,2.25a71.41,71.41,0,0,0-4.37,7.78,1,1,0,0,1-1.6.44,2.68,2.68,0,0,0-1.29-.51A4.29,4.29,0,0,1,73,97a10.61,10.61,0,0,0-2.86-.86,9.67,9.67,0,0,1-2.39-.77,11.66,11.66,0,0,0-3.3-1.1c-2.26-.28-4.28-1.4-6.49-1.81a1.2,1.2,0,0,1-.45-.19,4.73,4.73,0,0,0-1.71-.57,11.6,11.6,0,0,1-1.77-.38c-.54-.19-1.06.06-1.59.08a.28.28,0,0,0-.26.23c.09-.66,0-.74-.54-.74a14.84,14.84,0,0,1-1,4.15c-.13.62-.44,1.18-.53,1.8-.17,1-.42,2-.67,3-.37,1.46-.64,2.94-.91,4.42-.2,1.11,0,1.25,1,1.62,1.27.46,2.53.94,3.75,1.5a61.59,61.59,0,0,1,6.78,3.68,1.65,1.65,0,0,1,.76.87,4.51,4.51,0,0,1-.39,3.93,2.65,2.65,0,0,1-3,1.28,4,4,0,0,0-.69-.12,53.31,53.31,0,0,1-6.41-.85,18,18,0,0,1-2.72-.58c-.43-.16-.71,0-.82.48a7.69,7.69,0,0,0-.21,1.58c.06,2.65-.46,5.27-.5,7.92s-.29,5.2-.18,7.81a2.06,2.06,0,0,1-2.6,2c-.61-.15-1.22-.3-1.82-.47a2,2,0,0,1-1.33-1.71c0-1,0-1.9,0-2.85,0-3.66.4-7.3.61-10.94,0-.17,0-.32.07-.48a42.31,42.31,0,0,1,.54-4.49c.11-.4-.1-.68-.55-.81a48.22,48.22,0,0,1-5.71-2.35,50,50,0,0,1-4.81-2.51c-.46-.25-1-.48-1.19-1.1a2.89,2.89,0,0,1,.08-2.79,9.51,9.51,0,0,1,1.34-1.68,1.56,1.56,0,0,1,1.3-.5,84.22,84.22,0,0,1,10,1.07c.73.09,1.21-.17,1.27-.91s.29-1.45.4-2.19c.17-1.21.53-2.39.8-3.58s.66-2.17,1-3.27A5.56,5.56,0,0,1,46,92.1c.35-1.06.66-2.15,1.79-2.68a.19.19,0,0,0,0-.34,4.7,4.7,0,0,0-.75-.13A47.22,47.22,0,0,1,42,87.33a11.25,11.25,0,0,0-3.39-.74,1.08,1.08,0,0,0-.18,0A79.24,79.24,0,0,0,30,83.78l-.53-.19a8.53,8.53,0,0,0-3.46-1,1,1,0,0,1-.58-.21,2.36,2.36,0,0,0-1.6-.28l-.32-.08a.51.51,0,0,0-.61.35,30.19,30.19,0,0,1-1,3.09,2.82,2.82,0,0,0-.18.29,12.38,12.38,0,0,0-1.07,3.48,1.68,1.68,0,0,0-.12.38c-.16,1.31-.56,2.57-.82,3.86-.4,2-.8,4-1.12,5.95-.29,1.8-.45,3.63-.72,5.44-.5,3.47-.72,7-.92,10.47-.13,2.15-.19,4.31-.23,6.48s-.15,4.45,0,6.68a8,8,0,0,0,2.77,5.79l1.08.74A11,11,0,0,0,23,136c2.08.55,4.13,1.2,6.2,1.77,2.79.77,5.55,1.63,8.34,2.38,2.24.6,4.45,1.27,6.66,1.94,1.46.45,2.94.79,4.38,1.28,2,.68,4,1.12,6.06,1.76a11.82,11.82,0,0,0,1.78.54,34.69,34.69,0,0,1,4.36,1.19c1.2.36,2.45.64,3.64,1.1,1,.39,2.16.52,3.2.91l.68,0a4.57,4.57,0,0,1,.83.06,2,2,0,0,0,1.41,0c-.21,0-.46,0-.66-.17a1.78,1.78,0,0,1,.89-.26,1.89,1.89,0,0,0,1.12-.65c.26-.32-.09-.59-.21-.87a2,2,0,0,1-.06-.34,58.65,58.65,0,0,1-.18-7.84c.1-3.65.2-7.29.56-10.93.26-2.67.35-5.34.76-8,.44-2.87.83-5.76,1.31-8.63.45-2.71,1.21-5.35,1.91-8a38,38,0,0,1,3.22-8.12,60.91,60.91,0,0,1,3.18-5.39c.6-.89,1.2-1.79,1.79-2.69Z"/></svg>